<svg width="360" height="800" viewBox="0 0 360 800" fill="none" xmlns="http://www.w3.org/2000/svg">
<g clip-path="url(#clip0_1156_2517)">
<rect width="360" height="800" fill="white"/>
<g opacity="0.3">
<path opacity="0.8" d="M354.76 83.5656C354.355 83.3313 353.032 84.0274 353.368 84.5436C357.377 90.7743 361.695 97.7998 360.843 105.481C358.903 102.796 356.798 100.233 354.798 97.6278C350.018 91.3858 346.183 84.7221 343.833 77.307C343.403 75.953 343.029 74.5858 342.704 73.1896C342.556 72.5154 341.022 73.2959 341.153 73.871C341.479 75.2673 341.842 76.6185 342.273 77.9725C344.512 85.1707 348.145 91.7173 352.736 97.7908C355.481 101.406 358.407 104.888 360.917 108.69C361.082 108.961 361.253 109.206 361.417 109.477L362.9 108.575C362.706 108.256 362.512 107.938 362.296 107.654C362.567 107.489 362.789 107.245 362.804 107.018C363.086 98.7224 362.968 88.3339 354.763 83.6072L354.76 83.5656ZM358.425 89.5904C358.677 90.0049 358.898 90.4386 359.092 90.8662C358.872 90.4324 358.636 90.0083 358.425 89.5904Z" fill="#3E84F6"/>
<path d="M345.576 67.1406C345.264 67.4177 344.991 67.7586 344.785 68.1022C343.923 69.5217 343.73 71.3211 344.254 72.9017C344.219 71.2637 343.914 69.6146 343.119 68.1988C342.828 67.7206 342.485 67.23 341.972 66.9964C341.459 66.7628 340.784 66.8021 340.444 67.2489C340.187 67.5801 340.158 68.0346 340.167 68.4441C340.202 70.4756 340.879 72.4873 342.064 74.147C340.78 71.8927 339.406 69.5622 337.183 68.2064C336.557 67.8231 335.698 67.5596 335.15 68.0237C334.994 68.1623 334.877 68.3646 334.802 68.5634C334.434 69.5735 334.988 70.6996 335.614 71.5853C336.572 72.9456 337.754 74.1702 339.085 75.1731C337.622 73.9887 335.968 73.0293 334.214 72.3714C333.669 72.1571 332.954 72.0239 332.563 72.4583C331.559 73.5715 334.083 76.0326 334.819 76.6328C337.247 78.6496 340.533 79.0966 343.242 77.4482C343.377 77.4538 343.533 77.424 343.728 77.3492C345.388 76.6671 346.801 75.4362 347.694 73.8885C348.457 72.5944 349.493 70.9594 349.634 69.4323C349.745 68.1422 349.029 66.6779 347.76 66.4233C346.969 66.2714 346.209 66.6024 345.601 67.1469L345.576 67.1406Z" fill="#F8D678"/>
<path d="M334.801 65.8342C334.131 65.128 333.007 65.506 332.426 66.1655C332.165 66.4551 331.998 66.8625 332.163 67.2422C332.235 67.3954 332.354 67.5194 332.501 67.5825C332.573 67.8444 332.783 68.0447 333.065 68.1134C333.484 68.2292 333.957 68.0727 334.314 67.8338C334.983 67.4265 335.4 66.4961 334.769 65.8536L334.801 65.8342Z" fill="white"/>
<path d="M338.634 64.3101C337.918 64.3529 336.971 64.9506 336.969 65.7377C336.967 65.9137 337.089 65.9706 337.249 65.9824C337.418 66.4037 337.721 66.7218 338.239 66.7122C338.918 66.7144 339.983 66.132 339.917 65.3421C339.875 64.7344 339.21 64.2873 338.634 64.3101Z" fill="white"/>
<path d="M343.105 63.5117C342.643 63.6841 342.194 64.0228 341.998 64.4912C341.888 64.7766 341.868 65.1383 342.096 65.3704C342.206 65.4786 342.359 65.516 342.5 65.496C342.732 65.7697 343.12 65.9049 343.501 65.8482C344.261 65.7347 345.242 64.9416 344.962 64.0858C344.714 63.3194 343.747 63.2742 343.105 63.5117Z" fill="white"/>
</g>
<g opacity="0.2">
<path d="M320.884 601.281C323.24 602.202 324.591 602.108 326.896 602.046" stroke="#7C5E3D" stroke-width="0.55" stroke-miterlimit="10"/>
<path d="M321.79 598.726C322.887 599.156 323.434 600.392 323.005 601.489C322.576 602.586 321.34 603.133 320.243 602.704C319.146 602.275 318.599 601.038 319.028 599.941C319.457 598.844 320.694 598.297 321.79 598.726Z" fill="#7C5E3D"/>
<path d="M325.84 594.051C328.196 594.972 329.125 595.953 330.79 597.555" stroke="#7C5E3D" stroke-width="0.55" stroke-miterlimit="10"/>
<path d="M324.791 596.549C325.888 596.978 327.124 596.431 327.553 595.334C327.982 594.238 327.435 593.001 326.339 592.572C325.242 592.143 324.005 592.69 323.576 593.787C323.147 594.884 323.694 596.12 324.791 596.549Z" fill="#7C5E3D"/>
<path d="M319.473 596.023C321.829 596.944 324.469 598.134 326.767 598.08" stroke="#7C5E3D" stroke-width="0.55" stroke-miterlimit="10"/>
<path d="M320.379 593.468C321.476 593.897 322.023 595.134 321.594 596.231C321.165 597.328 319.929 597.875 318.832 597.446C317.735 597.017 317.188 595.78 317.617 594.683C318.046 593.586 319.283 593.039 320.379 593.468Z" fill="#7C5E3D"/>
<path d="M336.537 603.632C334.621 603.671 332.401 603.859 330.512 603.432C329.302 603.159 325.871 602.211 325.133 601.18C323.296 598.631 326.609 596.595 328.787 596.944C331.426 597.37 334.809 598.961 336.799 600.732C337.749 601.578 338.864 604.129 336.53 603.624L336.537 603.632Z" fill="#D1B852"/>
<path d="M336.892 604.409C335.239 605.374 333.389 606.622 331.538 607.163C330.343 607.512 326.894 608.354 325.748 607.819C322.895 606.488 324.805 603.097 326.882 602.343C329.39 601.426 333.13 601.171 335.72 601.745C336.958 602.018 339.174 603.704 336.892 604.409Z" fill="#C6972C"/>
<path d="M338.335 601.245C337.773 599.415 337.252 597.245 336.258 595.592C335.613 594.526 333.648 591.567 332.445 591.188C329.445 590.246 328.555 594.031 329.57 595.988C330.798 598.368 333.378 601.078 335.679 602.41C336.776 603.051 339.548 603.314 338.349 601.245L338.335 601.245Z" fill="#C6972C"/>
<path d="M338.941 603.853C338.363 604.434 337.897 604.972 336.943 605.137C336.151 605.266 335.91 604.87 335.35 604.369C335.327 603.486 335.94 602.445 336.264 601.638C336.461 601.129 336.629 600.195 337.236 600.024C338.346 599.703 339.402 601.023 339.637 601.921C339.944 603.073 339.301 603.435 338.948 603.86L338.941 603.853Z" fill="#7C5E3D"/>
<path d="M338.424 603.281C340.002 603.893 341.793 604.9 343.49 605.024C345.209 605.141 347.111 605.116 348.708 604.405" stroke="#7C5E3E" stroke-width="0.55" stroke-miterlimit="10"/>
<path d="M332.255 557.579C333.186 559.932 333.097 561.283 333.045 563.588" stroke="#7C5E3D" stroke-width="0.55" stroke-miterlimit="10"/>
<path d="M329.697 558.504C330.131 559.599 331.369 560.141 332.465 559.707C333.56 559.274 334.102 558.035 333.668 556.94C333.234 555.845 331.996 555.303 330.901 555.737C329.806 556.17 329.264 557.409 329.697 558.504Z" fill="#7C5E3D"/>
<path d="M325.039 562.572C325.97 564.925 326.955 565.849 328.563 567.508" stroke="#7C5E3D" stroke-width="0.55" stroke-miterlimit="10"/>
<path d="M327.54 561.506C327.973 562.602 327.431 563.84 326.336 564.274C325.241 564.707 324.003 564.165 323.569 563.07C323.135 561.975 323.677 560.737 324.772 560.303C325.868 559.869 327.106 560.411 327.54 561.506Z" fill="#7C5E3D"/>
<path d="M326.991 556.19C327.922 558.543 329.123 561.178 329.078 563.476" stroke="#7C5E3D" stroke-width="0.55" stroke-miterlimit="10"/>
<path d="M324.441 557.108C324.874 558.203 326.113 558.745 327.208 558.311C328.303 557.877 328.845 556.639 328.411 555.544C327.978 554.449 326.739 553.907 325.644 554.34C324.549 554.774 324.007 556.012 324.441 557.108Z" fill="#7C5E3D"/>
<path d="M334.67 573.223C334.702 571.306 334.881 569.086 334.446 567.199C334.168 565.99 333.206 562.563 332.172 561.829C329.615 560.003 327.593 563.324 327.951 565.501C328.388 568.137 329.993 571.514 331.772 573.497C332.622 574.443 335.177 575.548 334.663 573.216L334.67 573.223Z" fill="#D1B852"/>
<path d="M335.442 573.568C336.4 571.911 337.641 570.056 338.174 568.202C338.518 567.006 339.345 563.554 338.806 562.409C337.463 559.563 334.08 561.486 333.335 563.566C332.428 566.078 332.188 569.819 332.774 572.406C333.052 573.643 334.747 575.853 335.442 573.568Z" fill="#C6972C"/>
<path d="M332.291 575.031C330.459 574.476 328.287 573.964 326.63 572.978C325.561 572.336 322.594 570.384 322.21 569.183C321.256 566.186 325.037 565.281 326.998 566.288C329.384 567.506 332.104 570.074 333.445 572.37C334.091 573.464 334.366 576.236 332.291 575.045L332.291 575.031Z" fill="#C6972C"/>
<path d="M334.902 575.626C335.48 575.045 336.017 574.578 336.177 573.623C336.303 572.83 335.907 572.591 335.403 572.033C334.519 572.014 333.481 572.631 332.676 572.958C332.167 573.157 331.234 573.329 331.066 573.937C330.75 575.048 332.074 576.099 332.973 576.33C334.126 576.632 334.485 575.988 334.909 575.633L334.902 575.626Z" fill="#7C5E3D"/>
<path d="M334.328 575.111C334.946 576.687 335.961 578.474 336.092 580.171C336.216 581.889 336.199 583.791 335.495 585.39" stroke="#7C5E3E" stroke-width="0.55" stroke-miterlimit="10"/>
<path d="M361.67 594.861C361.04 597.973 361.454 599.613 362.018 602.447" stroke="#7C5E3D" stroke-width="0.69" stroke-miterlimit="10"/>
<path d="M365.023 595.434C364.736 596.884 363.324 597.82 361.874 597.533C360.424 597.246 359.487 595.834 359.774 594.384C360.061 592.934 361.474 591.997 362.924 592.284C364.374 592.571 365.31 593.984 365.023 595.434Z" fill="#7C5E3D"/>
<path d="M364.55 612.617C365.882 610.628 367.589 608.404 368.411 606.132C368.939 604.667 370.259 600.422 369.676 598.938C368.233 595.271 363.847 597.395 362.735 599.929C361.397 603 360.792 607.647 361.308 610.941C361.559 612.518 363.488 615.413 364.543 612.61L364.55 612.617Z" fill="#D1B852"/>
<path d="M365.124 613.514C367.258 612.421 369.829 611.312 371.65 609.725C372.829 608.697 376.047 605.636 376.263 604.058C376.778 600.154 371.92 599.874 369.717 601.547C367.048 603.575 364.256 607.343 363.103 610.471C362.554 611.971 362.83 615.435 365.117 613.507L365.124 613.514Z" fill="#C6972C"/>
<path d="M360.817 612.894C359.264 611.066 357.337 609.047 356.265 606.879C355.569 605.48 353.786 601.404 354.207 599.876C355.238 596.076 359.824 597.693 361.207 600.087C362.882 602.983 364.002 607.541 363.853 610.865C363.779 612.456 362.18 615.55 360.824 612.887L360.817 612.894Z" fill="#C6972C"/>
<path d="M363.162 615.3C364.173 615.093 365.05 614.964 365.868 614.057C366.538 613.313 366.29 612.784 366.139 611.858C365.219 611.237 363.712 611.177 362.651 610.967C361.979 610.834 360.882 610.376 360.289 610.901C359.209 611.858 359.885 613.857 360.665 614.718C361.671 615.819 362.498 615.386 363.169 615.307L363.162 615.3Z" fill="#7C5E3D"/>
<path d="M362.906 614.367C362.486 616.447 362.343 619.014 361.307 620.89C360.265 622.787 358.953 624.77 357.132 625.976" stroke="#7C5E3E" stroke-width="0.69" stroke-miterlimit="10"/>
<path d="M298.715 563.242C301.081 565.599 302.758 566.197 305.582 567.343" stroke="#7C5E3D" stroke-width="0.73" stroke-miterlimit="10"/>
<path d="M301.17 560.635C302.275 561.736 302.279 563.518 301.178 564.623C300.077 565.728 298.296 565.732 297.19 564.631C296.085 563.53 296.081 561.749 297.182 560.643C298.283 559.538 300.065 559.534 301.17 560.635Z" fill="#7C5E3D"/>
<path d="M308.538 557.119C310.905 559.476 311.509 561.151 312.667 563.97" stroke="#7C5E3D" stroke-width="0.73" stroke-miterlimit="10"/>
<path d="M309.929 559.577C311.028 558.474 311.024 556.688 309.921 555.589C308.817 554.49 307.032 554.494 305.933 555.597C304.834 556.701 304.837 558.486 305.941 559.585C307.044 560.684 308.83 560.681 309.929 559.577Z" fill="#7C5E3D"/>
<path d="M299.782 556.133C302.148 558.49 304.707 561.32 307.524 562.474" stroke="#7C5E3D" stroke-width="0.73" stroke-miterlimit="10"/>
<path d="M302.245 557.514C303.344 556.411 303.341 554.625 302.237 553.526C301.134 552.427 299.348 552.431 298.249 553.534C297.15 554.638 297.154 556.424 298.257 557.522C299.361 558.621 301.146 558.618 302.245 557.514Z" fill="#7C5E3D"/>
<path d="M316.408 574.357C314.073 573.4 311.285 572.444 309.231 570.935C307.907 569.955 304.259 567.014 303.909 565.381C303.031 561.317 308.114 560.62 310.571 562.192C313.544 564.095 316.798 567.815 318.268 571.001C318.971 572.52 318.979 576.197 316.408 574.357Z" fill="#CE8452"/>
<path d="M316.432 575.481C313.922 575.776 311.024 576.305 308.492 575.985C306.865 575.776 302.239 574.98 301.133 573.724C298.39 570.611 302.492 567.512 305.392 567.69C308.914 567.909 313.57 569.568 316.403 571.641C317.762 572.628 319.551 575.835 316.418 575.481L316.432 575.481Z" fill="#BA5E42"/>
<path d="M319.848 572.419C320.133 569.908 320.65 567.008 320.319 564.477C320.104 562.851 319.288 558.229 318.027 557.128C314.903 554.398 311.822 558.513 312.011 561.411C312.245 564.932 313.923 569.582 316.008 572.406C317.001 573.761 320.215 575.537 319.848 572.405L319.848 572.419Z" fill="#BA5E42"/>
<path d="M319.197 575.892C318.194 576.305 317.354 576.695 316.101 576.38C315.076 576.12 314.982 575.505 314.577 574.608C315.021 573.525 316.313 572.596 317.124 571.781C317.639 571.264 318.33 570.23 319.151 570.342C320.657 570.544 321.234 572.699 321.046 573.909C320.809 575.465 319.833 575.566 319.19 575.885L319.197 575.892Z" fill="#7C5E3D"/>
<path d="M318.87 574.931C320.457 576.512 322.088 578.672 324.084 579.715C326.102 580.764 328.416 581.728 330.721 581.723" stroke="#7C5E3E" stroke-width="0.73" stroke-miterlimit="10"/>
<path d="M351.563 572.912C351.737 575.33 351.259 576.533 350.549 578.62" stroke="#7C5E3D" stroke-width="0.53" stroke-miterlimit="10"/>
<path d="M348.975 573.016C349.055 574.14 350.026 574.994 351.15 574.914C352.274 574.834 353.127 573.863 353.047 572.739C352.967 571.615 351.997 570.761 350.873 570.841C349.748 570.921 348.895 571.892 348.975 573.016Z" fill="#7C5E3D"/>
<path d="M343.549 575.389C343.717 577.814 344.349 578.937 345.343 580.901" stroke="#7C5E3D" stroke-width="0.53" stroke-miterlimit="10"/>
<path d="M346.13 575.136C346.21 576.26 345.363 577.238 344.232 577.311C343.108 577.391 342.13 576.545 342.057 575.413C341.977 574.289 342.824 573.312 343.955 573.239C345.079 573.159 346.057 574.005 346.13 575.136Z" fill="#7C5E3D"/>
<path d="M347.166 570.128C347.34 572.546 347.671 575.289 346.962 577.376" stroke="#7C5E3D" stroke-width="0.53" stroke-miterlimit="10"/>
<path d="M344.578 570.232C344.658 571.356 345.629 572.21 346.753 572.13C347.877 572.05 348.73 571.079 348.65 569.955C348.57 568.831 347.6 567.977 346.476 568.057C345.351 568.138 344.498 569.108 344.578 570.232Z" fill="#7C5E3D"/>
<path d="M349.26 587.879C349.844 586.145 350.646 584.164 350.79 582.318C350.887 581.13 350.993 577.735 350.27 576.761C348.461 574.354 345.666 576.806 345.36 578.9C344.997 581.432 345.485 584.981 346.537 587.298C347.041 588.407 349.046 590.149 349.26 587.879Z" fill="#CE8452"/>
<path d="M349.855 588.429C351.211 587.196 352.869 585.856 353.899 584.327C354.561 583.335 356.316 580.426 356.144 579.224C355.742 576.241 352.102 577.019 350.811 578.698C349.253 580.73 347.958 584.07 347.745 586.609C347.641 587.819 348.551 590.32 349.841 588.443L349.855 588.429Z" fill="#BA5E42"/>
<path d="M346.561 588.846C345.053 587.81 343.219 586.718 341.986 585.334C341.192 584.445 339.051 581.805 339.049 580.589C339.042 577.576 342.748 577.837 344.25 579.333C346.071 581.133 347.817 584.254 348.381 586.735C348.652 587.923 348.106 590.526 346.554 588.839L346.561 588.846Z" fill="#BA5E42"/>
<path d="M348.77 590.143C349.476 589.788 350.091 589.511 350.506 588.683C350.851 587.996 350.554 587.657 350.255 587.007C349.456 586.733 348.332 586.997 347.498 587.055C346.968 587.092 346.076 586.981 345.745 587.483C345.139 588.404 346.047 589.745 346.797 590.21C347.76 590.817 348.282 590.335 348.763 590.136L348.77 590.143Z" fill="#7C5E3D"/>
<path d="M348.401 589.507C348.51 591.126 348.925 593.049 348.546 594.633C348.16 596.239 347.598 597.966 346.498 599.227" stroke="#7C5E3E" stroke-width="0.53" stroke-miterlimit="10"/>
<path d="M331.186 621.844C333.248 623.897 334.699 624.41 337.155 625.402" stroke="#7C5E3D" stroke-width="0.63" stroke-miterlimit="10"/>
<path d="M333.324 619.583C334.281 620.536 334.284 622.092 333.331 623.048C332.379 624.005 330.823 624.008 329.866 623.055C328.91 622.103 328.907 620.547 329.859 619.591C330.812 618.634 332.368 618.631 333.324 619.583Z" fill="#7C5E3D"/>
<path d="M339.724 616.53C341.786 618.583 342.305 620.031 343.307 622.483" stroke="#7C5E3D" stroke-width="0.63" stroke-miterlimit="10"/>
<path d="M337.466 618.67C338.422 619.622 339.978 619.619 340.931 618.663C341.883 617.706 341.88 616.15 340.923 615.198C339.967 614.245 338.411 614.248 337.459 615.205C336.506 616.161 336.509 617.717 337.466 618.67Z" fill="#7C5E3D"/>
<path d="M332.114 615.669C334.176 617.722 336.387 620.178 338.843 621.17" stroke="#7C5E3D" stroke-width="0.63" stroke-miterlimit="10"/>
<path d="M334.252 613.408C335.208 614.361 335.212 615.917 334.259 616.873C333.306 617.83 331.751 617.833 330.794 616.88C329.838 615.928 329.834 614.372 330.787 613.416C331.74 612.459 333.295 612.456 334.252 613.408Z" fill="#7C5E3D"/>
<path d="M346.558 631.506C344.526 630.669 342.106 629.84 340.322 628.528C339.175 627.682 336.008 625.122 335.701 623.701C334.938 620.174 339.356 619.564 341.487 620.924C344.071 622.581 346.899 625.806 348.171 628.582C348.782 629.911 348.788 633.093 346.558 631.506Z" fill="#CE8452"/>
<path d="M346.581 632.475C344.403 632.734 341.887 633.192 339.694 632.913C338.28 632.732 334.269 632.041 333.312 630.947C330.931 628.236 334.489 625.556 337.014 625.713C340.076 625.898 344.109 627.346 346.581 629.144C347.756 630.005 349.318 632.787 346.588 632.482L346.581 632.475Z" fill="#BA5E42"/>
<path d="M349.552 629.817C349.802 627.639 350.25 625.12 349.962 622.929C349.775 621.515 349.067 617.507 347.969 616.555C345.249 614.185 342.583 617.754 342.751 620.278C342.948 623.339 344.413 627.367 346.222 629.831C347.087 631.003 349.876 632.553 349.559 629.824L349.552 629.817Z" fill="#BA5E42"/>
<path d="M348.986 632.838C348.11 633.193 347.382 633.541 346.3 633.267C345.408 633.043 345.329 632.513 344.981 631.729C345.361 630.794 346.484 629.979 347.189 629.27C347.634 628.824 348.233 627.925 348.947 628.015C350.256 628.189 350.762 630.062 350.601 631.116C350.392 632.46 349.551 632.554 348.986 632.838Z" fill="#7C5E3D"/>
<path d="M348.701 632.004C350.083 633.38 351.494 635.251 353.228 636.159C354.984 637.075 356.987 637.912 358.995 637.908" stroke="#7C5E3E" stroke-width="0.63" stroke-miterlimit="10"/>
<path d="M321.721 572.21C328.998 579.485 336.473 586.421 342.797 594.596C349.646 603.449 354.03 613.728 356.796 624.499C359.427 634.739 360.903 644.466 359.299 654.836" stroke="#604736" stroke-width="1.46" stroke-linecap="round" stroke-linejoin="round"/>
</g>
<g opacity="0.2">
<path d="M10.6584 105.839C8.75841 103.789 7.99841 96.4188 9.58841 94.2188C10.6384 92.7688 14.0184 91.6188 15.8584 92.1188C20.8784 93.4888 19.5484 101.019 19.3884 104.599C19.5584 100.359 25.6184 99.7988 28.6384 99.6988C30.8884 99.6188 31.8584 99.9288 32.4984 102.359C32.9984 104.229 32.2084 106.619 30.9684 108.049C29.1884 110.119 26.1684 109.789 23.6684 109.969C25.9584 111.319 28.4884 113.609 29.5484 116.209C30.2184 117.839 29.9884 121.499 27.8384 122.829C26.4284 123.699 23.5984 122.479 22.3884 121.839C19.9984 120.579 18.2184 118.529 17.3884 116.059C16.2484 118.829 17.2584 122.469 14.2484 124.199C12.9284 124.959 11.8284 124.989 10.3884 124.569C6.35841 123.409 7.14841 117.419 8.33841 114.299C5.78841 115.989 3.41841 118.949 0.648406 116.099C-1.00159 114.429 -1.05159 112.819 -0.981594 110.519C-0.761594 103.469 5.63841 105.399 10.6584 105.839Z" fill="#D69F8B"/>
<path d="M16.2884 109.429C16.2084 108.459 15.2484 107.429 14.9784 106.429C14.7684 105.629 14.5984 104.139 15.0284 103.419C16.9584 102.589 16.5184 108.279 16.2784 109.429H16.2884Z" fill="#3A4E66"/>
<path d="M16.2684 109.239C17.0984 108.729 17.5684 107.399 18.3384 106.709C18.9484 106.159 20.1984 105.329 21.0384 105.379C22.6584 106.719 17.3984 108.929 16.2684 109.239Z" fill="#3A4E66"/>
<path d="M16.7184 109.089C15.7684 109.289 14.4984 108.669 13.4684 108.699C12.6384 108.729 11.1684 108.999 10.6084 109.619C10.3784 111.709 15.6884 109.649 16.7184 109.089Z" fill="#3A4E66"/>
<path d="M16.2284 108.989C16.9084 109.689 18.3084 109.869 19.1484 110.469C19.8184 110.949 20.8984 111.989 21.0184 112.819C20.0584 114.679 16.7784 110.019 16.2284 108.989Z" fill="#3A4E66"/>
<path d="M16.3584 109.129C16.0484 110.049 16.5284 111.379 16.3784 112.399C16.2584 113.219 15.8284 114.649 15.1384 115.139C13.0384 115.139 15.6884 110.089 16.3584 109.129Z" fill="#3A4E66"/>
</g>
<g opacity="0.2">
<path d="M99.6584 527.839C97.7584 525.789 96.9984 518.419 98.5884 516.219C99.6384 514.769 103.018 513.619 104.858 514.119C109.878 515.489 108.548 523.019 108.388 526.599C108.558 522.359 114.618 521.799 117.638 521.699C119.888 521.619 120.858 521.929 121.498 524.359C121.998 526.229 121.208 528.619 119.968 530.049C118.188 532.119 115.168 531.789 112.668 531.969C114.958 533.319 117.488 535.609 118.548 538.209C119.218 539.839 118.988 543.499 116.838 544.829C115.428 545.699 112.598 544.479 111.388 543.839C108.998 542.579 107.218 540.529 106.388 538.059C105.248 540.829 106.258 544.469 103.248 546.199C101.928 546.959 100.828 546.989 99.3884 546.569C95.3584 545.409 96.1484 539.419 97.3384 536.299C94.7884 537.989 92.4184 540.949 89.6484 538.099C87.9984 536.429 87.9484 534.819 88.0184 532.519C88.2384 525.469 94.6384 527.399 99.6584 527.839Z" fill="#D69F8B"/>
<path d="M105.288 531.429C105.208 530.459 104.248 529.429 103.978 528.429C103.768 527.629 103.598 526.139 104.028 525.419C105.958 524.589 105.518 530.279 105.278 531.429H105.288Z" fill="#3A4E66"/>
<path d="M105.268 531.239C106.098 530.729 106.568 529.399 107.338 528.709C107.948 528.159 109.198 527.329 110.038 527.379C111.658 528.719 106.398 530.929 105.268 531.239Z" fill="#3A4E66"/>
<path d="M105.718 531.089C104.768 531.289 103.498 530.669 102.468 530.699C101.638 530.729 100.168 530.999 99.6084 531.619C99.3784 533.709 104.688 531.649 105.718 531.089Z" fill="#3A4E66"/>
<path d="M105.228 530.989C105.908 531.689 107.308 531.869 108.148 532.469C108.818 532.949 109.898 533.989 110.018 534.819C109.058 536.679 105.778 532.019 105.228 530.989Z" fill="#3A4E66"/>
<path d="M105.358 531.129C105.048 532.049 105.528 533.379 105.378 534.399C105.258 535.219 104.828 536.649 104.138 537.139C102.038 537.139 104.688 532.089 105.358 531.129Z" fill="#3A4E66"/>
</g>
<g opacity="0.2">
<path d="M272.491 227.253C271.632 226.327 271.289 222.997 272.007 222.003C272.482 221.347 274.009 220.828 274.84 221.054C277.109 221.673 276.508 225.075 276.435 226.693C276.512 224.777 279.251 224.524 280.615 224.479C281.632 224.443 282.07 224.583 282.36 225.681C282.585 226.526 282.228 227.606 281.668 228.252C280.864 229.187 279.499 229.038 278.369 229.12C279.404 229.73 280.547 230.764 281.026 231.939C281.329 232.676 281.225 234.33 280.254 234.931C279.617 235.324 278.338 234.773 277.791 234.483C276.711 233.914 275.907 232.988 275.532 231.872C275.017 233.123 275.473 234.768 274.113 235.55C273.516 235.893 273.019 235.907 272.369 235.717C270.547 235.193 270.904 232.486 271.442 231.076C270.29 231.84 269.219 233.177 267.967 231.89C267.222 231.135 267.199 230.408 267.231 229.368C267.33 226.182 270.222 227.055 272.491 227.253Z" fill="#D69F8B"/>
<path d="M275.035 228.876C274.998 228.437 274.565 227.972 274.443 227.52C274.348 227.158 274.271 226.485 274.465 226.16C275.337 225.785 275.139 228.356 275.03 228.876H275.035Z" fill="#3A4E66"/>
<path d="M275.026 228.79C275.401 228.559 275.613 227.958 275.961 227.646C276.237 227.398 276.802 227.023 277.181 227.045C277.913 227.651 275.536 228.65 275.026 228.79Z" fill="#3A4E66"/>
<path d="M275.229 228.722C274.8 228.812 274.226 228.532 273.76 228.546C273.385 228.559 272.721 228.681 272.468 228.961C272.364 229.906 274.764 228.975 275.229 228.722Z" fill="#3A4E66"/>
<path d="M275.008 228.677C275.315 228.993 275.947 229.074 276.327 229.346C276.63 229.562 277.118 230.032 277.172 230.407C276.738 231.248 275.256 229.142 275.008 228.677Z" fill="#3A4E66"/>
<path d="M275.066 228.74C274.926 229.156 275.143 229.757 275.075 230.218C275.021 230.588 274.827 231.234 274.515 231.456C273.566 231.456 274.764 229.174 275.066 228.74Z" fill="#3A4E66"/>
</g>
<g opacity="0.2">
<path d="M51.2681 356.253C50.4096 355.327 50.0662 351.997 50.7846 351.003C51.2591 350.347 52.7864 349.828 53.6179 350.054C55.8863 350.673 55.2853 354.075 55.213 355.693C55.2898 353.777 58.0282 353.524 59.3929 353.479C60.4096 353.443 60.8479 353.583 61.1371 354.681C61.363 355.526 61.006 356.606 60.4457 357.252C59.6414 358.187 58.2767 358.038 57.147 358.12C58.1818 358.73 59.3251 359.764 59.8041 360.939C60.1068 361.676 60.0029 363.33 59.0314 363.931C58.3942 364.324 57.1154 363.773 56.5686 363.483C55.4887 362.914 54.6843 361.988 54.3093 360.872C53.7941 362.123 54.2505 363.768 52.8904 364.55C52.2939 364.893 51.7968 364.907 51.1461 364.717C49.3251 364.193 49.6821 361.486 50.2198 360.076C49.0675 360.84 47.9966 362.177 46.7449 360.89C45.9993 360.135 45.9767 359.408 46.0083 358.368C46.1077 355.182 48.9997 356.055 51.2681 356.253Z" fill="#D69F8B"/>
<path d="M53.8122 357.876C53.7761 357.437 53.3423 356.972 53.2203 356.52C53.1254 356.158 53.0486 355.485 53.2429 355.16C54.115 354.785 53.9162 357.356 53.8077 357.876H53.8122Z" fill="#3A4E66"/>
<path d="M53.8032 357.79C54.1783 357.559 54.3907 356.958 54.7386 356.646C55.0142 356.398 55.5791 356.023 55.9587 356.045C56.6907 356.651 54.3138 357.65 53.8032 357.79Z" fill="#3A4E66"/>
<path d="M54.0065 357.722C53.5773 357.812 53.0034 357.532 52.5379 357.546C52.1629 357.559 51.4986 357.681 51.2456 357.961C51.1417 358.906 53.5411 357.975 54.0065 357.722Z" fill="#3A4E66"/>
<path d="M53.7852 357.677C54.0924 357.993 54.7251 358.074 55.1046 358.346C55.4074 358.562 55.8954 359.032 55.9496 359.407C55.5158 360.248 54.0337 358.142 53.7852 357.677Z" fill="#3A4E66"/>
<path d="M53.8439 357.74C53.7038 358.156 53.9207 358.757 53.853 359.218C53.7987 359.588 53.6044 360.234 53.2926 360.456C52.3437 360.456 53.5412 358.174 53.8439 357.74Z" fill="#3A4E66"/>
</g>
<g opacity="0.2">
<path d="M338.386 326.135C336.856 324.485 336.246 318.545 337.526 316.785C338.376 315.615 341.096 314.695 342.576 315.095C346.616 316.205 345.546 322.265 345.416 325.145C345.556 321.735 350.426 321.285 352.866 321.195C354.676 321.135 355.456 321.375 355.976 323.335C356.376 324.845 355.736 326.765 354.746 327.915C353.316 329.585 350.876 329.315 348.866 329.465C350.716 330.555 352.746 332.395 353.596 334.495C354.136 335.805 353.956 338.755 352.216 339.825C351.086 340.525 348.806 339.545 347.826 339.025C345.896 338.015 344.466 336.365 343.806 334.375C342.886 336.605 343.696 339.535 341.276 340.925C340.216 341.535 339.336 341.555 338.166 341.225C334.926 340.295 335.556 335.465 336.516 332.965C334.456 334.325 332.556 336.705 330.326 334.415C328.996 333.055 328.956 331.755 329.016 329.905C329.196 324.225 334.346 325.785 338.386 326.135Z" fill="#97C1B2"/>
<path d="M342.906 329.025C342.846 328.245 342.066 327.415 341.856 326.615C341.686 325.975 341.546 324.775 341.896 324.195C343.446 323.535 343.096 328.105 342.906 329.035V329.025Z" fill="#3A4E66"/>
<path d="M342.896 328.875C343.566 328.465 343.946 327.395 344.566 326.835C345.056 326.385 346.066 325.725 346.736 325.765C348.036 326.845 343.806 328.625 342.896 328.875Z" fill="#3A4E66"/>
<path d="M343.266 328.745C342.496 328.905 341.476 328.405 340.656 328.435C339.986 328.455 338.806 328.675 338.346 329.175C338.156 330.855 342.436 329.195 343.266 328.745Z" fill="#3A4E66"/>
<path d="M342.866 328.675C343.416 329.235 344.536 329.385 345.216 329.865C345.756 330.255 346.626 331.085 346.726 331.765C345.956 333.265 343.306 329.515 342.866 328.675Z" fill="#3A4E66"/>
<path d="M342.966 328.785C342.716 329.525 343.106 330.595 342.976 331.415C342.876 332.075 342.536 333.225 341.976 333.625C340.286 333.625 342.416 329.555 342.956 328.785H342.966Z" fill="#3A4E66"/>
</g>
<g opacity="0.2">
<path d="M194.497 141.189C192.273 138.79 191.386 130.154 193.247 127.595C194.482 125.894 198.437 124.557 200.589 125.138C206.463 126.752 204.907 135.563 204.718 139.75C204.921 134.792 212.002 134.138 215.549 134.007C218.181 133.92 219.315 134.269 220.071 137.118C220.653 139.314 219.722 142.105 218.283 143.777C216.204 146.205 212.656 145.813 209.734 146.031C212.423 147.615 215.375 150.291 216.611 153.344C217.396 155.248 217.134 159.537 214.604 161.093C212.961 162.111 209.647 160.686 208.222 159.93C205.416 158.461 203.337 156.062 202.377 153.169C201.039 156.411 202.217 160.671 198.699 162.692C197.158 163.579 195.878 163.608 194.177 163.128C189.466 161.776 190.382 154.754 191.778 151.119C188.783 153.097 186.021 156.557 182.779 153.227C180.845 151.25 180.787 149.36 180.874 146.67C181.136 138.412 188.623 140.68 194.497 141.189Z" fill="#97C1B2"/>
<path d="M201.068 145.391C200.981 144.257 199.847 143.05 199.542 141.887C199.295 140.956 199.091 139.212 199.6 138.369C201.853 137.409 201.345 144.053 201.068 145.405V145.391Z" fill="#3A4E66"/>
<path d="M201.054 145.173C202.028 144.577 202.581 143.021 203.482 142.207C204.194 141.553 205.663 140.593 206.637 140.651C208.527 142.221 202.377 144.809 201.054 145.173Z" fill="#3A4E66"/>
<path d="M201.592 144.984C200.472 145.216 198.989 144.49 197.797 144.533C196.823 144.562 195.108 144.882 194.439 145.609C194.162 148.052 200.385 145.638 201.592 144.984Z" fill="#3A4E66"/>
<path d="M201.01 144.882C201.81 145.696 203.438 145.914 204.427 146.612C205.212 147.179 206.477 148.386 206.622 149.375C205.503 151.555 201.65 146.103 201.01 144.882Z" fill="#3A4E66"/>
<path d="M201.156 145.042C200.792 146.118 201.359 147.674 201.17 148.866C201.025 149.825 200.531 151.497 199.716 152.079C197.259 152.079 200.356 146.161 201.141 145.042H201.156Z" fill="#3A4E66"/>
</g>
<g opacity="0.2">
<path d="M76.9417 166.202C75.0746 166.01 71.4239 162.621 71.2581 160.813C71.1473 159.612 72.3465 157.539 73.4945 156.975C76.6383 155.448 79.3017 159.836 80.8048 161.714C79.0163 159.499 81.8222 156.537 83.3025 155.138C84.4043 154.104 85.0254 153.826 86.4299 154.769C87.5115 155.495 88.1666 157.051 88.1786 158.317C88.2009 160.151 86.5225 161.324 85.3448 162.524C87.1044 162.19 89.3896 162.226 91.078 163.075C92.1373 163.6 93.6476 165.548 93.1454 167.176C92.822 168.237 90.8533 168.877 89.9527 169.09C88.1869 169.519 86.3825 169.271 84.8738 168.387C85.5239 170.291 87.6439 171.682 86.8913 173.885C86.5624 174.851 86.0216 175.348 85.1065 175.785C82.5633 176.984 80.3008 173.609 79.5272 171.514C78.9839 173.5 79.1021 176.037 76.4439 175.829C74.8618 175.708 74.1214 174.915 73.1411 173.722C70.1288 170.061 74.2161 168.206 76.9417 166.202Z" fill="#97C1B2"/>
<path d="M81.3658 165.527C80.899 165.071 79.9533 164.98 79.3815 164.594C78.9228 164.286 78.1747 163.611 78.0751 163.055C78.6837 161.788 80.9788 164.846 81.3713 165.534L81.3658 165.527Z" fill="#3A4E66"/>
<path d="M81.2771 165.439C81.4715 164.813 81.1211 163.933 81.2017 163.241C81.2613 162.689 81.5314 161.72 81.9735 161.376C83.3828 161.338 81.7101 164.781 81.2771 165.439Z" fill="#3A4E66"/>
<path d="M81.4375 165.154C81.0428 165.678 80.1281 165.925 79.6305 166.395C79.2214 166.777 78.6026 167.564 78.5893 168.13C79.3946 169.288 81.1647 165.893 81.4375 165.154Z" fill="#3A4E66"/>
<path d="M81.1482 165.33C81.8012 165.379 82.5859 164.856 83.2764 164.783C83.8295 164.731 84.8317 164.772 85.2685 165.144C85.6111 166.508 81.8862 165.615 81.1482 165.33Z" fill="#3A4E66"/>
<path d="M81.2714 165.344C81.5219 165.945 82.3551 166.402 82.7248 166.987C83.0252 167.456 83.4448 168.364 83.3137 168.923C82.2541 169.853 81.3503 166.129 81.2652 165.349L81.2714 165.344Z" fill="#3A4E66"/>
</g>
<g opacity="0.2">
<path d="M247.012 497.726C245.145 497.534 241.494 494.145 241.328 492.337C241.217 491.136 242.416 489.062 243.564 488.499C246.708 486.972 249.372 491.36 250.875 493.238C249.086 491.023 251.892 488.061 253.372 486.662C254.474 485.628 255.095 485.35 256.5 486.293C257.581 487.019 258.237 488.575 258.249 489.841C258.271 491.675 256.592 492.848 255.415 494.048C257.174 493.713 259.46 493.75 261.148 494.599C262.207 495.123 263.718 497.072 263.215 498.7C262.892 499.761 260.923 500.401 260.023 500.614C258.257 501.043 256.452 500.795 254.944 499.911C255.594 501.815 257.714 503.206 256.961 505.409C256.632 506.375 256.092 506.872 255.176 507.309C252.633 508.508 250.371 505.133 249.597 503.038C249.054 505.024 249.172 507.561 246.514 507.352C244.932 507.232 244.191 506.438 243.211 505.246C240.199 501.585 244.286 499.73 247.012 497.726Z" fill="#97C1B2"/>
<path d="M251.436 497.051C250.969 496.595 250.023 496.504 249.451 496.118C248.993 495.81 248.245 495.135 248.145 494.579C248.754 493.312 251.049 496.37 251.441 497.058L251.436 497.051Z" fill="#3A4E66"/>
<path d="M251.347 496.963C251.541 496.337 251.191 495.457 251.272 494.765C251.331 494.213 251.601 493.244 252.043 492.9C253.453 492.862 251.78 496.305 251.347 496.963Z" fill="#3A4E66"/>
<path d="M251.507 496.678C251.113 497.202 250.198 497.449 249.7 497.919C249.291 498.301 248.673 499.088 248.659 499.654C249.465 500.812 251.235 497.416 251.507 496.678Z" fill="#3A4E66"/>
<path d="M251.218 496.854C251.871 496.902 252.656 496.38 253.346 496.307C253.899 496.254 254.902 496.296 255.338 496.667C255.681 498.032 251.956 497.138 251.218 496.854Z" fill="#3A4E66"/>
<path d="M251.341 496.868C251.592 497.469 252.425 497.926 252.795 498.511C253.095 498.98 253.515 499.888 253.384 500.447C252.324 501.377 251.42 497.653 251.335 496.873L251.341 496.868Z" fill="#3A4E66"/>
</g>
<g opacity="0.2">
<path d="M43.5209 410.425C34.7722 416.487 27.2211 421.428 21.3696 430.777C14.8754 441.152 11.4504 454.324 8.67803 466.174C5.93814 477.898 7.28057 497.895 -1.84656 507.24" stroke="#365360" stroke-width="1.27" stroke-linecap="round" stroke-linejoin="round"/>
<path d="M22.1522 429.374C23.2276 427.039 24.0514 424.612 25.3301 422.334C26.9318 419.494 30.0261 416.873 32.4803 414.564C34.1308 413.02 35.6491 411.408 37.6988 410.408C39.7845 409.388 41.99 409.447 44.1697 408.791C47.0282 407.938 49.2162 405.974 51.7905 404.729C47.5949 412.584 42.9172 420.465 34.4439 424.421C30.4983 426.263 25.8116 427.416 22.1595 429.367L22.1522 429.374Z" fill="#DBB345"/>
<path d="M12.2248 451.258C13.3002 448.924 14.1241 446.496 15.4028 444.218C17.0045 441.378 20.0987 438.758 22.553 436.448C24.2034 434.904 25.7217 433.292 27.7714 432.292C29.8572 431.272 32.0626 431.332 34.2424 430.676C37.1008 429.823 39.2888 427.858 41.8632 426.614C37.6675 434.469 32.9899 442.35 24.5165 446.305C20.5709 448.148 15.8842 449.3 12.2321 451.251L12.2248 451.258Z" fill="#DBB345"/>
<path d="M7.97761 470.842C9.05303 468.507 9.87687 466.08 11.1556 463.802C12.7573 460.962 15.8516 458.341 18.3058 456.032C19.9562 454.488 21.4745 452.876 23.5242 451.876C25.61 450.856 27.8154 450.915 29.9952 450.259C32.8536 449.406 35.0416 447.442 37.616 446.197C33.4203 454.052 28.7427 461.933 20.2693 465.889C16.3237 467.731 11.637 468.884 7.98492 470.835L7.97761 470.842Z" fill="#B2BF66"/>
<path d="M4.2121 494.014C5.28752 491.68 6.11136 489.252 7.39008 486.974C8.99177 484.134 12.086 481.513 14.5403 479.204C16.1907 477.66 17.709 476.048 19.7587 475.048C21.8445 474.028 24.0499 474.087 26.2297 473.431C29.0881 472.579 31.2761 470.614 33.8505 469.37C29.6548 477.225 24.9772 485.106 16.5038 489.061C12.5582 490.904 7.8715 492.056 4.21941 494.007L4.2121 494.014Z" fill="#4C726D"/>
<path d="M15.7999 442.916C17.0216 440.65 18.4716 438.541 19.5206 436.149C20.8371 433.165 21.0713 429.111 21.4447 425.763C21.6966 423.515 22.0733 421.341 21.6316 419.098C21.1909 416.826 19.8268 415.09 19.0489 412.955C18.0174 410.155 18.2709 407.22 17.7205 404.421C13.9632 412.496 10.4549 420.954 12.3782 430.109C13.2691 434.37 15.1656 438.812 15.7931 442.909L15.7999 442.916Z" fill="#B2BF66"/>
<path d="M9.02883 465.202C9.61474 462.696 10.4454 460.276 10.8358 457.692C11.3112 454.468 10.4743 450.499 9.94855 447.171C9.59853 444.937 9.38161 442.744 8.36751 440.694C7.34022 438.615 5.56567 437.303 4.24768 435.455C2.51038 433.027 1.98417 430.137 0.711182 427.576C-0.784371 436.356 -1.92233 445.445 2.34915 453.773C4.33566 457.638 7.3363 461.432 9.02835 465.217L9.02883 465.202Z" fill="#4C726D"/>
<path d="M6.65318 485.733C6.6683 483.158 6.94419 480.613 6.74094 478.01C6.49553 474.761 4.79288 471.082 3.54606 467.949C2.71075 465.841 2.01632 463.752 0.568292 461.984C-0.892928 460.188 -2.91506 459.3 -4.61233 457.793C-6.83845 455.808 -8.00047 453.102 -9.80185 450.899C-9.31319 459.794 -8.40709 468.901 -2.39896 476.071C0.39062 479.404 4.15948 482.438 6.65271 485.747L6.65318 485.733Z" fill="#365360"/>
</g>
<g opacity="0.2">
<path d="M302.711 150.096C310.944 151.91 317.958 153.271 325.07 158.371C332.953 164.032 339.422 172.653 345.014 180.513C350.543 188.285 355.567 203.353 365.068 207.457" stroke="#6B3826" stroke-linecap="round" stroke-linejoin="round"/>
<path d="M324.059 157.569C322.566 156.178 321.234 154.645 319.613 153.365C317.59 151.762 314.533 150.771 312.031 149.809C310.358 149.173 308.762 148.448 306.956 148.329C305.119 148.208 303.526 148.908 301.724 149.09C299.37 149.318 297.174 148.537 294.913 148.405C300.351 152.9 306.144 157.275 313.552 157.63C316.998 157.795 320.784 157.234 324.049 157.566L324.059 157.569Z" fill="#D88827"/>
<path d="M337.92 170.637C336.427 169.246 335.095 167.713 333.474 166.433C331.451 164.83 328.394 163.839 325.892 162.877C324.219 162.241 322.623 161.517 320.817 161.397C318.98 161.277 317.388 161.976 315.585 162.158C313.231 162.386 311.035 161.605 308.774 161.473C314.212 165.968 320.006 170.343 327.413 170.698C330.859 170.863 334.645 170.302 337.911 170.634L337.92 170.637Z" fill="#D88827"/>
<path d="M346.91 183.715C345.417 182.324 344.084 180.791 342.463 179.511C340.441 177.908 337.384 176.917 334.882 175.955C333.209 175.319 331.612 174.594 329.807 174.475C327.97 174.354 326.377 175.054 324.575 175.236C322.22 175.464 320.025 174.683 317.764 174.551C323.201 179.046 328.995 183.421 336.402 183.776C339.849 183.941 343.635 183.38 346.9 183.712L346.91 183.715Z" fill="#AF7745"/>
<path d="M356.635 199.587C355.141 198.195 353.809 196.662 352.188 195.382C350.166 193.779 347.109 192.788 344.607 191.826C342.934 191.19 341.337 190.466 339.532 190.346C337.695 190.226 336.102 190.926 334.3 191.107C331.945 191.335 329.75 190.554 327.489 190.422C332.926 194.918 338.72 199.292 346.127 199.647C349.574 199.812 353.36 199.251 356.625 199.583L356.635 199.587Z" fill="#7A4B38"/>
<path d="M332.787 165.594C331.214 164.301 329.51 163.183 328.022 161.75C326.165 159.964 324.776 157.061 323.488 154.71C322.629 153.142 321.697 151.654 321.343 149.883C320.981 148.076 321.456 146.406 321.395 144.596C321.31 142.231 320.247 140.159 319.804 137.947C324.988 142.742 330.092 147.891 331.437 155.186C332.062 158.579 332.011 162.4 332.774 165.6L332.787 165.594Z" fill="#AF7745"/>
<path d="M344.444 179.9C343.266 178.244 341.925 176.707 340.865 174.934C339.546 172.721 338.975 169.551 338.348 166.949C337.93 165.207 337.433 163.531 337.562 161.729C337.692 159.895 338.589 158.407 339.01 156.652C339.556 154.345 339.071 152.075 339.234 149.816C342.97 155.804 346.537 162.124 345.901 169.51C345.61 172.951 344.546 176.622 344.444 179.9Z" fill="#7A4B38"/>
<path d="M352.353 194.247C351.57 192.366 350.603 190.576 349.969 188.612C349.178 186.161 349.322 182.942 349.287 180.276C349.273 178.484 349.155 176.738 349.673 175.009C350.202 173.253 351.419 171.993 352.214 170.38C353.258 168.252 353.289 165.921 353.948 163.765C356.26 170.431 358.336 177.382 356.076 184.451C355.032 187.734 353.18 191.085 352.345 194.266L352.353 194.247Z" fill="#6B3826"/>
</g>
<g opacity="0.2">
<path d="M29.6509 635.217C32.2019 637.447 37.1648 638.254 38.9627 637.75C41.2246 637.119 42.0783 634.877 43.2468 632.916C44.5 630.796 46.4345 630.546 48.1498 628.899C49.0351 628.045 49.8783 626.738 49.5432 625.494C48.8231 622.868 46.3222 624.097 44.7057 624.856C46.3524 621.87 44.7787 617.633 42.0422 621.603C42.2206 620.225 42.1327 617.369 40.4934 616.745C39.3548 616.309 37.4372 617.123 37.0233 618.262C36.8392 614.267 33.3443 613.086 31.5993 616.768C30.7141 616.047 29.865 614.961 28.7841 614.544C26.2775 615.997 27.9896 617.271 28.5898 619.165C29.1694 620.992 27.6287 622.46 26.8881 624.127C24.7898 628.856 25.4248 633.408 29.655 635.23L29.6509 635.217Z" fill="#DD7A86"/>
<path d="M41.5516 624.163C42.9001 622.162 44.8019 620.569 46.6355 619.018C47.2757 618.476 47.9477 617.916 48.5749 617.355L48.2399 616.984C47.6127 617.545 46.9543 618.101 46.3141 618.643C44.4487 620.211 42.5193 621.834 41.129 623.892L41.5469 624.171L41.5516 624.163Z" fill="#DD7A86"/>
<path d="M48.5735 617.762C47.8715 617.388 47.6054 616.516 47.9791 615.814C48.3529 615.112 49.2249 614.846 49.9269 615.22C50.6289 615.593 50.895 616.465 50.5213 617.167C50.1475 617.869 49.2755 618.135 48.5735 617.762Z" fill="#DD7A86"/>
<path d="M40.0332 620.737L40.5321 620.822C40.9327 618.452 42.0058 616.202 43.0366 614.032C43.396 613.272 43.7784 612.49 44.1114 611.716L43.6512 611.516C43.3094 612.286 42.9406 613.064 42.5811 613.824C41.5315 616.029 40.4491 618.296 40.0332 620.737Z" fill="#DD7A86"/>
<path d="M42.9376 610.558C42.8859 611.358 43.4946 612.044 44.2852 612.091C45.0846 612.143 45.7713 611.534 45.8183 610.744C45.8701 609.944 45.2614 609.258 44.4708 609.211C43.6802 609.163 42.9847 609.768 42.9376 610.558Z" fill="#DD7A86"/>
<path d="M35.4659 621.251L35.9648 621.336C36.3654 618.966 37.4385 616.716 38.4693 614.546C38.8288 613.786 39.2111 613.004 39.5441 612.229L39.084 612.03C38.7422 612.799 38.3733 613.577 38.0139 614.338C36.9643 616.543 35.8818 618.81 35.4659 621.251Z" fill="#DD7A86"/>
<path d="M38.3704 611.072C38.3186 611.872 38.9273 612.558 39.7179 612.605C40.5174 612.657 41.204 612.048 41.2511 611.258C41.3029 610.458 40.6941 609.772 39.9035 609.724C39.1041 609.673 38.4174 610.281 38.3704 611.072Z" fill="#DD7A86"/>
<path d="M33.6476 618.538L34.1488 618.533C34.1077 616.121 34.7506 613.722 35.3737 611.402C35.5913 610.589 35.8142 609.745 36.0095 608.931L35.5247 608.82C35.3383 609.639 35.1112 610.47 34.8936 611.283C34.2653 613.633 33.6123 616.072 33.6518 618.552L33.6476 618.538Z" fill="#DD7A86"/>
<path d="M34.6377 607.997C34.7382 608.787 35.4575 609.351 36.2427 609.259C37.0279 609.168 37.5968 608.44 37.5051 607.654C37.4045 606.864 36.6853 606.3 35.9 606.392C35.1101 606.493 34.5459 607.212 34.6377 607.997Z" fill="#DD7A86"/>
<path d="M-1.14182 720.205C-1.00941 720.276 -0.844692 720.307 -0.67412 720.284C-0.265344 720.219 0.0261529 719.842 -0.0394367 719.433C0.019364 716.96 15.6385 670.217 16.6977 667.462C18.337 663.191 19.8577 659.356 21.7739 655.629C23.9631 651.368 26.2694 647.079 28.5006 642.931C29.5955 640.874 30.7082 638.827 31.8032 636.77C32.0005 636.4 31.8555 635.948 31.4936 635.756C31.1317 635.563 30.6718 635.703 30.4791 636.065C29.3841 638.122 28.2939 640.17 27.1812 642.217C24.9454 646.374 22.6344 650.672 20.4404 654.942C18.4867 658.739 16.956 662.615 15.2979 666.92C15.1206 667.381 -1.84442 717.418 -1.52105 719.641C-1.48264 719.888 -1.33132 720.093 -1.1283 720.201L-1.14182 720.205Z" fill="#365360"/>
<path d="M19.299 657.235C22.1715 652.499 22.6602 645.112 21.4753 639.848C20.5505 635.776 19.221 630.74 16.1376 627.637C14.5806 630.093 13.1955 632.823 11.9427 635.452C10.6335 638.188 11.2162 641.115 12.0871 643.969C13.3583 648.135 16.316 655.454 19.3078 657.239L19.299 657.235Z" fill="#365360"/>
<path d="M19.1092 655.74L19.3078 655.495C19.6082 655.122 19.7284 654.62 19.7479 654.03C20.4842 651.306 20.3314 648.189 20.197 645.398C20.1618 644.677 20.126 643.978 20.112 643.302C19.9645 637.877 18.3563 633.067 16.5793 628.212L16.1053 628.379C16.8806 630.774 17.0981 633.11 17.3211 635.585C17.3839 636.276 17.4556 636.971 17.5314 637.68C17.8068 640.206 17.7397 642.651 17.6598 645.248L17.6335 646.276C17.6106 647.171 17.9892 648.46 18.3926 649.83C18.8077 651.263 19.2689 652.823 19.2573 653.972C19.1834 654.239 19.0959 654.51 19.0044 654.767C17.564 652.663 16.9325 649.721 16.3776 647.103C16.2059 646.298 16.0465 645.533 15.8636 644.813C15.7097 644.187 15.5375 643.574 15.3517 642.966C14.7974 641.028 14.2719 639.185 14.3334 637.133C14.4154 634.276 15.0872 630.227 16.4018 627.63L15.9605 627.395C14.5096 630.248 13.9108 634.416 13.8328 637.116C13.7737 639.248 14.3275 641.208 14.8695 643.105C15.0464 643.709 15.2186 644.322 15.3773 644.939C15.556 645.646 15.7154 646.411 15.8918 647.207C16.5033 650.059 17.1945 653.293 18.932 655.498L19.1268 655.749L19.1092 655.74ZM19.0956 654.872C19.0956 654.872 19.0909 654.881 19.0862 654.89C19.0862 654.89 19.0686 654.88 19.0733 654.871L19.0909 654.881L19.0956 654.872ZM17.4816 632.284C18.6395 635.812 19.5139 639.404 19.6196 643.312C19.6336 643.988 19.6736 644.7 19.7088 645.421C19.8169 647.665 19.9416 650.134 19.5838 652.402C19.4091 651.538 19.1378 650.601 18.8707 649.677C18.4797 648.347 18.1182 647.09 18.1388 646.285L18.1651 645.257C18.238 642.758 18.3221 640.174 18.0384 637.621C17.9579 636.921 17.8951 636.231 17.8322 635.54C17.7262 634.442 17.633 633.361 17.4858 632.297L17.4816 632.284Z" fill="#54747F"/>
<path d="M20.3053 657.77C22.6305 652.743 28.486 648.214 33.5152 646.258C37.41 644.752 42.3299 643.043 46.6258 643.869C45.4572 646.532 43.9662 649.205 42.4839 651.713C40.9452 654.326 38.1913 655.477 35.3372 656.348C31.1711 657.619 23.4481 659.251 20.2965 657.766L20.3053 657.77Z" fill="#365360"/>
<path d="M21.6425 657.089L21.9596 657.11C24.7727 657.317 27.8283 656.088 30.5357 655.004C31.2861 654.701 32.0182 654.411 32.7045 654.164C33.3049 653.952 33.9095 653.752 34.5094 653.562C36.386 652.952 38.3167 652.326 40.0576 651.078C42.2541 649.506 45.3773 646.682 46.9294 643.895L46.4881 643.66C45.0723 646.191 42.0878 649.009 39.7637 650.672C38.087 651.864 36.2733 652.462 34.3561 653.084C33.7515 653.283 33.1381 653.478 32.5377 653.69C31.8379 653.941 31.1146 654.236 30.3507 654.543C27.869 655.544 25.0757 656.662 22.5263 656.642C22.6885 656.422 22.8642 656.199 23.0441 655.988C23.9865 655.346 25.5426 654.849 26.9635 654.393C28.3255 653.963 29.6064 653.557 30.3355 653.039L31.1738 652.443C33.2839 650.927 35.2664 649.501 37.5244 648.324C38.1501 648 38.7627 647.658 39.3796 647.33C41.5664 646.137 43.6261 645.014 46.0462 644.319L45.92 643.833C40.9003 645.069 36.0118 646.42 31.4281 649.327C30.8595 649.693 30.2598 650.053 29.6418 650.427C27.2517 651.873 24.5752 653.496 22.7267 655.627C22.2529 655.964 21.9073 656.357 21.757 656.81L21.6643 657.112L21.6425 657.089ZM22.3969 656.629C22.3969 656.629 22.3792 656.62 22.3745 656.629C22.3745 656.629 22.3792 656.62 22.3839 656.611L22.4016 656.621L22.3969 656.629ZM42.0205 645.348C41.0555 645.82 40.103 646.333 39.1363 646.871C38.5283 647.205 37.9203 647.538 37.2946 647.862C35.0137 649.061 32.9131 650.559 30.8894 652.02L30.051 652.616C29.3902 653.091 28.1411 653.479 26.8284 653.902C25.9128 654.196 24.9836 654.495 24.1697 654.832C25.8603 653.273 27.9688 651.994 29.8909 650.831C30.5089 650.458 31.1133 650.088 31.6907 649.727C34.9921 647.633 38.4606 646.353 42.034 645.344L42.0205 645.348Z" fill="#54747F"/>
<path d="M26.1742 679.644C26.9473 681.597 29.4498 683.45 30.5847 683.681C32.0132 683.977 33.1213 682.98 34.3125 682.233C35.6084 681.416 36.7475 681.83 38.1495 681.409C38.8753 681.195 39.7108 680.711 39.8785 679.928C40.2249 678.277 38.499 678.242 37.3996 678.2C39.1564 677.028 39.4873 674.236 36.8566 675.645C37.349 674.933 38.1055 673.342 37.3837 672.527C36.8792 671.964 35.5932 671.869 35.0389 672.378C36.072 670.118 34.4855 668.481 32.469 670.013C32.1903 669.366 32.0285 668.521 31.5546 667.985C29.7629 668.074 30.3408 669.265 30.1352 670.481C29.9307 671.652 28.6686 672.023 27.7915 672.734C25.293 674.746 24.3473 677.437 26.1653 679.64L26.1742 679.644Z" fill="#DD7A86"/>
<path d="M35.8751 676.936C37.1863 676.218 38.6849 675.871 40.1382 675.546C40.6423 675.429 41.1686 675.313 41.6821 675.178L41.6048 674.877C41.1049 675.007 40.5785 675.123 40.0745 675.24C38.6029 675.578 37.0732 675.919 35.7255 676.663L35.8751 676.936Z" fill="#DD7A86"/>
<path d="M41.7843 674.157C41.3745 674.437 41.2796 674.998 41.5599 675.408C41.8402 675.818 42.4014 675.913 42.8112 675.632C43.221 675.352 43.3159 674.791 43.0356 674.381C42.7553 673.971 42.1941 673.876 41.7843 674.157Z" fill="#DD7A86"/>
<path d="M36.2566 674.793C37.1552 673.595 38.378 672.66 39.5685 671.765C39.9836 671.453 40.4081 671.124 40.8237 670.79L40.6241 670.548C40.222 670.878 39.7887 671.202 39.3825 671.518C38.1826 672.431 36.9327 673.375 36.0153 674.608L36.2655 674.798L36.2566 674.793Z" fill="#DD7A86"/>
<path d="M40.4995 669.825C40.2516 670.248 40.3896 670.797 40.808 671.054C41.2311 671.302 41.7804 671.164 42.0372 670.745C42.2851 670.322 42.1471 669.773 41.7287 669.516C41.3055 669.268 40.7562 669.406 40.4995 669.825Z" fill="#DD7A86"/>
<path d="M33.5982 673.786C34.4967 672.588 35.7149 671.662 36.9101 670.757C37.3252 670.446 37.7496 670.117 38.1653 669.783L37.9657 669.54C37.5636 669.87 37.1303 670.195 36.724 670.511C35.5241 671.424 34.2742 672.367 33.3569 673.601L33.607 673.791L33.5982 673.786Z" fill="#DD7A86"/>
<path d="M37.841 668.817C37.5931 669.24 37.7312 669.79 38.1496 670.046C38.5727 670.294 39.122 670.156 39.3788 669.738C39.6267 669.315 39.4886 668.765 39.0702 668.509C38.6471 668.261 38.0978 668.399 37.841 668.817Z" fill="#DD7A86"/>
<path d="M33.1178 671.582L33.3914 671.727C34.0522 670.38 35.0878 669.243 36.0959 668.137C36.4503 667.748 36.8094 667.35 37.1462 666.952L36.9143 666.749C36.5775 667.147 36.2184 667.545 35.8687 667.926C34.8559 669.04 33.7974 670.199 33.1178 671.582Z" fill="#DD7A86"/>
<path d="M36.6544 666.067C36.4859 666.532 36.7233 667.044 37.184 667.221C37.6494 667.39 38.161 667.152 38.3383 666.691C38.5068 666.226 38.2694 665.714 37.8087 665.537C37.3433 665.369 36.8317 665.606 36.6544 666.067Z" fill="#DD7A86"/>
<path d="M6.61474 696.636C6.61474 696.636 6.65887 696.659 6.67652 696.668C6.91599 696.751 7.18766 696.623 7.26984 696.384C7.51168 695.674 8.37529 694.967 9.14249 694.356C9.40293 694.144 9.65396 693.949 9.87382 693.748C11.9889 691.861 13.9154 690.179 16.0343 688.668C18.4495 686.94 20.9447 685.232 23.3535 683.58C24.5465 682.766 25.7306 681.946 26.9147 681.126C27.1287 680.98 27.1809 680.69 27.0342 680.476C26.8876 680.262 26.5982 680.21 26.3842 680.357C25.2 681.176 24.0071 681.991 22.823 682.811C20.4095 684.471 17.9142 686.179 15.4855 687.911C13.3301 689.448 11.3808 691.152 9.24745 693.052C9.03229 693.244 8.79478 693.435 8.55257 693.634C7.69366 694.332 6.7207 695.117 6.38728 696.084C6.3145 696.306 6.41585 696.541 6.61004 696.644L6.61474 696.636Z" fill="#365360"/>
<path d="M14.2179 688.845C17.1449 687.05 19.5179 683.124 20.3526 679.876C20.9984 677.365 21.7009 674.215 20.8814 671.626C19.3326 672.535 17.7875 673.65 16.346 674.74C14.8497 675.87 14.3387 677.659 14.0059 679.476C13.5307 682.135 13.0795 687.004 14.2179 688.845Z" fill="#365360"/>
<path d="M14.5402 687.963L14.7213 687.878C14.9883 687.76 15.2093 687.515 15.3784 687.197C16.5522 685.907 17.358 684.138 18.0827 682.564C18.2677 682.153 18.4522 681.764 18.6319 681.384C20.092 678.343 20.5739 675.247 20.9687 672.058L20.661 672.019C20.4068 673.56 19.8625 674.902 19.2888 676.341C19.1309 676.744 18.9641 677.143 18.8103 677.559C18.2537 679.03 17.5129 680.358 16.7298 681.765L16.429 682.33C16.1529 682.806 15.9976 683.629 15.8277 684.502C15.6524 685.405 15.4614 686.403 15.1277 687.029C15.0125 687.161 14.8932 687.278 14.7603 687.4C14.5633 685.834 15.0479 684.03 15.4915 682.431C15.6293 681.938 15.7531 681.471 15.854 681.027C15.9443 680.644 16.0169 680.252 16.0984 679.865C16.3446 678.637 16.5755 677.48 17.1947 676.359C18.053 674.811 19.5727 672.765 21.0314 671.706L20.85 671.451C19.2455 672.613 17.733 674.731 16.9258 676.205C16.2878 677.36 16.0369 678.598 15.8049 679.799C15.7234 680.187 15.6554 680.57 15.5651 680.952C15.4642 681.397 15.3405 681.863 15.2073 682.348C14.7333 684.089 14.1994 686.071 14.5224 687.783L14.5578 687.972L14.5402 687.963ZM14.7763 687.477C14.7763 687.477 14.7763 687.477 14.7722 687.463L14.781 687.468L14.7763 687.477ZM20.3005 674.569C19.9292 676.841 19.3979 679.073 18.3488 681.256C18.1691 681.636 17.98 682.034 17.795 682.445C17.2212 683.714 16.5816 685.107 15.7425 686.258C15.8944 685.738 16.0081 685.142 16.1171 684.554C16.2818 683.713 16.4365 682.911 16.6803 682.475L16.9811 681.91C17.7448 680.56 18.5144 679.158 19.0939 677.665C19.2518 677.262 19.4098 676.859 19.5677 676.456C19.8255 675.822 20.0786 675.198 20.3005 674.569Z" fill="#54747F"/>
<path d="M14.6236 689.423C17.335 687.31 21.8479 686.472 25.1717 686.826C27.746 687.097 30.9464 687.555 33.0776 689.233C31.6796 690.37 30.0915 691.416 28.5681 692.384C26.9812 693.386 25.1328 693.24 23.3161 692.907C20.6622 692.423 15.9354 691.13 14.6283 689.414L14.6236 689.423Z" fill="#365360"/>
<path d="M15.9991 689.691C17.4555 690.467 19.3568 690.64 21.0481 690.805C21.5435 690.853 22.03 690.897 22.4847 690.958C22.8771 691.008 23.2601 691.076 23.6478 691.135C24.855 691.336 26.0981 691.533 27.4091 691.348C29.066 691.108 31.5885 690.435 33.2359 689.34L33.0681 689.081C31.5617 690.08 29.1234 690.788 27.3677 691.042C26.1014 691.229 24.9342 691.038 23.7046 690.837C23.3169 690.778 22.9251 690.705 22.5327 690.655C22.078 690.594 21.5915 690.55 21.0873 690.497C19.436 690.343 17.5794 690.17 16.176 689.423C16.33 689.346 16.4929 689.274 16.6511 689.211C17.3557 689.122 18.3535 689.291 19.2666 689.448C20.1396 689.596 20.9591 689.738 21.5114 689.658L22.1402 689.562C23.73 689.321 25.2387 689.104 26.8093 689.091C27.2434 689.084 27.6775 689.077 28.1116 689.071C29.6516 689.029 31.1062 689 32.6418 689.307L32.7121 689.005C29.5951 688.263 26.5205 687.612 23.1666 687.911C22.7496 687.949 22.3149 687.978 21.8714 688.003C20.1415 688.124 18.2057 688.249 16.5874 688.905C16.2327 688.954 15.9298 689.076 15.7188 689.281L15.5765 689.421L15.7531 689.515C15.8408 689.584 15.929 689.631 16.0261 689.683L15.9991 689.691ZM16.0877 689.376L16.0965 689.38C16.0965 689.38 16.0877 689.376 16.0789 689.371L16.0877 689.376ZM30.1108 688.741C29.4402 688.724 28.7731 688.743 28.0837 688.761C27.6584 688.773 27.2243 688.779 26.7902 688.786C25.1884 688.794 23.6121 689.031 22.0764 689.256L21.4477 689.352C20.9448 689.424 20.1476 689.283 19.3011 689.149C18.7086 689.049 18.1162 688.949 17.5715 688.908C18.9412 688.527 20.4694 688.423 21.8587 688.325C22.3069 688.291 22.7416 688.262 23.1586 688.224C25.5755 688.004 27.8498 688.285 30.0972 688.746L30.1108 688.741Z" fill="#54747F"/>
<path d="M1.50372 657.911C3.95503 658.094 7.17499 656.387 7.99421 655.317C9.02206 653.961 8.54555 652.302 8.35965 650.651C8.16366 648.87 9.16412 647.885 9.44466 646.188C9.58344 645.31 9.50497 644.18 8.76339 643.616C7.19722 642.408 6.29206 644.215 5.68583 645.353C5.3323 642.911 2.5769 641.149 2.72941 644.629C2.2329 643.753 0.936441 642.145 -0.289192 642.489C-1.14079 642.727 -1.89454 644.036 -1.63451 644.888C-3.48319 642.658 -6.02317 643.492 -5.42637 646.393C-6.24874 646.363 -7.22186 646.105 -8.02405 646.335C-8.84736 648.265 -7.29501 648.264 -6.11735 649.095C-4.98382 649.903 -5.23744 651.422 -4.93945 652.713C-4.08446 656.363 -1.73803 658.723 1.50316 657.933L1.50372 657.911Z" fill="#DD7A86"/>
<path d="M3.20008 646.341L3.56301 646.319C3.46881 644.581 3.87166 642.824 4.26867 641.121C4.4047 640.525 4.55014 639.911 4.66383 639.315L4.30319 639.247C4.1895 639.844 4.04406 640.457 3.91272 641.044C3.51514 642.77 3.11173 644.549 3.20008 646.341Z" fill="#DD7A86"/>
<path d="M3.64216 638.68C3.73493 639.25 4.26638 639.635 4.84103 639.556C5.41155 639.463 5.79645 638.932 5.71721 638.357C5.62445 637.787 5.09299 637.402 4.51835 637.481C3.94782 637.574 3.56292 638.105 3.64216 638.68Z" fill="#DD7A86"/>
<path d="M1.19427 645.001L1.52061 644.835C0.714786 643.285 0.361759 641.522 0.0117032 639.817C-0.11167 639.219 -0.234475 638.599 -0.371375 638.005L-0.722489 638.09C-0.585589 638.684 -0.458088 639.295 -0.334714 639.894C0.0147697 641.62 0.38489 643.415 1.21193 645.011L1.19427 645.001Z" fill="#DD7A86"/>
<path d="M-1.56621 637.844C-1.24762 638.331 -0.602239 638.46 -0.11541 638.141C0.371418 637.822 0.499776 637.177 0.181189 636.69C-0.137399 636.203 -0.782783 636.075 -1.26961 636.394C-1.75644 636.712 -1.8848 637.358 -1.56621 637.844Z" fill="#DD7A86"/>
<path d="M-1.22638 647.292L-0.900041 647.126C-1.70587 645.576 -2.05891 643.813 -2.40896 642.109C-2.53234 641.51 -2.65514 640.89 -2.80086 640.291L-3.15197 640.376C-3.01507 640.97 -2.88758 641.582 -2.7642 642.18C-2.41472 643.907 -2.04459 645.701 -1.21756 647.297L-1.22638 647.292Z" fill="#DD7A86"/>
<path d="M8.88778 687.174C9.0908 687.282 9.35548 687.253 9.53006 687.074C9.74579 686.86 9.73671 686.516 9.52303 686.3C8.89905 685.684 8.60049 684.415 8.3338 683.299C8.24059 682.921 8.1515 682.556 8.05715 682.223C7.14543 679.041 6.34687 676.157 5.83295 673.165C5.24047 669.745 4.70795 666.256 4.19022 662.887C3.93314 661.221 3.68074 659.546 3.41483 657.875C3.36873 657.578 3.09212 657.375 2.79568 657.421C2.49924 657.467 2.29532 657.743 2.34141 658.04C2.60733 659.711 2.86442 661.377 3.1215 663.043C3.64336 666.425 4.17588 669.915 4.77248 673.348C5.29822 676.404 6.10504 679.314 7.02501 682.523C7.11524 682.843 7.2002 683.194 7.28046 683.554C7.5749 684.81 7.91415 686.236 8.76064 687.072C8.79538 687.113 8.84835 687.142 8.89248 687.165L8.88778 687.174Z" fill="#365360"/>
<path d="M5.11499 675.173C4.70739 671.172 1.77121 666.686 -1.21532 664.167C-3.52732 662.211 -6.49195 659.885 -9.63875 659.433C-9.46429 661.531 -9.07742 663.72 -8.66063 665.788C-8.22378 667.947 -6.60979 669.384 -4.86182 670.654C-2.30577 672.514 2.59813 675.453 5.11029 675.182L5.11499 675.173Z" fill="#365360"/>
<path d="M2.5581 673.698C3.07006 673.971 3.59669 674.195 4.13444 674.334L4.35213 674.393L4.36254 674.161C4.367 673.812 4.2238 673.464 3.98649 673.122C3.22983 671.224 1.77564 669.487 0.478034 667.923C0.148332 667.521 -0.177237 667.133 -0.485158 666.754C-2.93856 663.68 -5.96301 661.594 -9.1186 659.563L-9.3231 659.862C-7.82881 660.906 -6.68437 662.162 -5.47046 663.499C-5.13549 663.87 -4.79168 664.245 -4.43436 664.617C-3.16691 665.96 -2.14822 667.409 -1.06006 668.94L-0.623739 669.546C-0.248062 670.075 0.528832 670.658 1.36751 671.275C2.2368 671.919 3.18497 672.627 3.67781 673.298C3.74912 673.483 3.81572 673.677 3.88233 673.871C2.12602 673.276 0.480291 671.856 -0.98592 670.588C-1.43679 670.201 -1.86118 669.827 -2.28201 669.49C-2.64575 669.195 -3.0189 668.917 -3.38322 668.643C-4.55503 667.759 -5.6521 666.925 -6.52474 665.713C-7.72067 664.023 -9.10728 661.393 -9.47466 659.316L-9.83403 659.374C-9.42709 661.653 -7.96104 664.325 -6.82518 665.916C-5.93133 667.173 -4.75069 668.062 -3.61418 668.928C-3.24986 669.201 -2.87673 669.479 -2.52181 669.77C-2.10981 670.103 -1.68542 670.476 -1.23455 670.863C-0.0702986 671.869 1.19875 672.975 2.56692 673.703L2.5581 673.698ZM3.96648 673.904C3.96648 673.904 3.95765 673.9 3.94882 673.895L3.95765 673.9L3.96648 673.904ZM-6.82483 661.532C-4.61842 663.069 -2.54132 664.764 -0.777359 666.983C-0.469438 667.362 -0.148557 667.76 0.189972 668.167C1.23147 669.423 2.38188 670.795 3.16294 672.264C2.68616 671.841 2.11996 671.415 1.5579 671.002C0.754525 670.404 -0.0094065 669.839 -0.350347 669.352L-0.786665 668.746C-1.83597 667.269 -2.91061 665.734 -4.1957 664.382C-4.5442 664.015 -4.88801 663.639 -5.22298 663.268C-5.76694 662.673 -6.28912 662.1 -6.84305 661.545L-6.82483 661.532Z" fill="#54747F"/>
<path d="M5.9325 675.042C5.08907 671.115 6.4965 665.939 8.5588 662.619C10.1546 660.047 12.2523 656.915 15.1066 655.512C15.591 657.56 15.8926 659.76 16.1341 661.86C16.3869 664.045 15.2924 665.909 14.0219 667.657C12.1625 670.213 8.40624 674.524 5.9325 675.042Z" fill="#365360"/>
<path d="M6.40949 674.061L6.60058 673.936C8.31096 672.83 9.54889 670.782 10.6464 668.976C10.9502 668.469 11.2445 667.98 11.533 667.544C11.7845 667.157 12.0536 666.779 12.3093 666.406C13.1266 665.232 13.9717 664.028 14.4388 662.555C15.0234 660.691 15.6012 657.69 15.2795 655.4L14.916 655.445C15.207 657.537 14.7026 660.463 14.0882 662.447C13.6357 663.872 12.8506 665.006 12.0103 666.201C11.7411 666.579 11.4808 666.961 11.2294 667.349C10.9314 667.802 10.6418 668.282 10.3333 668.798C9.33337 670.463 8.20765 672.322 6.71668 673.42C6.713 673.214 6.71815 673.013 6.73212 672.817C6.9939 672.027 7.67616 671.065 8.30258 670.186C8.90138 669.338 9.46728 668.552 9.66213 667.93L9.88161 667.22C10.4421 665.423 10.9685 663.732 11.7538 662.065C11.9758 661.606 12.1802 661.137 12.3886 660.681C13.1375 659.041 13.8393 657.489 14.9323 656.031L14.6428 655.809C12.2778 658.719 10.0382 661.628 8.65553 665.31C8.47821 665.771 8.2962 666.24 8.10478 666.727C7.35438 668.605 6.50414 670.713 6.37149 672.749C6.24473 673.158 6.21735 673.528 6.32523 673.858L6.40009 674.079L6.40949 674.061ZM6.64378 673.472C6.64378 673.472 6.63908 673.481 6.63438 673.49L6.6432 673.494L6.64378 673.472ZM13.0782 658.386C12.7293 659.084 12.398 659.791 12.075 660.526C11.8665 660.981 11.658 661.437 11.4448 661.901C10.6455 663.594 10.0897 665.382 9.54917 667.1L9.32968 667.81C9.15421 668.374 8.60653 669.147 8.02183 669.969C7.61812 670.535 7.20971 671.111 6.89129 671.667C7.18364 670.032 7.85244 668.372 8.45488 666.857C8.64629 666.37 8.84183 665.896 9.01032 665.431C10.0043 662.777 11.4621 660.528 13.0829 658.377L13.0782 658.386Z" fill="#54747F"/>
<path d="M-6.22811 689.435C-4.20977 689.581 -1.56137 688.181 -0.890242 687.304C-0.0386916 686.194 -0.44203 684.824 -0.59066 683.464C-0.754655 682.006 0.0759316 681.191 0.299626 679.792C0.412045 679.07 0.350782 678.142 -0.258971 677.67C-1.54439 676.68 -2.28921 678.164 -2.78735 679.1C-3.07587 677.088 -5.34279 675.644 -5.22366 678.505C-5.63476 677.788 -6.69691 676.463 -7.69729 676.746C-8.39127 676.943 -9.01813 678.014 -8.8035 678.718C-10.3266 676.876 -12.4114 677.579 -11.9173 679.949C-12.5967 679.927 -13.3875 679.71 -14.0544 679.899C-14.7303 681.487 -13.455 681.475 -12.4887 682.171C-11.5617 682.835 -11.7637 684.086 -11.5224 685.144C-10.8208 688.146 -8.89764 690.087 -6.22811 689.435Z" fill="#DD7A86"/>
<path d="M-0.160219 713.489C0.00749274 713.578 0.227468 713.548 0.36972 713.408C0.544297 713.229 0.54703 712.947 0.36808 712.773C-0.142288 712.263 -0.39303 711.223 -0.606635 710.305C-0.679212 709.995 -0.747666 709.698 -0.825515 709.418C-1.5727 706.8 -2.22794 704.435 -2.64796 701.968C-3.13059 699.151 -3.5762 696.285 -3.99704 693.501C-4.20803 692.131 -4.41901 690.761 -4.6347 689.4C-4.67311 689.153 -4.90147 688.986 -5.1485 689.025C-5.39554 689.063 -5.56243 689.291 -5.52401 689.538C-5.30832 690.899 -5.09733 692.269 -4.88634 693.639C-4.4655 696.423 -4.01578 699.303 -3.53315 702.12C-3.10075 704.627 -2.43725 707.02 -1.6818 709.665C-1.60808 709.931 -1.54378 710.214 -1.47533 710.511C-1.2334 711.546 -0.950199 712.717 -0.252053 713.406C-0.221445 713.433 -0.182008 713.466 -0.1467 713.484L-0.160219 713.489Z" fill="#365360"/>
<path d="M-2.58912 703.517C-3.28499 700.292 -2.12925 696.036 -0.435342 693.301C0.880192 691.192 2.60598 688.61 4.94809 687.467C5.34343 689.15 5.59238 690.959 5.79422 692.687C5.99434 694.481 5.10956 696.015 4.06177 697.451C2.53623 699.551 -0.551782 703.095 -2.58912 703.517Z" fill="#365360"/>
<path d="M-2.19272 702.709L-2.03809 702.61C-0.628155 701.707 0.385921 700.015 1.2872 698.535C1.54396 698.116 1.77779 697.72 2.01987 697.35C2.22494 697.029 2.44295 696.726 2.66566 696.414C3.33438 695.455 4.03543 694.458 4.41985 693.246C4.89756 691.711 5.37225 689.245 5.11618 687.364L4.82444 687.401C5.06216 689.125 4.65625 691.526 4.14036 693.154C3.77944 694.322 3.12483 695.253 2.42848 696.242C2.20577 696.554 1.99657 696.862 1.78268 697.178C1.54059 697.548 1.30677 697.945 1.04531 698.372C0.218651 699.733 -0.701999 701.271 -1.92841 702.17C-1.93323 702.009 -1.92453 701.843 -1.91582 701.678C-1.69805 701.035 -1.13629 700.235 -0.625634 699.51C-0.13378 698.82 0.330452 698.161 0.486556 697.655L0.67613 697.065C1.13447 695.587 1.56819 694.198 2.21602 692.832C2.39575 692.452 2.56664 692.067 2.74167 691.696C3.35775 690.347 3.93154 689.078 4.83008 687.88L4.59759 687.699C2.64873 690.083 0.80694 692.478 -0.330869 695.509C-0.474715 695.886 -0.627962 696.28 -0.790034 696.67C-1.41127 698.22 -2.10413 699.946 -2.2141 701.621C-2.32092 701.95 -2.34246 702.267 -2.24638 702.533L-2.1839 702.714L-2.19272 702.709ZM-2.00132 702.222C-2.00132 702.222 -2.00132 702.222 -2.00602 702.231L-1.99718 702.235L-2.00132 702.222ZM3.28619 689.822C2.99425 690.392 2.72879 690.975 2.46276 691.581C2.29656 691.957 2.12154 692.329 1.94181 692.709C1.28458 694.092 0.830923 695.561 0.383123 696.977L0.19355 697.567C0.0474163 698.033 -0.402707 698.666 -0.885162 699.338C-1.21482 699.808 -1.55331 700.274 -1.82004 700.732C-1.57984 699.387 -1.03494 698.023 -0.53348 696.784C-0.375536 696.381 -0.213464 695.991 -0.0696183 695.614C0.751159 693.434 1.94392 691.577 3.27736 689.817L3.28619 689.822Z" fill="#54747F"/>
</g>
<g opacity="0.2">
<path d="M13.6266 249.683C12.5899 246.34 7.7737 244.322 5.03975 242.717C1.87031 240.85 -3.47358 236.756 -7.54412 238.017C-5.4605 242.802 -1.21264 246.151 3.39059 248.434C5.62491 249.542 11.0151 251.806 13.6266 249.683Z" fill="#506789"/>
<path d="M13.2434 249.9C14.1222 245.381 9.8435 240.029 7.70059 236.452C5.21414 232.308 1.61102 224.224 -3.84317 223.136C-4.41167 229.987 -1.60566 236.525 2.25824 242.055C4.13597 244.735 8.92859 250.724 13.2434 249.9Z" fill="#506789"/>
<path d="M13.1718 249.891C16.4642 245.863 15.3515 238.374 15.2857 233.719C15.2108 228.34 16.225 218.481 11.7189 214.624C7.45414 221.131 6.53027 229.049 7.15075 236.495C7.45136 240.111 8.68615 248.502 13.1807 249.887L13.1718 249.891Z" fill="#506789"/>
<path d="M6.36044 242.932C9.81644 243.464 12.5285 247.919 14.5257 250.392C16.8383 253.244 21.6762 257.931 21.0414 262.134C16.0014 260.781 12.0554 257.076 9.11676 252.86C7.68588 250.816 4.65278 245.818 6.36935 242.927L6.36044 242.932Z" fill="#506789"/>
<path d="M6.20218 243.348C10.5437 241.804 16.4648 245.246 20.3256 246.84C24.7829 248.68 33.3223 251.049 35.203 256.274C28.5093 257.847 21.6283 256.048 15.5893 253.037C12.6595 251.576 6.02467 247.723 6.20656 243.335L6.20218 243.348Z" fill="#506789"/>
<path d="M6.2295 243.424C9.72883 239.583 17.3002 239.561 21.907 238.936C27.2377 238.213 36.8326 235.749 41.321 239.638C35.5182 244.819 27.8305 246.908 20.365 247.403C16.7396 247.641 8.26041 247.664 6.2295 243.424Z" fill="#506789"/>
<path d="M11.9627 250.337C17.2468 249.324 20.9922 242.037 23.8328 237.98C27.1254 233.29 34.1281 225.548 32.7342 218.83C25.0889 221.246 19.3637 227.374 15.2401 234.27C13.2402 237.619 9.03974 245.776 11.9672 250.346L11.9627 250.337Z" fill="#506789"/>
<path d="M25.7673 227.283C20.2963 234.684 15.6707 242.8 8.75041 248.761C4.98777 251.997 1.86735 256.341 -1.10821 260.265C-3.58711 263.532 -6.83475 266.876 -8.56849 270.572" stroke="#39445B" stroke-width="0.89" stroke-miterlimit="10"/>
<path d="M11.6554 220.04C12.1835 222.183 10.5193 225.552 10.153 227.701C9.7174 230.2 9.98225 233.127 10.4455 235.606C10.8207 237.625 11.455 239.58 12.1249 241.517C12.4395 242.445 12.5591 243.652 13.1053 244.44C16.9931 243.968 21.5967 243.535 25.277 242.103C26.8518 241.493 28.9662 239.959 30.6872 240.521" stroke="#39445B" stroke-width="0.89" stroke-miterlimit="10"/>
<path d="M26.5383 253.902C22.4231 252.403 18.3483 250.918 14.5908 248.71C13.5313 248.082 11.9871 247.891 11.0658 247.181C9.13764 245.704 7.64007 242.337 6.48586 240.198C5.8115 238.959 5.05326 237.886 4.28084 236.697C3.3864 235.312 2.59684 232.853 1.43667 231.872" stroke="#39445B" stroke-width="0.89" stroke-miterlimit="10"/>
<path d="M0.570875 243.237C2.91613 244.21 5.34184 245.872 7.4883 247.226C8.17982 247.66 8.79054 248.045 9.31806 248.708C10.4498 250.141 11.1811 251.89 12.317 253.264C13.0247 254.127 14.2337 255.05 14.651 255.959" stroke="#39445B" stroke-width="0.89" stroke-miterlimit="10"/>
</g>
<g opacity="0.2">
<path d="M329.763 406.84C327.681 410.343 325.874 411.54 322.89 413.748" stroke="#7C5E3D" stroke-width="0.89" stroke-miterlimit="10"/>
<path d="M326.082 404.496C325.115 406.126 325.648 408.233 327.278 409.199C328.908 410.166 331.015 409.634 331.982 408.003C332.948 406.373 332.416 404.266 330.785 403.3C329.155 402.333 327.049 402.865 326.082 404.496Z" fill="#7C5E3D"/>
<path d="M316.336 402.572C314.245 406.072 314.05 408.228 313.524 411.897" stroke="#7C5E3D" stroke-width="0.89" stroke-miterlimit="10"/>
<path d="M320.145 404.697C319.178 406.327 317.072 406.86 315.441 405.893C313.811 404.926 313.278 402.82 314.245 401.19C315.212 399.559 317.318 399.027 318.949 399.993C320.579 400.96 321.112 403.067 320.145 404.697Z" fill="#7C5E3D"/>
<path d="M326.363 398.779C324.282 402.283 322.117 406.387 319.137 408.586" stroke="#7C5E3D" stroke-width="0.89" stroke-miterlimit="10"/>
<path d="M322.683 396.435C321.716 398.066 322.249 400.172 323.879 401.139C325.509 402.106 327.616 401.573 328.583 399.943C329.549 398.312 329.017 396.206 327.386 395.239C325.756 394.272 323.65 394.805 322.683 396.435Z" fill="#7C5E3D"/>
<path d="M312.235 425.28C314.7 423.438 317.703 421.484 319.667 419.083C320.934 417.537 324.344 412.962 324.267 410.925C324.076 405.872 317.871 406.57 315.445 409.167C312.516 412.309 309.795 417.678 309.018 421.882C308.643 423.893 309.747 428.228 312.222 425.285L312.235 425.28Z" fill="#CE8452"/>
<path d="M312.552 426.616C315.596 426.212 319.179 425.964 322.06 424.82C323.923 424.086 329.123 421.752 330.054 419.936C332.353 415.433 326.586 413.018 323.211 414.109C319.116 415.424 314.138 418.788 311.408 422.082C310.108 423.658 308.955 427.974 312.552 426.616Z" fill="#BA5E42"/>
<path d="M307.595 424.022C306.502 421.15 305.017 417.879 304.646 414.806C304.411 412.815 303.986 407.124 305.142 405.449C308.006 401.284 312.876 405.206 313.527 408.69C314.32 412.914 313.73 418.898 312.132 422.868C311.365 424.759 308.111 427.828 307.595 424.022Z" fill="#BA5E42"/>
<path d="M309.41 427.936C310.724 428.115 311.831 428.331 313.208 427.579C314.337 426.966 314.263 426.219 314.467 425.032C313.624 423.889 311.819 423.176 310.617 422.461C309.86 422.006 308.729 420.997 307.793 421.363C306.074 422.057 306.039 424.769 306.62 426.143C307.372 427.906 308.546 427.729 309.404 427.923L309.41 427.936Z" fill="#7C5E3D"/>
<path d="M309.506 426.697C308.111 429.04 306.844 432.078 304.791 433.908C302.73 435.757 300.287 437.596 297.566 438.276" stroke="#7C5E3E" stroke-width="0.89" stroke-miterlimit="10"/>
</g>
<g opacity="0.2">
<path d="M339.992 777.065C337.732 776.533 335.321 774.077 334.883 772.873C334.335 771.361 335.246 769.992 335.884 768.564C336.568 767.024 335.945 765.842 336.179 764.23C336.3 763.392 336.696 762.409 337.527 762.098C339.277 761.453 339.585 763.339 339.804 764.542C340.813 762.441 343.806 761.634 342.677 764.736C343.372 764.088 345.003 763.006 346.005 763.671C346.703 764.128 347.008 765.525 346.538 766.209C348.841 764.72 350.882 766.207 349.53 768.643C350.287 768.853 351.226 768.894 351.89 769.327C352.075 771.301 350.683 770.848 349.381 771.269C348.128 771.671 347.929 773.114 347.289 774.188C345.483 777.238 342.694 778.689 339.992 777.051L339.992 777.065Z" fill="#C65C4E"/>
<path d="M341.757 766.154L341.436 766.029C342.021 764.486 342.151 762.792 342.287 761.149C342.336 760.57 342.378 759.984 342.455 759.407L342.793 759.447C342.724 760.018 342.682 760.604 342.633 761.182C342.503 762.847 342.358 764.569 341.757 766.154Z" fill="#C65C4E"/>
<path d="M343.54 759.134C343.297 759.621 342.702 759.819 342.216 759.575C341.729 759.332 341.531 758.737 341.774 758.251C342.018 757.764 342.612 757.566 343.099 757.809C343.585 758.053 343.784 758.647 343.54 759.134Z" fill="#C65C4E"/>
<path d="M343.951 765.53L343.719 765.282C344.878 764.12 345.709 762.635 346.503 761.198C346.782 760.692 347.069 760.178 347.37 759.68L347.661 759.86C347.367 760.352 347.08 760.865 346.801 761.372C345.992 762.836 345.153 764.342 343.951 765.545L343.951 765.53Z" fill="#C65C4E"/>
<path d="M348.474 759.867C348.052 760.206 347.424 760.148 347.085 759.726C346.746 759.304 346.804 758.676 347.226 758.337C347.649 757.998 348.276 758.056 348.615 758.478C348.954 758.901 348.897 759.528 348.474 759.867Z" fill="#C65C4E"/>
<path d="M345.474 768.28L345.242 768.031C346.401 766.869 347.225 765.391 348.026 763.948C348.306 763.441 348.593 762.928 348.893 762.429L349.184 762.609C348.891 763.101 348.596 763.622 348.324 764.121C347.508 765.578 346.677 767.091 345.481 768.287L345.474 768.28Z" fill="#C65C4E"/>
<path d="M349.997 762.617C349.575 762.956 348.947 762.898 348.608 762.476C348.27 762.053 348.327 761.426 348.75 761.087C349.172 760.748 349.8 760.806 350.138 761.228C350.477 761.65 350.42 762.278 349.997 762.617Z" fill="#C65C4E"/>
<path d="M347.712 768.217L347.517 767.935C348.873 766.999 349.96 765.686 351.009 764.421C351.378 763.981 351.755 763.521 352.139 763.081L352.393 763.31C352.017 763.742 351.633 764.196 351.27 764.643C350.213 765.928 349.105 767.262 347.712 768.217Z" fill="#C65C4E"/>
<path d="M353.193 763.48C352.71 763.738 352.108 763.561 351.856 763.086C351.604 762.61 351.774 762 352.25 761.748C352.733 761.489 353.335 761.666 353.587 762.142C353.846 762.625 353.669 763.227 353.193 763.48Z" fill="#C65C4E"/>
<path d="M324.991 801.321C324.771 801.363 324.548 801.256 324.435 801.046C324.309 800.794 324.405 800.486 324.658 800.347C325.4 799.97 326.031 798.917 326.581 797.981C326.769 797.669 326.949 797.364 327.129 797.087C328.856 794.481 330.397 792.115 331.718 789.558C333.229 786.647 334.707 783.657 336.125 780.764C336.827 779.331 337.543 777.898 338.251 776.473C338.38 776.216 338.681 776.113 338.938 776.243C339.196 776.372 339.291 776.68 339.169 776.93C338.46 778.355 337.745 779.788 337.043 781.221C335.611 784.113 334.132 787.118 332.621 790.029C331.277 792.635 329.728 795.021 327.972 797.655C327.8 797.911 327.627 798.209 327.447 798.514C326.822 799.56 326.115 800.752 325.106 801.268C325.063 801.295 325.006 801.307 324.963 801.32L324.991 801.321Z" fill="#365360"/>
<path d="M331.816 791.585C333.319 788.108 337.246 784.9 340.657 783.471C343.293 782.368 346.634 781.113 349.596 781.607C348.837 783.448 347.866 785.31 346.906 787.052C345.901 788.863 344.038 789.71 342.098 790.357C339.27 791.297 334.011 792.562 331.823 791.593L331.816 791.585Z" fill="#365360"/>
<path d="M334.54 790.988C334.006 791.09 333.466 791.141 332.944 791.109L332.725 791.094L332.789 790.884C332.878 790.569 333.107 790.301 333.427 790.057C334.647 788.565 336.457 787.412 338.071 786.372C338.484 786.111 338.889 785.842 339.273 785.594C342.36 783.524 345.679 782.509 349.101 781.576L349.203 781.905C347.565 782.42 346.17 783.227 344.697 784.08C344.285 784.314 343.873 784.561 343.448 784.793C341.925 785.638 340.587 786.652 339.17 787.727L338.61 788.153C338.122 788.525 337.249 788.82 336.332 789.141C335.365 789.482 334.305 789.841 333.68 790.3C333.562 790.451 333.443 790.603 333.339 790.755C335.087 790.725 336.977 789.907 338.665 789.181C339.183 788.959 339.678 788.743 340.152 788.561C340.561 788.399 340.976 788.258 341.385 788.11C342.689 787.646 343.921 787.209 345.048 786.364C346.611 785.181 348.598 783.206 349.531 781.435L349.83 781.594C348.813 783.525 346.726 785.525 345.258 786.633C344.095 787.512 342.776 787.975 341.508 788.432C341.099 788.581 340.684 788.722 340.282 788.877C339.809 789.059 339.327 789.275 338.81 789.498C337.473 790.073 336.015 790.708 334.576 790.968L334.54 790.988ZM333.21 790.779C333.21 790.779 333.21 790.779 333.224 790.779L333.211 790.764L333.204 790.771L333.21 790.779ZM346.465 782.707C344.039 783.463 341.686 784.399 339.468 785.891C339.084 786.153 338.678 786.408 338.259 786.676C336.956 787.508 335.537 788.42 334.408 789.512C334.955 789.262 335.585 789.044 336.216 788.826C337.111 788.511 337.963 788.222 338.4 787.884L338.96 787.458C340.319 786.424 341.73 785.355 343.274 784.49C343.7 784.258 344.105 784.017 344.516 783.784C345.174 783.404 345.809 783.03 346.465 782.692L346.465 782.707Z" fill="#54747F"/>
<path d="M331.121 791.235C332.999 787.941 333.214 782.875 332.3 779.298C331.591 776.528 330.601 773.104 328.424 771.032C327.402 772.736 326.507 774.636 325.686 776.454C324.84 778.348 325.287 780.338 325.933 782.279C326.873 785.107 329.033 790.065 331.114 791.242L331.121 791.235Z" fill="#365360"/>
<path d="M330.966 790.218L330.816 790.057C329.595 788.571 329.071 786.366 328.602 784.425C328.473 783.875 328.35 783.362 328.211 782.876C328.092 782.454 327.965 782.039 327.831 781.631C327.423 780.343 327.003 779.012 327.012 777.555C327.014 775.708 327.355 772.848 328.288 770.871L328.602 771.017C327.753 772.819 327.364 775.6 327.359 777.56C327.359 778.968 327.746 780.22 328.167 781.537C328.293 781.952 328.427 782.374 328.547 782.795C328.685 783.281 328.808 783.809 328.944 784.352C329.377 786.136 329.858 788.134 330.876 789.55C330.939 789.368 330.988 789.186 331.037 789.004C331.022 788.225 330.685 787.159 330.366 786.185C330.073 785.255 329.786 784.375 329.793 783.766L329.796 783.066C329.81 781.291 329.812 779.607 329.576 777.886C329.508 777.403 329.454 776.934 329.393 776.457C329.191 774.773 329 773.175 328.427 771.548L328.75 771.425C330.056 774.719 331.243 777.973 331.444 781.695C331.463 782.155 331.503 782.638 331.542 783.135C331.679 785.043 331.838 787.178 331.382 789.051C331.382 789.447 331.299 789.798 331.106 790.06L330.98 790.233L330.966 790.218ZM330.924 789.615C330.924 789.615 330.93 789.623 330.937 789.63L330.93 789.623L330.924 789.615ZM329.424 774.187C329.54 774.913 329.634 775.645 329.721 776.398C329.775 776.867 329.836 777.343 329.897 777.82C330.132 779.568 330.126 781.337 330.123 783.049L330.119 783.75C330.121 784.309 330.395 785.16 330.681 786.069C330.885 786.699 331.089 787.329 331.217 787.92C331.421 786.364 331.289 784.682 331.174 783.136C331.135 782.639 331.095 782.157 331.076 781.696C330.937 779.024 330.273 776.58 329.417 774.18L329.424 774.187Z" fill="#54747F"/>
</g>
<g opacity="0.4">
<path d="M234.135 564.313C233.99 563.71 233.761 563.149 233.304 562.858C233.054 562.702 232.732 562.692 232.431 562.702C229.615 562.817 227.1 564.417 224.43 565.321C226.165 563.991 227.672 562.391 229.085 560.739C229.542 560.209 230.01 559.492 229.698 558.868C229.532 558.536 229.189 558.338 228.856 558.162C227.506 557.424 226.144 556.686 224.658 556.26C223.464 555.917 222.061 555.813 221.094 556.582C220.377 557.154 220.055 558.078 219.858 558.972C219.39 561.154 219.494 563.461 218.767 565.57C217.946 564.084 217.26 562.526 216.273 561.133C215.566 560.146 214.662 559.253 213.519 558.847C213.145 558.712 212.74 558.64 212.345 558.671C211.742 558.723 211.202 559.034 210.703 559.367C208.802 560.666 206.973 563.284 207.617 565.705C208.002 567.129 209.29 568.179 210.693 568.636C212.096 569.093 213.613 569.041 215.088 568.927C214.735 568.958 214.018 569.529 213.623 569.685C212.968 569.955 212.314 570.236 211.68 570.548C210.36 571.182 209.093 571.909 207.877 572.72C207.586 572.907 207.295 573.125 207.139 573.426C206.994 573.696 206.983 574.018 207.014 574.33C207.17 575.66 208.178 576.699 209.155 577.614C209.81 578.227 210.485 578.84 211.306 579.204C212.127 579.567 213.124 579.65 213.893 579.193C214.86 578.622 215.213 577.416 215.577 576.346C215.992 575.109 216.533 573.914 217.187 572.782C217.302 573.54 217.322 574.309 217.229 575.068C216.979 577.188 215.94 579.172 215.878 581.303C215.857 581.895 215.961 582.56 216.429 582.913C216.699 583.121 217.052 583.183 217.385 583.235C218.195 583.37 218.995 583.495 219.806 583.63C220.523 583.744 221.25 583.869 221.978 583.796C222.705 583.734 223.432 583.464 223.921 582.924C224.721 582.04 224.669 580.7 224.492 579.515C224.316 578.31 224.045 577.105 223.702 575.93C223.547 575.411 223.422 574.881 223.11 574.455C222.809 574.029 222.435 573.644 222.341 573.114C223.173 573.759 223.775 575.006 224.378 575.858C225.136 576.928 225.895 577.988 226.664 579.058C226.913 579.411 227.184 579.775 227.558 580.004C228.16 580.357 228.94 580.263 229.563 579.952C230.187 579.63 230.675 579.12 231.163 578.611C231.943 577.79 232.722 576.98 233.501 576.159C233.668 575.982 233.844 575.795 233.907 575.567C234.042 575.078 233.657 574.621 233.304 574.268C231.153 572.19 228.566 570.589 225.75 569.581C226.363 569.135 227.215 569.311 227.952 569.477C228.981 569.716 230.031 569.904 231.08 569.935C231.901 569.955 233.356 570.08 234.073 569.654C234.634 569.311 234.894 568.615 234.894 567.96C234.894 567.306 234.676 566.672 234.468 566.048C234.322 565.591 234.249 564.926 234.094 564.303L234.135 564.313Z" fill="#F8D678"/>
<path d="M227.63 566.464C227.537 566.007 227.339 565.529 226.934 565.3C226.623 565.134 226.259 565.144 225.905 565.176C224.43 565.331 223.017 565.934 221.874 566.88C222.622 565.539 224.253 564.75 224.659 563.274C224.711 563.097 224.731 562.9 224.679 562.723C224.617 562.515 224.461 562.36 224.284 562.225C223.536 561.632 222.528 561.383 221.593 561.539C221.042 561.632 220.492 561.892 220.19 562.37C220.003 562.661 219.941 563.014 219.879 563.357C219.66 564.604 219.505 565.861 219.421 567.129C218.964 566.724 218.549 566.256 218.216 565.737C217.915 565.29 217.665 564.802 217.312 564.386C216.959 563.981 216.45 563.658 215.909 563.669C215.556 563.669 215.223 563.835 214.922 564.012C213.873 564.646 212.511 566.402 213.561 567.576C213.956 568.012 214.538 568.199 215.099 568.366C215.66 568.532 216.221 568.709 216.792 568.875C215.826 569.394 214.86 569.904 213.883 570.423C213.789 570.475 213.696 570.527 213.644 570.621C213.592 570.724 213.613 570.839 213.644 570.953C213.769 571.493 214.008 572.003 214.33 572.449C214.486 572.657 214.662 572.855 214.891 572.969C215.566 573.291 216.346 572.771 216.824 572.2C217.302 571.628 217.717 570.911 218.424 570.683C218.642 571.514 218.185 572.46 217.967 573.26C217.884 573.582 217.79 573.915 217.884 574.237C217.967 574.517 218.195 574.746 218.424 574.933C218.975 575.359 219.681 575.65 220.377 575.567C221.074 575.484 221.739 574.985 221.884 574.299C221.946 573.987 221.905 573.665 221.853 573.343C221.687 572.283 221.448 571.234 221.157 570.205C221.915 571.234 222.674 572.252 223.432 573.281C223.578 573.478 223.755 573.696 224.004 573.738C224.305 573.79 224.565 573.551 224.783 573.333C225.365 572.73 225.926 572.106 226.456 571.462C226.622 571.265 226.789 571.026 226.747 570.776C226.695 570.454 226.352 570.288 226.061 570.163C225.012 569.706 224.025 569.093 223.131 568.366C224.035 568.158 225.209 568.48 226.134 568.573C226.332 568.594 226.529 568.615 226.716 568.573C227.132 568.49 227.454 568.137 227.589 567.732C227.724 567.327 227.693 566.89 227.61 566.474C227.61 566.474 227.61 566.474 227.61 566.464H227.63Z" fill="white"/>
<path d="M221.936 568.262C221.697 567.846 221.167 567.711 220.689 567.701C220.232 567.534 219.691 567.545 219.328 567.804C219.297 567.815 219.265 567.825 219.245 567.836C218.829 568.043 218.798 568.438 218.995 568.75C219.12 569.664 220.793 569.987 221.364 569.29C221.79 569.145 222.216 568.74 221.946 568.262H221.936Z" fill="#F8D678"/>
</g>
<path opacity="0.2" d="M337.372 254.906C336.42 254.556 335.479 254.85 334.553 255.134C334.947 254.636 335.325 254.12 335.688 253.596C336.086 253.027 336.466 252.439 336.828 251.851C338.001 251.71 339.153 251.457 340.275 251.06C340.833 250.86 341.391 250.641 341.919 250.38C342.356 250.169 342.862 249.814 342.727 249.248C342.486 248.262 341.023 248.593 340.325 248.736C340.086 248.78 339.853 248.845 339.62 248.911C340.228 248.282 340.751 247.58 341.084 246.748C341.545 245.594 341.742 243.613 340.318 243.072C338.956 242.547 338.087 244.274 337.663 245.276C337.301 246.146 337.072 247.053 336.978 247.977C336.962 247.923 336.954 247.873 336.938 247.818C336.586 246.589 335.721 245.211 334.527 244.658C333.986 244.412 333.388 244.554 333.136 245.137C332.867 245.785 333.081 246.639 333.224 247.29C333.542 248.765 334.209 250.109 335.135 251.274C335.084 251.302 335.062 251.344 335.091 251.424C335.231 251.746 335.434 252.019 335.703 252.237C334.913 253.451 334.05 254.617 333.118 255.727C333.266 255.369 333.39 255.007 333.478 254.627C333.758 253.393 333.493 252.001 332.303 251.377C331.833 251.132 331.235 251.074 330.786 251.406C330.235 251.81 330.059 252.553 329.971 253.198C329.764 254.681 330.049 256.202 330.738 257.522C330.814 257.664 330.98 257.807 331.149 257.826C331.163 257.833 331.185 257.827 331.209 257.831C330.269 258.791 329.274 259.685 328.231 260.534C328.292 260.339 328.345 260.14 328.395 259.948C328.735 258.619 328.752 257.006 327.465 256.193C326.983 255.887 326.363 255.753 325.883 256.159C325.414 256.562 325.164 257.275 325.022 257.854C324.692 259.216 324.951 260.65 325.736 261.794C325.81 261.906 326.072 262.003 326.232 262.007C326.232 262.007 326.246 262.014 326.253 262.018C326.253 262.018 326.253 262.018 326.26 262.022C325.028 262.888 323.739 263.678 322.407 264.38C322.595 263.816 322.843 263.257 322.981 262.685C323.21 261.761 323.279 260.768 323.1 259.833C322.955 259.053 322.525 258.384 321.758 258.124C321.004 257.872 320.407 258.279 320.035 258.935C318.927 260.87 319.329 263.256 319.689 265.319C319.704 265.409 319.8 265.497 319.918 265.561C319.078 265.919 318.218 266.247 317.352 266.536C318.368 265.353 319.126 263.848 319.144 262.3C319.154 261.567 318.829 260.936 318.133 260.66C317.461 260.389 316.674 260.565 316.179 261.1C315.499 261.827 315.365 262.957 315.295 263.904C315.22 264.975 315.308 266.043 315.543 267.09C315.288 267.163 315.03 267.224 314.776 267.296C314.518 267.357 314.823 267.659 315.071 267.747C314.889 267.968 314.802 268.213 314.85 268.539C314.963 269.329 315.464 270.101 316.022 270.648C316.909 271.519 319.379 272.87 319.97 270.993C320.546 269.144 318.888 267.903 317.393 267.16C318.793 266.713 320.162 266.176 321.487 265.551C321.498 265.949 321.6 266.341 321.825 266.708C322.297 267.465 323.121 268.037 323.875 268.471C324.629 268.906 325.6 269.239 326.457 268.899C327.13 268.634 327.727 267.962 327.599 267.201C327.445 266.252 326.346 265.559 325.551 265.184C324.811 264.839 324.015 264.665 323.209 264.676C324.462 264.004 325.671 263.262 326.834 262.441C327.812 263.06 328.907 263.478 330.05 263.658C330.958 263.792 332.927 264.09 333.318 262.916C333.645 261.944 332.881 260.994 332.092 260.558C331.323 260.134 330.468 260.12 329.625 260.266C330.498 259.516 331.329 258.725 332.126 257.898C333.386 257.894 334.643 257.88 335.903 257.877C336.769 257.871 338.207 257.972 338.589 256.93C338.917 256.041 338.121 255.183 337.358 254.899L337.372 254.906Z" fill="#3E84F6"/>
<path opacity="0.2" d="M177.568 621.906C178.521 621.556 179.461 621.85 180.387 622.134C179.993 621.636 179.615 621.12 179.252 620.596C178.855 620.027 178.474 619.439 178.112 618.851C176.939 618.71 175.787 618.457 174.665 618.06C174.108 617.86 173.549 617.641 173.022 617.38C172.584 617.169 172.078 616.814 172.213 616.248C172.454 615.262 173.917 615.593 174.615 615.736C174.854 615.78 175.087 615.845 175.32 615.911C174.712 615.282 174.189 614.58 173.857 613.748C173.395 612.594 173.198 610.613 174.622 610.072C175.984 609.547 176.853 611.274 177.277 612.276C177.639 613.146 177.868 614.053 177.962 614.977C177.978 614.923 177.987 614.873 178.002 614.818C178.355 613.589 179.219 612.211 180.413 611.658C180.954 611.412 181.552 611.554 181.804 612.137C182.073 612.785 181.859 613.639 181.717 614.29C181.398 615.765 180.731 617.109 179.805 618.274C179.856 618.302 179.879 618.344 179.85 618.424C179.709 618.746 179.506 619.019 179.237 619.237C180.027 620.451 180.89 621.617 181.822 622.727C181.674 622.369 181.55 622.007 181.462 621.627C181.182 620.393 181.447 619.001 182.637 618.377C183.108 618.132 183.705 618.074 184.154 618.406C184.705 618.81 184.881 619.553 184.969 620.198C185.176 621.681 184.892 623.202 184.202 624.522C184.126 624.664 183.961 624.807 183.791 624.826C183.777 624.833 183.756 624.827 183.731 624.831C184.671 625.791 185.666 626.685 186.709 627.534C186.648 627.339 186.595 627.14 186.545 626.948C186.205 625.619 186.188 624.006 187.475 623.193C187.957 622.887 188.577 622.753 189.057 623.159C189.526 623.562 189.776 624.275 189.918 624.854C190.248 626.216 189.989 627.65 189.204 628.794C189.13 628.906 188.868 629.003 188.708 629.007C188.708 629.007 188.694 629.014 188.687 629.018C188.687 629.018 188.687 629.018 188.68 629.022C189.912 629.888 191.201 630.678 192.533 631.38C192.345 630.816 192.098 630.257 191.959 629.685C191.73 628.761 191.661 627.768 191.84 626.833C191.985 626.053 192.415 625.384 193.182 625.124C193.936 624.872 194.533 625.279 194.905 625.935C196.013 627.87 195.611 630.256 195.251 632.319C195.236 632.409 195.14 632.497 195.022 632.561C195.862 632.919 196.722 633.247 197.588 633.536C196.572 632.353 195.814 630.848 195.796 629.3C195.787 628.567 196.111 627.936 196.807 627.66C197.479 627.389 198.266 627.565 198.761 628.1C199.441 628.827 199.575 629.957 199.646 630.904C199.721 631.975 199.632 633.043 199.398 634.09C199.652 634.163 199.91 634.224 200.165 634.296C200.422 634.357 200.118 634.659 199.869 634.747C200.051 634.968 200.138 635.213 200.09 635.539C199.977 636.329 199.477 637.101 198.918 637.648C198.031 638.519 195.561 639.87 194.97 637.993C194.394 636.144 196.052 634.903 197.547 634.16C196.147 633.713 194.778 633.176 193.453 632.551C193.443 632.949 193.34 633.341 193.116 633.708C192.643 634.465 191.82 635.037 191.065 635.471C190.311 635.906 189.34 636.239 188.483 635.899C187.81 635.634 187.214 634.962 187.342 634.201C187.495 633.252 188.594 632.559 189.39 632.184C190.129 631.839 190.925 631.665 191.731 631.676C190.478 631.004 189.269 630.262 188.107 629.441C187.129 630.06 186.033 630.478 184.89 630.658C183.983 630.792 182.013 631.09 181.622 629.916C181.295 628.944 182.059 627.994 182.848 627.558C183.617 627.134 184.472 627.12 185.315 627.266C184.442 626.516 183.611 625.725 182.814 624.898C181.554 624.894 180.297 624.88 179.037 624.877C178.171 624.871 176.734 624.972 176.351 623.93C176.023 623.041 176.819 622.183 177.582 621.899L177.568 621.906Z" fill="#3E84F6"/>
<path opacity="0.3" d="M281.249 690.888C281.402 692.802 278.77 693.464 277.279 693.597C275.184 693.784 273.044 693.204 271.043 692.591C269.535 694.024 267.96 695.403 266.335 696.705C266.77 696.768 267.208 696.871 267.634 697.036C268.954 697.568 270.562 698.845 270.473 700.416C270.392 702.25 268.132 702.959 266.61 703.176C265.527 703.314 264.439 703.228 263.392 702.956C262.179 702.659 261.068 702.007 259.802 701.957C259.658 701.95 259.448 701.888 259.233 701.785C258.016 702.543 256.754 703.265 255.469 703.968L253.342 702.23C255.092 701.322 256.753 700.342 258.364 699.285C258.104 698.963 258.001 698.586 258.176 698.327C258.771 697.462 257.02 695.264 256.693 694.339C256.312 693.297 256.151 692.215 256.191 691.116C256.244 689.041 257.367 687.986 259.404 689.103C261.182 690.081 263.179 692.116 263.233 694.242C263.251 694.768 263.193 695.342 263.072 695.901C265.301 694.179 267.431 692.304 269.472 690.356C267.658 688.691 266.404 686.57 266.292 684.104C266.202 681.839 267.141 679.684 269.747 680.426C271.868 681.028 273.749 682.931 274.331 685.051C274.363 685.149 274.372 685.23 274.403 685.328C275.893 683.734 277.316 682.084 278.757 680.413C278.614 680.223 278.551 680.025 278.574 679.861C276.478 678.404 274.642 676.173 274.633 673.535C274.614 671.365 276.212 669.456 278.549 669.978C281.284 670.607 282.681 672.918 282.879 675.417C283.952 674.103 284.982 672.753 286.011 671.402C286.002 671.322 286.011 671.22 286.042 671.136C286.078 671.092 286.069 671.012 286.082 670.95C284.551 669.077 282.89 667.5 282.585 664.949C282.356 663.264 282.879 660.66 284.951 660.455C286.903 660.26 288.39 662.279 288.802 663.968C288.905 664.344 288.968 664.724 289.013 665.126C290.52 661.866 292.914 658.891 295.833 660.802C299.545 663.252 296.976 666.668 293.951 669.09C294.757 669.383 295.406 669.914 295.845 670.748C297.466 673.972 290.51 673.071 288.33 672.86C287.283 674.232 286.231 675.564 285.162 676.918C286.003 676.802 286.858 676.807 287.597 677.046C288.985 677.45 290.601 678.807 290.472 680.382C290.182 683.98 284.232 683.172 281.085 681.951C279.47 683.881 277.828 685.753 276.118 687.57C276.812 687.59 277.515 687.689 278.191 687.913C279.498 688.324 281.204 689.39 281.312 690.902L281.249 690.888Z" fill="#F8D678"/>
<g opacity="0.3">
<path d="M-5.75859 383.141L-8.19406 380.88C-0.334846 367.213 1.7167 349.667 12.6789 337.857C13.5053 336.966 14.4084 336.098 15.3377 335.255C16.2427 334.437 18.6052 336.776 17.7731 337.515C16.9897 338.202 16.2567 338.886 15.5518 339.646C4.20998 351.445 2.22027 369.293 -5.75859 383.141Z" fill="#3E84F6"/>
<path d="M25.431 334.727C26.1022 333.741 26.592 332.636 26.8274 331.489C27.2141 329.655 26.8097 327.622 25.5694 326.227C25.0681 325.664 24.3929 325.184 23.656 325.085C22.893 324.962 22.0701 325.27 21.6645 325.917C22.0457 324.614 21.4077 323.095 20.2218 322.482C18.5703 321.583 16.3786 322.474 15.2456 323.957C14.4492 324.973 14.0399 326.201 13.7559 327.4C13.5167 328.446 13.1223 329.396 12.857 330.417C12.2628 332.79 12.4054 335.263 12.6472 337.681C12.7297 338.537 14.6002 339.883 15.1929 339.507C15.3987 339.601 15.5782 339.67 15.7297 339.664C18.7051 339.452 22.0861 338.593 24.1765 336.341C24.6383 335.844 25.074 335.322 25.4572 334.751L25.431 334.727Z" fill="#F8D678"/>
</g>
<g opacity="0.3">
<path opacity="0.8" d="M132.76 676.566C132.355 676.331 131.032 677.027 131.368 677.544C135.377 683.774 139.695 690.8 138.843 698.481C136.903 695.796 134.798 693.233 132.798 690.628C128.018 684.386 124.183 677.722 121.833 670.307C121.403 668.953 121.029 667.586 120.704 666.19C120.556 665.515 119.022 666.296 119.153 666.871C119.479 668.267 119.842 669.619 120.273 670.973C122.512 678.171 126.145 684.717 130.736 690.791C133.481 694.406 136.407 697.888 138.917 701.69C139.082 701.961 139.253 702.206 139.417 702.477L140.9 701.575C140.706 701.257 140.512 700.938 140.296 700.654C140.567 700.49 140.789 700.245 140.804 700.018C141.086 691.723 140.968 681.334 132.763 676.607L132.76 676.566ZM136.425 682.591C136.677 683.005 136.898 683.439 137.092 683.866C136.872 683.433 136.636 683.008 136.425 682.591Z" fill="#3E84F6"/>
<path d="M123.576 660.141C123.264 660.418 122.991 660.759 122.785 661.102C121.923 662.522 121.73 664.321 122.254 665.902C122.219 664.264 121.914 662.615 121.119 661.199C120.828 660.721 120.485 660.23 119.972 659.997C119.459 659.763 118.784 659.802 118.444 660.249C118.187 660.58 118.158 661.035 118.167 661.444C118.202 663.476 118.879 665.487 120.064 667.147C118.78 664.893 117.406 662.562 115.183 661.207C114.557 660.823 113.698 660.56 113.15 661.024C112.994 661.162 112.877 661.365 112.802 661.564C112.434 662.574 112.988 663.7 113.614 664.585C114.572 665.946 115.754 667.17 117.085 668.173C115.622 666.989 113.968 666.029 112.214 665.371C111.669 665.157 110.954 665.024 110.563 665.458C109.559 666.572 112.083 669.033 112.819 669.633C115.247 671.65 118.533 672.097 121.242 670.448C121.377 670.454 121.533 670.424 121.728 670.349C123.388 669.667 124.801 668.436 125.694 666.889C126.457 665.594 127.493 663.96 127.634 662.432C127.745 661.142 127.029 659.678 125.76 659.423C124.969 659.272 124.209 659.603 123.601 660.147L123.576 660.141Z" fill="#F8D678"/>
<path d="M112.801 658.834C112.131 658.128 111.007 658.506 110.426 659.165C110.165 659.455 109.998 659.862 110.163 660.242C110.235 660.395 110.354 660.519 110.501 660.582C110.573 660.844 110.783 661.045 111.065 661.113C111.484 661.229 111.957 661.073 112.314 660.834C112.983 660.426 113.4 659.496 112.769 658.853L112.801 658.834Z" fill="white"/>
<path d="M116.634 657.31C115.918 657.353 114.971 657.951 114.969 658.738C114.967 658.914 115.089 658.971 115.249 658.983C115.418 659.404 115.721 659.722 116.239 659.712C116.918 659.715 117.983 659.132 117.917 658.342C117.875 657.735 117.21 657.287 116.634 657.31Z" fill="white"/>
<path d="M121.105 656.512C120.643 656.684 120.194 657.023 119.998 657.491C119.888 657.776 119.868 658.138 120.096 658.37C120.206 658.478 120.359 658.516 120.5 658.496C120.732 658.77 121.12 658.905 121.501 658.848C122.261 658.735 123.242 657.941 122.962 657.086C122.714 656.319 121.747 656.274 121.105 656.512Z" fill="white"/>
</g>
<g opacity="0.4">
<path d="M353.785 480.858C353.754 481.089 353.705 481.317 353.675 481.548C353.248 484.119 352.551 486.669 351.195 488.923C349.838 491.178 347.849 492.877 345.785 494.46C351.562 502.747 359.073 509.756 367.729 514.949L366.711 515.611C365.819 515.074 364.93 514.52 364.067 513.934C356.567 508.94 350.024 502.539 344.868 495.162C344.836 495.183 344.804 495.203 344.783 495.217C340.373 498.671 334.475 498.928 329.296 497.088C329.1 497.019 328.904 496.95 328.712 496.863C328.332 496.719 329.197 495.96 329.578 496.105C329.721 496.163 329.857 496.21 330 496.268C334.295 497.838 339.248 497.984 343.175 495.598C342.668 495.747 342.161 495.85 341.631 495.847C340.459 495.854 339.28 495.549 338.175 495.196C335.843 494.463 333.725 493.199 332.192 491.283C332.151 491.219 332.092 491.152 332.04 491.095C331.798 490.769 332.761 490.114 333.027 490.454C333.034 490.464 333.048 490.486 333.061 490.507C334.396 492.235 336.234 493.439 338.278 494.193C339.313 494.577 340.428 494.878 341.536 495.003C342.58 495.125 343.489 494.851 344.406 494.451C342.636 491.844 341.026 489.134 339.613 486.31C339.51 486.105 339.401 485.889 339.298 485.685C339.106 485.296 340.113 484.687 340.284 485.044C340.387 485.248 340.49 485.453 340.593 485.658C341.999 488.471 343.592 491.178 345.354 493.775C346.242 492.308 347.081 490.766 347.389 489.058C347.573 488.017 347.487 486.957 347.387 485.92C347.294 484.894 347.169 483.889 346.882 482.914C346.855 482.826 346.828 482.738 346.801 482.65C346.686 482.287 347.686 481.713 347.846 482.167C347.917 482.393 347.981 482.608 348.041 482.84C348.549 484.713 348.73 486.919 348.41 488.771C348.143 490.288 347.453 491.687 346.686 493.015C348.217 491.748 349.606 490.333 350.578 488.555C351.768 486.393 352.355 483.975 352.741 481.551C352.76 481.418 352.786 481.295 352.805 481.162C352.866 480.791 353.907 480.326 353.82 480.865L353.785 480.858Z" fill="#3E84F6"/>
<path d="M340.654 481.409C340.103 481.42 339.758 481.749 339.549 482.217C339.292 481.751 338.935 481.364 338.463 481.173C338.177 481.057 337.834 481.295 337.645 481.493C337.386 481.767 337.295 482.068 337.301 482.38C336.797 482.301 336.268 482.508 336.052 483.011C335.756 483.717 336.513 484.673 336.974 485.128C337.661 485.813 338.53 486.199 339.494 486.312C339.725 486.343 340.125 486.052 340.279 485.802C340.47 485.723 340.654 485.588 340.725 485.466C341.059 484.797 342.205 481.382 340.654 481.409Z" fill="#FEDC65"/>
<path d="M348.385 479.84C348.385 479.84 348.351 479.741 348.334 479.692C348.165 479.199 347.843 478.819 347.303 479.034C346.715 479.266 346.41 479.796 346.329 480.391C345.616 479.874 344.823 479.605 344.094 480.411C343.084 481.55 346.143 482.775 346.952 482.929C347.88 483.729 350.02 480.8 349.76 479.912C349.568 479.268 348.835 479.533 348.378 479.829L348.385 479.84Z" fill="#FEDC65"/>
<path d="M355.22 478.492C354.99 478.581 354.765 478.697 354.563 478.828C354.745 477.971 354.706 477.121 353.831 477.493C353.341 477.691 353.003 478.122 352.786 478.625C352.302 478.019 351.678 477.685 350.979 478.305C349.862 479.303 352 481.037 352.766 481.565C352.877 481.644 353.049 481.607 353.222 481.525C353.697 481.745 354.445 481.108 354.777 480.877C355.351 480.459 356.51 479.781 356.537 478.964C356.578 478.168 355.72 478.288 355.23 478.485L355.22 478.492Z" fill="#FEDC65"/>
<path d="M331.513 486.383C330.898 486.782 330.788 487.472 330.899 488.2C330.254 487.88 329.612 487.845 329.12 488.481C328.585 489.191 329.212 489.9 330.034 490.422C329.946 490.449 329.869 490.469 329.787 490.507C329.41 490.646 328.209 491.05 328.398 491.666C328.608 492.36 330.157 492.167 330.661 492.036C331.689 491.761 332.528 491.079 333.219 490.284C333.42 490.153 333.58 489.958 333.551 489.796C333.345 488.783 333.051 487.797 332.648 486.852C332.399 486.26 332.139 485.976 331.531 486.386L331.513 486.383Z" fill="#FEDC65"/>
<path d="M327.639 492.355C326.834 492.788 326.852 493.652 327.15 494.529C326.461 494.328 325.766 494.372 325.272 494.889C324.54 495.667 325.368 496.291 326.35 496.664C326.258 496.708 326.155 496.76 326.071 496.815C325.569 497.111 324.596 497.773 325.04 498.48C325.822 499.753 328.92 497.996 329.289 497.032C329.308 496.99 329.308 496.944 329.287 496.912C329.604 496.842 330.001 496.524 329.962 496.278C329.795 495.255 329.505 494.251 329.045 493.312C328.734 492.67 328.444 491.923 327.628 492.362L327.639 492.355Z" fill="#FEDC65"/>
</g>
</g>
<defs>
<clipPath id="clip0_1156_2517">
<rect width="360" height="800" fill="white"/>
</clipPath>
</defs>
</svg>
