<svg width="19" height="17" viewBox="0 0 19 17" fill="none" xmlns="http://www.w3.org/2000/svg">
<path fill-rule="evenodd" clip-rule="evenodd" d="M7.5 16.2H11.5C14.309 16.2 15.7134 16.2 16.7223 15.5381C17.159 15.2516 17.534 14.8834 17.8259 14.4546C18.5 13.4641 18.5 12.0851 18.5 9.32724C18.5 6.56946 18.5 5.19049 17.8259 4.19994C17.534 3.77113 17.159 3.40294 16.7223 3.11641C16.074 2.69112 15.2624 2.53911 14.0198 2.48477C13.4268 2.48477 12.9163 2.04361 12.8 1.47272C12.6255 0.616401 11.8597 0 10.9703 0H8.02967C7.14024 0 6.37443 0.616401 6.2 1.47272C6.08371 2.04361 5.57316 2.48477 4.9802 2.48477C3.7376 2.53911 2.92599 2.69112 2.27772 3.11641C1.84096 3.40294 1.46595 3.77113 1.17412 4.19994C0.5 5.19049 0.5 6.56946 0.5 9.32724C0.5 12.0851 0.5 13.4641 1.17412 14.4546C1.46595 14.8834 1.84096 15.2516 2.27772 15.5381C3.28662 16.2 4.69107 16.2 7.5 16.2ZM9.5 5.64546C7.42893 5.64546 5.75 7.29387 5.75 9.32724C5.75 11.3607 7.42893 13.0091 9.5 13.0091C11.5711 13.0091 13.25 11.3607 13.25 9.32724C13.25 7.29387 11.5711 5.64546 9.5 5.64546ZM9.5 7.11819C8.25737 7.11819 7.25 8.1072 7.25 9.32724C7.25 10.5473 8.25737 11.5364 9.5 11.5364C10.7426 11.5364 11.75 10.5473 11.75 9.32724C11.75 8.1072 10.7426 7.11819 9.5 7.11819ZM13.75 6.38181C13.75 5.97514 14.0858 5.64546 14.5 5.64546H15.5C15.9142 5.64546 16.25 5.97514 16.25 6.38181C16.25 6.78852 15.9142 7.11819 15.5 7.11819H14.5C14.0858 7.11819 13.75 6.78852 13.75 6.38181Z" fill="#2970E4"/>
</svg>
