<svg width="23" height="20" viewBox="0 0 23 20" fill="none" xmlns="http://www.w3.org/2000/svg">
<rect x="5.2688" width="18" height="14.4" rx="1.99999" transform="rotate(17.2443 5.2688 0)" fill="#2970E4"/>
<path fill-rule="evenodd" clip-rule="evenodd" d="M16.6622 6.04976C15.7124 5.75495 14.7043 6.28545 14.4095 7.23525C14.1147 8.18505 14.6452 9.19313 15.595 9.48794C16.5448 9.78276 17.5529 9.25225 17.8477 8.30245C18.1425 7.35266 17.612 6.34458 16.6622 6.04976ZM15.1371 10.6717L17.5161 15.1908L20.207 6.52151L6.45429 2.25269L4.12219 9.76594L10.7282 6.28951L10.7377 6.30763L10.7548 6.29778L13.4989 11.5107L15.1096 10.6631L15.1193 10.6804L15.1371 10.6717ZM1.59287 11.8426C1.26543 12.8975 1.85516 14.0182 2.91007 14.3456L16.2808 18.4959C17.3357 18.8233 18.4563 18.2336 18.7838 17.1786L21.8668 7.24612C22.1942 6.1912 21.6045 5.07058 20.5496 4.74313L7.17889 0.59289C6.12398 0.265446 5.00335 0.855179 4.67591 1.91009L1.59287 11.8426Z" fill="white"/>
<rect y="5.34436" width="18" height="14.4" rx="1.99999" fill="#2970E4"/>
<path fill-rule="evenodd" clip-rule="evenodd" d="M12.6747 7.74465C11.6802 7.74465 10.8747 8.55015 10.8747 9.54465C10.8747 10.5392 11.6802 11.3447 12.6747 11.3447C13.6692 11.3447 14.4747 10.5392 14.4747 9.54465C14.4747 8.55015 13.6692 7.74465 12.6747 7.74465ZM12.5883 12.6109L16.2 16.2217V7.14436H1.8V15.0112L7.07849 9.73274L7.09291 9.74724L7.1064 9.73274L11.2725 13.8979L12.5595 12.6109L12.5739 12.6246L12.5883 12.6109ZM0 17.7444C0 18.8489 0.895427 19.7444 1.99999 19.7444H16C17.1046 19.7444 18 18.8489 18 17.7444V7.34435C18 6.23979 17.1046 5.34436 16 5.34436H1.99999C0.895427 5.34436 0 6.23979 0 7.34435V17.7444Z" fill="white"/>
</svg>
