<svg width="24" height="24" viewBox="0 0 24 24" fill="none" xmlns="http://www.w3.org/2000/svg">
<path fill-rule="evenodd" clip-rule="evenodd" d="M2.70711 1.29289C2.31658 0.902369 1.68342 0.902369 1.29289 1.29289C0.902369 1.68342 0.902369 2.31658 1.29289 2.70711L4.93435 6.34857C3.18714 7.65635 1.81306 9.43681 1 11.5C2.73 15.89 7 19 12 19C13.647 19 15.2149 18.6625 16.6388 18.053L21.2929 22.7071C21.6834 23.0976 22.3166 23.0976 22.7071 22.7071C23.0976 22.3166 23.0976 21.6834 22.7071 21.2929L2.70711 1.29289ZM14.4466 15.8609L12.9372 14.3514C12.6425 14.4479 12.3275 14.5 12 14.5C10.34 14.5 9 13.16 9 11.5C9 11.1725 9.05214 10.8575 9.1486 10.5628L7.63914 9.05335C7.23218 9.77674 7 10.6114 7 11.5C7 14.26 9.24 16.5 12 16.5C12.8886 16.5 13.7233 16.2678 14.4466 15.8609ZM11.9154 8.50116L14.9988 11.5846C14.9996 11.5565 15 11.5283 15 11.5C15 9.84 13.66 8.5 12 8.5C11.9717 8.5 11.9435 8.50039 11.9154 8.50116ZM17 11.5C17 12.1212 16.8865 12.7161 16.6792 13.265L19.6223 16.2081C21.1052 14.953 22.2754 13.3388 23 11.5C21.27 7.11 17 4 12 4C10.626 4 9.30705 4.23487 8.08083 4.66662L10.235 6.82081C10.7839 6.61347 11.3788 6.5 12 6.5C14.76 6.5 17 8.74 17 11.5Z" fill="#2970E4"/>
</svg>
