<svg width="21" height="20" viewBox="0 0 21 20" fill="none" xmlns="http://www.w3.org/2000/svg">
<path d="M19.25 17.8687L2.63125 1.25L1.75 2.13125L5.75 6.1375L4.875 9.85625C4.85295 9.94941 4.85259 10.0464 4.87396 10.1397C4.89532 10.233 4.93785 10.3202 4.99824 10.3945C5.05863 10.4688 5.13529 10.5282 5.22228 10.5682C5.30928 10.6081 5.4043 10.6276 5.5 10.625H8.51875L7.375 18.0312C7.35435 18.1685 7.38001 18.3088 7.44791 18.4299C7.51581 18.551 7.6221 18.646 7.75 18.7C7.82944 18.7323 7.91426 18.7492 8 18.75C8.09545 18.7498 8.18958 18.7277 8.27516 18.6854C8.36075 18.6432 8.43553 18.5819 8.49375 18.5063L12.6687 13.05L18.3687 18.75L19.25 17.8687Z" fill="#2970E4"/>
<path d="M14.5813 10.5437L16.6187 7.88123C16.6844 7.79242 16.7254 7.68779 16.7374 7.578C16.7495 7.46822 16.7323 7.35719 16.6875 7.25623C16.6405 7.1452 16.5624 7.05013 16.4626 6.98248C16.3628 6.91483 16.2455 6.8775 16.125 6.87498H13.1562L14.25 2.01248C14.2707 1.92024 14.2702 1.82451 14.2486 1.73249C14.2269 1.64047 14.1847 1.55456 14.125 1.48123C14.0649 1.40705 13.9885 1.34763 13.9019 1.30754C13.8152 1.26746 13.7205 1.24776 13.625 1.24998H7.375C7.23138 1.24614 7.09082 1.2919 6.97699 1.37955C6.86315 1.4672 6.78299 1.5914 6.75 1.73123L6.5625 2.54373L14.5813 10.5437Z" fill="#2970E4"/>
</svg>
