<svg width="20" height="20" viewBox="0 0 20 20" fill="none" xmlns="http://www.w3.org/2000/svg">
<path d="M1 15.5023V4.49779C1 2.96586 1 2.1999 1.48818 1.94867C1.97636 1.69744 2.59964 2.14266 3.84622 3.03307L5.26934 4.04959C5.82361 4.4455 6.10075 4.64345 6.25037 4.9342C6.4 5.22494 6.4 5.56552 6.4 6.24667V13.7535C6.4 14.4346 6.4 14.7752 6.25037 15.0659C6.10075 15.3566 5.82361 15.5546 5.26935 15.9506L3.84623 16.967C2.59964 17.8575 1.97636 18.3026 1.48818 18.0514C1 17.8002 1 17.0342 1 15.5023Z" fill="#2970E4" stroke="#2970E4" stroke-width="1.35"/>
<path d="M19.0001 15.5023V4.49779C19.0001 2.96586 19.0001 2.1999 18.5119 1.94867C18.0238 1.69744 17.4004 2.14266 16.1538 3.03307L14.7308 4.04959C14.1765 4.4455 13.8993 4.64345 13.7497 4.9342C13.6001 5.22494 13.6001 5.56552 13.6001 6.24667V13.7535C13.6001 14.4346 13.6001 14.7752 13.7497 15.0659C13.8993 15.3566 14.1765 15.5546 14.7308 15.9506L16.1538 16.967C17.4004 17.8575 18.0238 18.3026 18.5119 18.0514C19.0001 17.8002 19.0001 17.0342 19.0001 15.5023Z" fill="#2970E4" stroke="#2970E4" stroke-width="1.35"/>
<path opacity="0.8" d="M10 11.8V8.19995" stroke="#2970E4" stroke-width="1.35" stroke-linecap="round"/>
<path opacity="0.8" d="M10 4.6V1" stroke="#2970E4" stroke-width="1.35" stroke-linecap="round"/>
<path opacity="0.8" d="M10 19V15.4" stroke="#2970E4" stroke-width="1.35" stroke-linecap="round"/>
</svg>
