<svg width="20" height="20" viewBox="0 0 20 20" fill="none" xmlns="http://www.w3.org/2000/svg">
<mask id="mask0_39_361" style="mask-type:alpha" maskUnits="userSpaceOnUse" x="0" y="0" width="20" height="20">
<rect width="20" height="20" fill="#D9D9D9"/>
</mask>
<g mask="url(#mask0_39_361)">
<path d="M9.99992 13.3334C10.236 13.3334 10.4339 13.2536 10.5937 13.0938C10.7534 12.9341 10.8333 12.7362 10.8333 12.5001C10.8333 12.264 10.7534 12.0661 10.5937 11.9063C10.4339 11.7466 10.236 11.6667 9.99992 11.6667C9.76381 11.6667 9.56589 11.7466 9.40617 11.9063C9.24645 12.0661 9.16658 12.264 9.16658 12.5001C9.16658 12.7362 9.24645 12.9341 9.40617 13.0938C9.56589 13.2536 9.76381 13.3334 9.99992 13.3334ZM9.16658 10.0001H10.8333V5.83342H9.16658V10.0001ZM9.99992 18.3334C8.06936 17.8473 6.47561 16.7397 5.21867 15.0105C3.96172 13.2813 3.33325 11.3612 3.33325 9.25008V4.16675L9.99992 1.66675L16.6666 4.16675V9.25008C16.6666 11.3612 16.0381 13.2813 14.7812 15.0105C13.5242 16.7397 11.9305 17.8473 9.99992 18.3334ZM9.99992 16.5834C11.4444 16.1251 12.6388 15.2084 13.5833 13.8334C14.5277 12.4584 14.9999 10.9306 14.9999 9.25008V5.31258L9.99992 3.43758L4.99992 5.31258V9.25008C4.99992 10.9306 5.47214 12.4584 6.41659 13.8334C7.36103 15.2084 8.55547 16.1251 9.99992 16.5834Z" fill="#2970E4"/>
</g>
</svg>
