<svg width="360" height="800" viewBox="0 0 360 800" fill="none" xmlns="http://www.w3.org/2000/svg">
<g clip-path="url(#clip0_1216_2692)">
<rect width="360" height="800" fill="white"/>
<path opacity="0.4" d="M130.589 781.103C128.574 778.05 125.854 775.4 122.599 773.697C121.022 772.871 119.319 772.282 117.561 772C116.503 771.833 115.46 771.763 114.402 771.924C113.364 772.08 112.337 772.317 111.319 772.589C107.364 773.642 103.45 775.299 99.2832 775.173C96.5375 775.088 93.943 774.191 91.6305 772.72C86.8646 769.687 83.4438 764.987 79.5041 761.032C75.5543 757.067 70.3803 753.213 64.4455 754.251C61.2363 754.81 58.3093 756.407 55.4829 757.954C52.6214 759.515 49.7548 761.178 46.6211 762.135C43.7394 763.017 40.6058 763.233 37.8298 761.913C35.2554 760.689 33.2856 758.548 31.7389 756.195C29.9756 753.51 28.696 750.538 27.4113 747.606C26.0812 744.563 24.7059 741.58 23.0383 738.709C19.7183 733.011 14.1311 729.096 7.77318 727.489C2.72511 726.214 -2.67058 726.411 -7.5675 728.129V800.535H135.134C135.3 793.759 134.373 786.816 130.594 781.103H130.589Z" fill="#BCE5EB"/>
<path opacity="0.4" d="M276.389 781.975C273.416 775.506 266.645 767.994 258.715 770.785C255.259 772 252.373 774.393 249.309 776.322C246.735 777.944 243.697 779.481 240.584 778.63C233.823 776.781 233.777 767.979 230.281 763.133C228.12 760.135 224.669 758.095 220.981 757.737C219.187 757.566 217.374 757.787 215.681 758.417C214.185 758.976 212.729 759.546 211.373 760.402C206.129 763.707 202.789 769.173 197.892 772.896C195.675 774.579 193.106 775.778 190.284 775.839C186.969 775.909 184.062 774.564 181.488 772.574C178.692 770.413 176.294 767.732 173.291 765.833C170.324 763.959 166.903 763.072 163.407 763.596C156.238 764.669 150.041 770.372 147.925 777.219C145.567 784.851 147.038 792.993 149.391 800.54H280.5C280.399 798.857 280.233 797.179 279.991 795.517C279.331 790.947 278.313 786.197 276.379 781.98L276.389 781.975Z" fill="#FFC7CF"/>
<path opacity="0.4" d="M368.861 712.758C367.022 714.42 365.717 716.481 364.644 718.703C363.39 721.297 362.614 724.184 360.76 726.441C359.002 728.582 355.878 729.146 353.248 729.247C350.346 729.358 347.434 728.95 344.538 729.227C343.172 729.358 341.817 729.635 340.613 730.315C339.605 730.885 338.729 731.65 337.988 732.542C336.401 734.446 335.479 736.839 334.839 739.207C334.144 741.802 333.771 744.477 333.504 747.142C333.016 752.009 332.723 757.012 330.769 761.561C329.872 763.647 328.582 765.591 326.764 766.987C324.602 768.644 321.902 769.385 319.201 769.244C315.902 769.072 312.713 768.009 309.408 767.889C306.647 767.788 303.745 768.947 301.438 770.372C296.606 773.36 293.195 778.428 292.228 784.015C291.266 789.577 292.183 795.169 293.785 800.53H370.287V711.604C369.793 711.962 369.319 712.34 368.866 712.748L368.861 712.758Z" fill="#D1E0FF"/>
<path opacity="0.4" d="M289.996 731.932C289.86 731.433 289.694 730.945 289.493 730.461C287.316 725.766 282.792 722.481 277.815 721.297C275.351 720.808 272.797 721.005 270.348 721.499C264.892 722.677 260.383 726.93 258.166 731.962C255.925 737.419 255.522 743.928 258.121 749.323C259.512 752.084 261.819 754.402 264.64 755.681C268.328 757.253 272.53 757.873 276.449 756.845C278.52 756.341 280.56 755.56 282.319 754.336C284.969 752.346 287.261 749.797 288.656 746.769C289.961 743.938 290.762 740.88 291.009 737.771C291.196 735.776 290.833 733.746 290.002 731.932H289.996Z" fill="#FFEAC7"/>
<path opacity="0.4" d="M357.999 708.234C357.914 708.531 357.808 708.828 357.677 709.115C356.287 711.926 353.4 713.896 350.221 714.607C348.649 714.899 347.017 714.783 345.455 714.486C341.974 713.78 339.092 711.231 337.681 708.213C336.25 704.944 335.993 701.044 337.651 697.81C338.538 696.158 340.009 694.767 341.812 694.001C344.165 693.059 346.85 692.686 349.349 693.301C350.674 693.603 351.974 694.072 353.092 694.807C354.785 696.001 356.246 697.528 357.138 699.342C357.969 701.039 358.483 702.873 358.639 704.732C358.755 705.931 358.528 707.145 357.994 708.234H357.999Z" fill="#FFC7CF"/>
<path opacity="0.4" d="M25.5373 719.121C25.4516 719.418 25.3458 719.715 25.2148 720.002C23.8244 722.814 20.9376 724.783 17.7586 725.494C16.1868 725.786 14.5544 725.67 12.9927 725.373C9.51142 724.668 6.62969 722.118 5.21905 719.101C3.78826 715.831 3.53132 711.932 5.18882 708.697C6.07551 707.045 7.5466 705.654 9.3502 704.888C11.7029 703.946 14.3882 703.574 16.887 704.188C18.212 704.49 19.5118 704.959 20.6303 705.695C22.323 706.889 23.784 708.415 24.6758 710.229C25.507 711.927 26.0209 713.76 26.1771 715.619C26.293 716.818 26.0663 718.033 25.5322 719.121H25.5373Z" fill="#D1E0FF"/>
<path opacity="0.4" d="M122.947 750.089C122.861 750.387 122.755 750.684 122.624 750.971C121.234 753.782 118.347 755.752 115.168 756.462C113.596 756.755 111.964 756.639 110.402 756.341C106.921 755.636 104.039 753.087 102.628 750.069C101.198 746.799 100.941 742.9 102.598 739.666C103.485 738.013 104.956 736.623 106.76 735.857C109.112 734.915 111.798 734.542 114.296 735.157C115.621 735.459 116.921 735.928 118.04 736.663C119.732 737.857 121.193 739.384 122.085 741.197C122.916 742.895 123.43 744.729 123.587 746.588C123.702 747.787 123.476 749.001 122.942 750.089H122.947Z" fill="#BCE5EB"/>
<path opacity="0.4" d="M106.291 809.769C104.634 804.117 102.709 798.55 100.503 793.083C98.4774 787.743 96.6889 782.322 95.0365 776.856C93.5503 772.307 92.1648 767.727 90.865 763.118C90.7844 762.921 90.7491 762.689 90.5778 762.553C90.5778 762.538 90.5778 762.523 90.5728 762.508C90.2605 761.007 89.8272 759.515 89.2478 758.1C89.1672 757.933 89.0665 757.762 88.9203 757.651C88.9506 757.611 88.9808 757.561 89.001 757.5C90.0035 754.623 90.9456 751.696 91.1119 748.633C91.3033 745.248 91.0061 741.782 90.0136 738.527C88.2856 733.403 84.5272 728.884 79.4338 726.879C78.3506 726.37 70.3554 724.582 70.9095 726.864C71.0204 727.217 71.3277 727.449 71.5745 727.705C72.2093 728.365 72.3907 728.607 72.8542 729.363C73.4436 730.28 73.7913 731.565 73.892 732.436C74.1288 734.033 73.9374 735.021 73.3882 736.522C72.6577 738.724 70.3251 741.036 69.1613 743.469C67.3729 746.971 68.7885 751.177 70.834 754.256C72.0128 756.084 73.5545 757.656 75.3178 758.926C76.1793 759.49 77.1163 760.185 78.129 760.462C78.1088 760.503 78.0836 760.543 78.0685 760.588C78.0232 761.269 78.2952 761.949 78.3909 762.619C78.6025 763.475 78.7638 764.367 79.1013 765.178C79.1013 765.198 79.0862 765.213 79.0811 765.233C79.0811 765.264 79.0761 765.294 79.0761 765.324V765.334C79.0761 765.359 79.0761 765.39 79.0912 765.415C80.3961 771.783 80.8999 777.808 81.5598 784.388C82.3307 791.083 83.1418 797.779 83.7161 804.495C84.2904 810.671 84.9151 816.878 86.3812 822.918C87.545 827.785 89.3536 832.763 93.2278 836.133C95.8627 838.602 99.5001 840.033 103.032 838.697C104.382 838.214 105.546 837.357 106.407 836.209C107.153 835.302 107.858 834.35 108.286 833.251C111.355 825.8 108.483 817.089 106.281 809.754L106.291 809.769ZM85.0361 731.887C89.4493 736.532 90.7391 743.137 90.074 749.742C89.8927 751.817 88.9959 754.714 88.1647 757.062C88.074 757.223 88.0639 757.379 88.1092 757.51C88.0185 757.52 87.9279 757.535 87.8372 757.551C87.7062 757.571 87.5752 757.601 87.4442 757.626C87.4341 757.535 87.3938 757.435 87.3082 757.339C86.4366 756.19 86.0487 753.868 86.2401 751.807C86.5475 749.611 87.686 746.406 87.6357 743.711C87.7818 739.479 86.2754 735.237 83.3886 732.124C81.7563 730.366 79.6555 729.126 77.5244 728.063C76.5168 727.564 75.4689 727.151 74.4059 726.784C75.5797 726.899 76.8997 727.106 77.867 727.368C80.5623 728.114 83.0662 729.726 85.0361 731.897V731.887ZM75.8921 728.91C79.2827 731.323 81.6153 735.439 81.3331 739.913C81.2878 741.409 80.5724 743.424 79.9477 744.779C79.4137 746.034 78.668 747.233 78.4212 748.593C78.1693 751.157 79.2776 753.712 80.7387 755.767C81.5498 756.825 82.4717 757.913 83.6153 758.609C83.303 758.694 82.9906 758.775 82.6732 758.845C82.1442 758.956 81.6102 759.077 81.0863 759.208C77.2272 755.777 71.8365 751.908 73.1917 747.152C73.8568 744.961 75.877 742.895 76.8191 740.442C78.8897 735.817 77.8267 731.58 74.7535 728.189C75.1465 728.416 75.5294 728.648 75.8971 728.905L75.8921 728.91ZM79.328 749.883C79.1063 748.291 79.8671 747.243 80.5825 745.605C81.5347 743.56 82.3407 741.368 82.2702 739.081C82.2702 735.308 80.4868 731.706 77.7108 729.197C78.2448 729.474 78.7789 729.771 79.333 730.109C84.9051 733.262 87.5399 739.61 86.4971 746.16C86.1646 748.331 84.8144 751.858 85.3837 754.583C85.5902 755.697 85.822 756.901 86.5122 757.828C85.8572 757.989 85.2023 758.17 84.5524 758.352C84.5474 758.21 84.4819 758.074 84.3358 757.994C81.7664 756.407 79.5547 752.744 79.328 749.883ZM78.663 759.666C73.4839 757.838 68.451 751.006 69.3981 745.525C70.0531 742.406 73.3479 739.827 74.3908 736.467C75.5344 733.434 74.7334 729.806 72.5721 727.418C72.5066 727.343 72.436 727.267 72.3655 727.192C72.4663 727.267 72.567 727.343 72.6476 727.428C73.2723 727.967 73.8618 728.547 74.3958 729.172C77.474 732.869 77.6957 736.734 75.5092 741.061C74.8543 742.452 73.8618 743.646 73.1162 744.986C71.4839 747.857 71.766 750.462 73.6049 753.157C75.3681 755.555 77.6604 757.5 79.9074 759.425C79.9427 759.45 79.9779 759.475 80.0132 759.505C79.7109 759.601 79.4137 759.702 79.1215 759.813C79.061 759.838 78.9955 759.868 78.93 759.893C78.8796 759.787 78.7889 759.702 78.6529 759.672L78.663 759.666ZM79.0207 761.027C79.0157 760.997 79.0056 760.936 78.9955 760.886C79.6202 760.508 82.0385 759.903 83.4844 759.611C85.0008 759.208 86.4971 758.724 88.0488 758.447C88.0992 758.437 88.1495 758.432 88.1999 758.422C88.2453 758.417 88.3057 758.412 88.3561 758.407C88.7138 759.047 88.9707 760.105 89.278 761.067C89.3889 761.455 89.4846 761.843 89.5753 762.236C89.4241 762.271 89.273 762.342 89.1219 762.372C86.3308 763.208 83.4995 763.873 80.6732 764.568C80.4716 764.649 80.1945 764.684 79.9275 764.735C79.5295 763.526 79.2726 762.276 79.0308 761.027H79.0207ZM108.024 831.377C107.611 832.894 106.694 834.511 105.793 835.539C104.981 836.506 104.463 837.075 103.42 837.544C99.0064 839.786 94.3311 836.803 91.3436 832.652C91.3436 832.652 91.3436 832.652 91.3537 832.652C93.1573 832.264 94.9861 832.012 96.7897 831.639C97.092 831.579 97.5303 831.554 97.5605 831.166C97.621 830.662 97.092 830.566 96.7141 830.712C94.8148 831.151 92.8097 831.292 90.9507 831.841C90.9104 831.871 90.8852 831.901 90.8549 831.936C90.336 831.135 89.8725 830.304 89.4947 829.463C89.0765 828.475 88.6987 827.453 88.3561 826.41C88.4468 826.455 88.5576 826.475 88.6684 826.44C92.6585 825.629 96.7796 825.327 100.729 824.379C101.132 824.102 100.795 823.422 100.326 823.568C96.7746 824.259 93.1825 824.727 89.6106 825.322C89.1622 825.448 88.4518 825.372 88.1495 825.755C87.5802 823.936 87.1117 822.047 86.7187 820.127C86.7943 820.153 86.88 820.158 86.9706 820.127C90.0489 819.402 93.2026 819.044 96.3161 818.49C97.3338 818.329 98.3565 818.173 99.3792 818.027C99.4951 817.996 99.5959 817.916 99.6563 817.815C99.9082 817.22 99.3339 817.019 98.8401 817.175C95.0969 817.734 91.3638 818.344 87.6407 819.009C87.3031 819.115 86.8548 819.105 86.5676 819.331C86.2502 817.679 85.9782 816.011 85.7464 814.344C85.7766 814.344 85.8069 814.344 85.8421 814.334C88.2956 813.845 90.1849 813.684 92.6888 813.356C93.3084 813.266 93.9483 813.23 94.5579 813.099C94.6133 813.079 94.6637 813.049 94.709 813.004C94.9206 812.797 94.8702 812.419 94.6133 812.273C94.2908 812.127 93.908 812.313 93.5654 812.319C90.9305 812.717 88.2049 812.832 85.6305 813.477C85.3988 811.704 85.2023 809.941 85.0209 808.213C88.1243 807.578 91.2529 807.099 94.3715 806.53C95.1826 806.394 95.9886 806.258 96.7998 806.122C97.1927 806.127 97.5605 805.794 97.3439 805.396C97.0013 804.898 96.1146 805.391 95.6058 805.386C94.0289 805.648 92.457 805.925 90.8902 806.207C88.9203 806.6 86.8749 806.807 84.9353 807.311C84.9252 807.2 84.9151 807.089 84.9 806.983C84.7237 804.988 84.5373 802.993 84.3408 801.003C87.545 800.363 91.3638 799.668 94.1296 799.285C94.4319 799.184 94.5075 798.746 94.2808 798.535C94.0944 798.338 93.8324 798.414 93.5956 798.444C90.4569 798.852 87.3535 799.492 84.2451 800.076C84.0688 798.338 83.8924 796.6 83.706 794.867C83.7111 794.867 83.7161 794.867 83.7262 794.867C85.9882 794.398 88.2553 793.95 90.5325 793.552C90.9557 793.411 91.7265 793.572 91.8273 793.003C91.8776 792.408 91.2731 792.449 90.86 792.56C90.2403 792.665 89.6257 792.771 89.011 792.882C87.2276 793.265 85.3736 793.502 83.6153 793.975C83.4491 792.449 83.2728 790.917 83.0964 789.391C85.1167 789.013 87.0966 788.428 89.0916 787.95C89.7567 787.799 90.4217 787.658 91.0867 787.522C91.2026 787.491 91.3033 787.411 91.3638 787.31C91.5199 787.058 91.3738 786.705 91.0867 786.63C90.7491 786.584 90.4116 786.746 90.0791 786.786C87.6961 787.275 85.3686 788.005 82.9856 788.474C82.8596 787.396 82.7337 786.312 82.6027 785.234C82.5574 784.771 82.512 784.312 82.4616 783.849C84.2199 783.501 85.963 783.093 87.7163 782.71C87.943 782.685 88.1898 782.544 88.1999 782.292C88.2301 781.587 87.5097 781.788 87.0664 781.904C86.0437 782.131 85.0209 782.363 83.9982 782.589C83.4592 782.705 82.9151 782.816 82.371 782.922C82.2501 781.713 82.1291 780.504 82.0082 779.294C84.0587 778.665 86.1293 778.09 88.1949 777.521C88.7591 777.365 89.3284 777.214 89.8927 777.063C90.0086 777.032 90.1093 776.952 90.1698 776.851C90.3259 776.599 90.1798 776.247 89.8927 776.171C89.5551 776.121 89.2277 776.312 88.9002 776.372C86.5626 777.007 84.2249 777.657 81.9075 778.362C81.7513 776.881 81.5901 775.4 81.4037 773.919C81.4037 773.919 81.4087 773.919 81.4137 773.919C83.0763 773.632 84.6733 773.017 86.3157 772.619C86.7339 772.433 87.5047 772.539 87.6105 771.984C87.676 771.501 87.1319 771.365 86.7691 771.541C86.1192 771.707 85.4744 771.879 84.8295 772.065C83.6708 772.387 82.1039 772.866 81.2878 773.022C81.1669 772.095 81.0409 771.168 80.8999 770.246C80.9654 770.256 81.0308 770.261 81.0963 770.236C82.5422 769.828 83.9982 769.445 85.4592 769.093C85.6305 769.047 85.7817 768.886 85.7918 768.705C85.8169 767.858 84.8396 768.307 84.361 768.402C83.6556 768.574 82.9554 768.755 82.2601 768.946C81.7916 769.072 81.318 769.203 80.8495 769.334C80.8193 769.344 80.789 769.365 80.7638 769.38C80.5674 768.14 80.3558 766.906 80.1139 765.677C82.643 765.077 85.1721 764.468 87.681 763.783C88.4165 763.581 89.1471 763.369 89.8725 763.148C89.9028 763.138 89.9279 763.123 89.9531 763.107C91.0615 767.45 92.4721 771.783 93.8324 776.075C95.4849 781.446 97.1776 786.806 99.1525 792.071C101.415 797.844 103.576 803.643 105.289 809.608C107.49 816.838 109.934 824.289 108.05 831.407L108.024 831.377Z" fill="#005066"/>
<path opacity="0.4" d="M151.033 763.939C150.867 762.13 150.373 760.357 149.693 758.674C149.27 757.606 148.791 756.548 148.126 755.606C147.88 755.273 147.597 754.759 147.109 754.865C146.791 754.936 146.691 755.263 146.676 755.555C146.665 756.744 146.288 758.397 145.844 759.309C145.144 760.83 144.036 762.105 143.093 763.47C141.572 765.642 141.144 768.957 143.028 771.012C142.983 771.062 142.947 771.118 142.927 771.188C142.615 773.889 141.844 777.34 141.28 780.408C140.368 785.824 139.129 791.169 137.849 796.504C136.917 800.716 135.919 804.913 135.073 809.145C134.398 812.686 133.834 816.314 134.317 819.916C134.579 821.699 135.234 824.863 137.486 824.878C142.852 824.677 143.073 809.064 143.638 804.867C144.454 796.645 145.26 789.013 146.494 780.967C146.937 777.975 147.386 774.972 147.779 771.974C147.839 771.944 147.895 771.904 147.945 771.858C148.318 771.571 148.63 771.209 148.922 770.841C150.444 768.921 151.154 766.372 151.028 763.939H151.033ZM143.179 765.228C143.713 763.878 145.648 761.803 146.489 760.105C146.902 759.304 147.179 758.442 147.361 757.561C147.401 757.777 147.441 757.994 147.471 758.211C147.698 759.616 147.21 762.271 146.444 763.712C145.497 765.672 143.925 767.672 144.479 769.974C144.56 770.246 144.615 770.544 144.696 770.831C144.474 770.795 144.242 770.76 143.995 770.715C143.975 770.674 143.955 770.634 143.915 770.594C142.549 769.279 142.368 767.244 143.189 765.228H143.179ZM146.67 773.294C146.363 775.466 146.076 777.642 145.733 779.813C144.489 787.864 143.587 795.955 142.791 804.061C142.182 809.089 141.799 823.881 137.33 823.941C136.418 823.941 135.632 822.183 135.32 820.379C134.428 814.893 136.096 808.787 137.355 802.943C139.058 795.154 141.063 787.431 142.378 779.556C142.862 777.027 143.547 773.778 143.799 771.607C144.847 771.828 145.985 771.934 146.852 772.05C146.791 772.463 146.731 772.876 146.665 773.294H146.67ZM150.081 765.516C149.779 767.385 149.371 768.73 148.298 770.156C148.293 770.161 148.288 770.171 148.283 770.176C148.268 770.196 148.157 770.337 148.116 770.382C147.92 770.669 147.285 771.229 147.33 771.178C147.25 771.168 147.169 771.163 147.094 771.148C146.58 771.088 146.152 771.037 145.749 770.977C144.786 768.705 145.507 767.344 146.922 764.81C148.066 762.714 148.696 760.251 148.358 757.863C149.391 760.049 150.394 763.475 150.091 765.506L150.081 765.516Z" fill="#005066"/>
<path opacity="0.4" d="M160.923 760.034C160.354 759.772 159.684 759.868 159.069 759.767C157.492 759.616 155.921 759.465 154.344 759.329C153.558 759.294 152.611 759.198 151.971 759.737C151.512 760.19 151.82 760.865 151.875 761.42C152.172 763.178 152.49 764.931 152.817 766.684C153.195 768.473 153.553 770.297 154.016 772.05C154.031 772.075 154.056 772.085 154.072 772.105C154.072 772.559 154.203 773.022 154.273 773.471C154.354 773.738 154.339 774.085 154.575 774.267C154.56 774.312 154.55 774.362 154.55 774.418C154.233 783.572 153.099 792.66 152.097 801.754C151.568 805.991 150.978 810.223 150.777 814.49C150.696 816.757 150.495 819.1 151.16 821.301C151.92 823.795 154.283 824.208 155.704 821.951C157.084 819.87 157.336 817.331 157.548 814.908C157.825 811.583 157.86 808.248 158.067 804.918C158.485 795.084 159.296 785.214 158.48 775.38C158.445 774.987 158.465 774.529 158.354 774.151C158.374 774.1 158.389 774.04 158.394 773.979C158.555 773.214 158.913 772.186 158.525 771.445C158.581 771.39 158.626 771.329 158.646 771.249C158.777 770.599 158.958 769.959 159.135 769.319C159.674 767.294 160.294 765.294 160.878 763.284C161.079 762.583 161.281 761.873 161.311 761.143C161.352 760.74 161.271 760.276 160.918 760.034H160.923ZM157.427 760.548C157.261 762.674 157.235 764.815 156.953 766.936C156.792 768.286 156.727 769.642 156.641 770.997C156.641 771.022 156.641 771.047 156.636 771.067C156.5 771.067 156.364 771.067 156.223 771.067C155.946 767.914 155.568 764.77 155.175 761.626C155.125 761.188 155.079 760.745 155.039 760.301C155.825 760.372 156.656 760.483 157.422 760.548H157.427ZM156.994 771.979C157.12 771.969 157.568 771.984 157.764 771.989C157.8 772.181 157.764 772.468 157.714 772.841C157.704 773.037 157.633 773.254 157.568 773.471C156.797 773.329 156.006 773.395 155.235 773.471C155.145 773.057 155.044 772.458 155.009 772.201C155.356 771.979 156.077 771.994 157.004 771.974L156.994 771.979ZM152.661 760.372C152.661 760.372 152.691 760.357 152.701 760.352C152.711 760.352 152.726 760.342 152.757 760.331C153.14 760.241 153.608 760.226 154.112 760.241C154.344 762.745 154.727 765.228 154.968 767.732C155.089 768.866 155.2 769.999 155.301 771.133C155.109 771.168 154.923 771.213 154.757 771.279C153.996 767.803 152.988 762.946 152.661 760.362V760.372ZM157.104 805.663C156.908 808.983 156.883 812.308 156.56 815.623C156.419 817.714 155.855 820.369 154.676 821.815C153.497 823.125 152.449 822.495 151.971 820.742C151.497 819.059 151.623 816.984 151.689 814.938C151.865 811.029 152.334 807.139 152.847 803.26C153.658 796.252 154.47 789.239 155.054 782.206C155.261 779.612 155.341 777.012 155.482 774.413C155.482 774.398 155.477 774.387 155.477 774.377C155.598 774.362 155.724 774.337 155.84 774.342C156.439 774.317 157.155 774.292 157.402 774.377C157.427 774.382 157.452 774.392 157.482 774.403C157.442 774.382 157.402 774.352 157.472 774.398C157.472 774.398 157.477 774.398 157.482 774.403C157.533 774.715 157.553 775.531 157.598 776.045C158.364 785.904 157.513 795.799 157.099 805.658L157.104 805.663ZM160.218 762.206C159.623 764.407 158.908 766.574 158.329 768.775C158.142 769.531 157.87 770.287 157.775 771.052C157.704 771.052 157.639 771.052 157.568 771.052C157.775 767.576 158.213 764.125 158.349 760.644C158.349 760.639 158.349 760.634 158.349 760.624C159.074 760.694 159.976 760.75 160.379 760.82C160.455 761.087 160.354 761.606 160.218 762.206Z" fill="#005066"/>
<g opacity="0.4">
<path d="M141.003 762.211C140.882 761.969 140.656 761.818 140.394 761.762C139.603 761.571 138.817 761.369 138.016 761.228C135.95 760.81 133.879 760.281 131.753 760.372C131.35 760.407 130.887 760.538 130.685 760.916C130.574 761.203 130.433 761.641 130.297 762.049C130.257 761.913 130.222 761.777 130.171 761.641C129.622 759.913 129.129 760.231 127.567 760.12C127.129 760.13 126.443 760.054 126.287 760.578C126.363 761.541 126.942 762.74 127.174 763.727C127.97 766.332 128.574 769.072 129.884 771.465C129.874 771.506 129.869 771.546 129.869 771.586C128.816 780.448 126.408 790.418 124.559 799.613C123.647 804.716 122.227 809.759 121.909 814.948C121.808 816.787 122.06 821.422 124.947 819.835C128.131 817.422 128.217 808.49 128.741 804.555C129.602 796.398 131.844 787.537 133.764 779.153C134.232 776.846 134.736 774.529 135.038 772.196C135.114 772.13 135.159 772.03 135.174 771.929C135.416 771.667 135.577 771.324 135.779 771.032C136.283 770.216 136.827 769.42 137.396 768.649C138.383 767.319 139.325 765.954 140.222 764.558C140.61 763.863 141.3 763.057 141.008 762.216L141.003 762.211ZM132.957 761.873C132.957 761.692 133.003 761.49 132.978 761.309C133.864 761.369 134.917 761.541 136 761.747C135.084 764.946 133.759 768.04 132.867 771.229C132.539 771.209 132.207 771.193 131.905 771.178C131.955 770.926 131.95 770.654 131.995 770.402C132.272 767.319 132.665 764.891 132.957 761.868V761.873ZM127.985 763.213C127.763 762.493 127.537 761.772 127.315 761.047C127.763 761.047 128.625 761.097 128.917 761.133C129.265 761.667 129.38 762.226 129.617 763.047C129.703 763.304 129.703 763.606 129.889 763.818C130.061 763.984 130.353 764.009 130.534 763.848C131.023 763.238 131.199 762.13 131.486 761.369C131.507 761.359 131.527 761.349 131.547 761.339C131.703 761.314 131.879 761.299 132.066 761.294C132.066 761.319 132.056 761.344 132.056 761.369C131.829 764.463 131.35 767.002 131.088 770.186C131.098 770.478 130.967 770.81 130.983 771.108C130.927 771.103 130.867 771.098 130.821 771.088C130.771 771.072 130.726 771.078 130.68 771.078C129.461 768.629 128.826 766.045 127.99 763.208L127.985 763.213ZM132.595 780.116C130.746 787.975 128.826 795.839 127.879 803.87C127.295 808.384 127.209 816.727 124.423 819.064C124.045 819.291 123.829 819.246 123.597 819.14C123.587 819.14 123.582 819.13 123.572 819.125C123.587 819.145 123.577 819.145 123.536 819.105C123.536 819.105 123.526 819.1 123.526 819.095C123.526 819.095 123.526 819.095 123.531 819.095C123.531 819.095 123.526 819.095 123.521 819.085C122.831 817.896 122.761 816.465 122.836 814.787C122.972 811.986 123.531 809.412 124.136 806.459C124.796 803.154 125.431 799.844 126.131 796.55C127.446 790.066 128.983 783.627 130.005 777.093C131.068 777.204 132.136 777.234 133.199 777.259C133.008 778.216 132.806 779.169 132.595 780.121V780.116ZM133.376 776.337C133.154 776.292 132.897 776.337 132.675 776.312C131.829 776.302 130.983 776.252 130.141 776.171C130.222 775.647 130.302 775.123 130.373 774.594C130.383 774.523 130.393 774.453 130.403 774.387C131.421 774.579 132.469 774.579 133.497 774.66C133.562 774.67 133.628 774.675 133.698 774.68C133.597 775.234 133.486 775.788 133.381 776.342L133.376 776.337ZM133.859 773.748C133.668 773.722 133.451 773.738 133.28 773.712C132.444 773.677 131.048 773.581 130.64 773.506C130.605 773.491 130.575 773.481 130.539 773.471C130.61 772.982 130.675 772.498 130.741 772.01C131.643 772.125 132.559 772.125 133.466 772.196C133.678 772.196 133.895 772.226 134.106 772.256C134.031 772.755 133.945 773.254 133.859 773.753V773.748ZM139.532 763.898C138.731 765.158 137.895 766.402 137.008 767.606C136.121 768.775 135.32 769.999 134.539 771.239C134.514 771.274 134.489 771.309 134.464 771.345C134.267 771.329 134.066 771.334 133.884 771.299C133.849 771.299 133.814 771.294 133.779 771.289C134.766 768.166 135.975 765.118 136.897 761.969C136.902 761.959 136.907 761.944 136.912 761.934C137.844 762.13 138.766 762.337 139.598 762.523C139.779 762.568 139.965 762.609 140.142 762.659C140.096 762.966 139.854 763.334 139.527 763.893L139.532 763.898Z" fill="#005066"/>
</g>
<g opacity="0.4">
<path d="M229.702 765.511C229.843 765.173 229.561 764.679 229.531 764.322C229.213 762.992 228.886 761.662 228.593 760.327C227.495 755.379 226.019 750.492 224.064 745.812C223.697 745.041 222.85 743.434 221.893 744.432C220.029 746.522 218.195 748.643 216.396 750.79C213.726 753.964 210.991 757.082 208.522 760.417C208.467 760.468 208.426 760.523 208.391 760.578C208.265 760.619 208.159 760.704 208.114 760.845C206.809 767.234 205.872 773.697 204.608 780.096C202.073 793.738 199.655 807.407 197.786 821.155C197.771 821.271 197.811 821.372 197.872 821.458C197.736 822.118 197.499 822.898 197.61 823.573C197.529 823.639 197.474 823.735 197.459 823.871C197.207 825.926 197.076 828.012 197.323 830.078C197.469 831.609 197.902 833.161 198.91 834.355C200.96 836.798 204.713 838.446 207.907 838.143C212.215 837.675 214.87 834.924 216.23 830.954C216.759 829.589 217.142 828.173 217.46 826.747C217.485 826.47 217.646 826.103 217.631 825.8C217.868 825.307 218.029 824.767 218.16 824.233C218.18 823.987 218.321 823.649 218.387 823.332C218.553 823.221 218.608 823.06 218.588 822.908C218.598 822.893 218.613 822.883 218.623 822.868C218.926 821.916 219.057 820.898 219.288 819.921C221.495 808.444 224.115 797.053 226.241 785.562C227.334 779.944 228.785 774.393 229.717 768.745C229.747 768.095 230.367 765.969 229.712 765.501L229.702 765.511ZM222.533 745.102C223.127 745.787 223.46 746.774 223.898 747.847C224.377 749.112 224.815 750.351 225.228 751.591C225.178 751.591 225.122 751.581 225.072 751.571C222.815 751.198 219.958 750.714 217.963 750.351C219.54 748.523 221.087 746.754 222.533 745.102ZM215.993 828.747C214.668 833.287 212.744 836.451 208.22 837.176C205.399 837.629 202.003 836.204 200.028 834.234C198.562 832.738 198.295 831.13 198.139 828.833C198.068 827.876 198.144 826.113 198.3 824.657C198.93 825.155 199.741 825.387 200.497 825.629C201.927 826.052 203.398 826.314 204.88 826.516C207.948 826.919 211.001 827.604 214.109 827.634C214.87 827.614 215.711 827.664 216.386 827.286C216.276 827.745 216.135 828.254 215.993 828.753V828.747ZM217.092 824.596C216.805 825.579 216.371 826.213 215.893 826.496C213.903 827.09 210.24 826.344 207.469 825.956C204.557 825.483 202.094 825.342 199.459 824.269C198.748 823.946 198.466 823.639 198.512 823.261C198.532 822.838 198.648 822.183 198.703 821.931C202.179 822.254 205.666 822.455 209.137 822.828C211.394 823.095 213.656 823.362 215.933 823.427C216.407 823.417 216.905 823.473 217.389 823.468C217.313 823.805 217.248 824.062 217.097 824.591L217.092 824.596ZM228.845 768.251C228.064 773.189 226.845 778.04 225.828 782.927C224.346 790.368 222.916 797.819 221.339 805.245C220.104 810.984 218.895 816.767 217.837 822.516C213.172 822.611 207.328 821.548 202.24 821.311C201.071 821.211 199.907 821.11 198.738 821.009C198.91 819.81 199.091 818.616 199.257 817.417C199.685 814.364 200.124 811.306 200.602 808.258C202.522 796.192 204.799 784.186 206.996 772.166C207.52 769.067 208.054 765.974 208.618 762.886C208.668 762.614 208.709 762.387 208.754 762.175C209.469 763.813 210.119 765.49 210.981 767.047C211.782 767.853 212.749 766.71 213.354 766.181C214.462 765.123 215.475 763.974 216.533 762.871C216.588 762.815 216.628 762.78 216.658 762.75C216.895 763.138 217.021 763.647 217.198 764.281C217.439 765.284 217.621 766.307 217.863 767.309C218.009 767.863 218.13 768.71 218.845 768.755C219.238 768.795 219.591 768.533 219.893 768.312C220.578 767.773 221.178 767.133 221.747 766.473C222.367 765.793 222.901 765.002 223.399 764.548C223.651 764.891 224.336 767.224 224.78 768.649C225.535 770.816 227.908 767.949 229.042 766.775C229.002 767.269 228.926 767.758 228.85 768.246L228.845 768.251ZM227.616 766.946C226.986 767.591 226.281 768.236 225.752 768.483C225.737 768.493 225.727 768.498 225.712 768.503C225.692 768.458 225.661 768.397 225.651 768.367C225.374 767.601 225.037 766.307 224.659 765.198C224.482 764.705 224.326 764.155 223.918 763.798C222.835 762.956 221.908 765.057 221.218 765.672C220.623 766.372 219.651 767.45 218.981 767.813C218.981 767.813 218.976 767.813 218.971 767.813C218.689 767.088 218.457 765.596 218.195 764.498C217.933 763.48 217.434 760.704 215.958 762.14C214.699 763.43 212.396 766.065 211.641 766.372C211.318 765.763 210.623 764.11 210.185 763.153C209.862 762.442 209.555 761.722 209.243 761.007C211.706 757.747 214.512 754.372 217.268 751.162C219.167 751.571 221.102 751.797 223.006 752.175C223.838 752.326 224.669 752.492 225.51 752.548C225.52 752.548 225.53 752.548 225.535 752.548C226.377 755.173 227.092 757.823 227.717 760.704C228.044 762.186 228.412 763.662 228.76 765.138C228.775 765.314 228.835 765.496 228.936 765.627C228.427 765.954 228.07 766.569 227.611 766.951L227.616 766.946Z" fill="#005066"/>
<path d="M205.167 790.151C204.063 798.056 202.587 805.9 201.519 813.805C201.348 815.155 201.116 816.767 200.93 817.739C200.92 818.228 201.67 818.349 201.826 817.881C202.426 814.853 202.668 811.759 203.192 808.716C204.179 802.56 205.212 796.409 206.099 790.237C206.154 789.648 205.237 789.537 205.177 790.151H205.167Z" fill="#005066"/>
<path d="M208.124 772.861C207.585 776.106 207.121 779.365 206.542 782.6C206.371 783.652 206.174 784.705 206.013 785.758C206.003 785.884 206.043 786.01 206.124 786.101C206.371 786.408 206.915 786.242 206.94 785.844C207.64 781.491 208.492 777.123 209.031 772.76C208.91 772.287 208.159 772.367 208.129 772.856L208.124 772.861Z" fill="#005066"/>
<path d="M208.673 795.557C208.401 795.391 208.018 795.608 207.998 795.92C207.857 796.817 207.721 797.708 207.565 798.6C207.449 799.215 207.363 799.834 207.288 800.454C207.278 800.575 207.318 800.706 207.399 800.797C207.645 801.109 208.19 800.938 208.215 800.54C208.351 799.356 208.593 798.182 208.769 797.003C208.769 796.545 209.177 795.849 208.678 795.552L208.673 795.557Z" fill="#005066"/>
<path d="M212.316 771.45C211.449 776.347 210.457 781.219 209.676 786.131C209.414 787.542 209.182 788.574 208.9 789.763C208.89 790.252 209.64 790.373 209.797 789.905C210.653 786.635 211.056 783.259 211.676 779.939C212.134 777.073 212.905 774.221 213.212 771.35C213.092 770.881 212.341 770.957 212.311 771.445L212.316 771.45Z" fill="#005066"/>
<path d="M214.643 793.91C214.396 793.602 213.852 793.769 213.827 794.167C212.719 801.074 211.464 807.961 210.285 814.858C210.079 816.112 209.882 817.367 209.656 818.616C209.605 818.787 209.61 818.979 209.731 819.115C209.978 819.422 210.522 819.256 210.547 818.858C211.5 813.044 212.573 807.25 213.555 801.441C213.852 799.638 214.165 797.834 214.452 796.026C214.547 795.436 214.648 794.847 214.749 794.257C214.759 794.131 214.719 794.01 214.638 793.915L214.643 793.91Z" fill="#005066"/>
<path d="M216.633 782.846C215.878 782.539 215.913 783.602 215.797 784.071C215.545 785.486 215.208 786.942 215.001 788.025C214.991 788.519 215.742 788.63 215.898 788.166C216.195 786.902 216.437 785.622 216.689 784.348C216.699 783.874 217.157 783.159 216.638 782.846H216.633Z" fill="#005066"/>
<path d="M218.507 772C218.039 771.959 217.978 772.463 217.933 772.816C217.797 773.602 217.691 774.247 217.555 774.745C217.349 775.315 218.215 775.632 218.427 775.068C218.623 774.337 218.739 773.592 218.87 772.846C218.976 772.503 218.961 772.045 218.512 772H218.507Z" fill="#005066"/>
<path d="M218.341 796.444C217.303 802.872 215.832 809.22 214.527 815.593C214.301 816.702 214.084 817.805 213.862 818.913C213.852 819.039 213.892 819.16 213.973 819.256C214.22 819.563 214.764 819.397 214.789 818.999C216.24 811.502 218.049 804.071 219.268 796.53C219.323 795.935 218.407 795.834 218.346 796.444H218.341Z" fill="#005066"/>
<path d="M222.094 781.587C221.974 781.315 221.596 781.239 221.374 781.436C221.132 781.693 221.162 782.101 221.052 782.423C220.492 784.831 220.019 787.26 219.5 789.673C219.444 790.272 220.361 790.363 220.422 789.758C220.86 787.748 221.238 785.728 221.701 783.723C221.858 782.977 221.913 782.761 222.11 781.945C222.155 781.829 222.145 781.698 222.094 781.582V781.587Z" fill="#005066"/>
<path d="M223.681 772.292C223.48 772.327 223.319 772.503 223.298 772.705C223.097 773.597 223.031 774.04 222.83 774.75C222.623 775.32 223.49 775.637 223.701 775.073C223.873 774.483 223.984 773.879 224.12 773.279C224.256 772.831 224.331 772.256 223.681 772.292Z" fill="#005066"/>
</g>
<path opacity="0.4" d="M312.003 742.245C311.579 741.761 311 742.326 310.597 742.557C309.72 743.147 308.869 743.772 307.977 744.346C306.108 745.535 304.294 746.809 302.471 748.069C301.705 748.674 300.738 749.152 300.219 750.004C299.67 753.067 299.206 756.155 298.722 759.228C298.712 759.556 298.546 759.933 298.602 760.261C297.654 761.314 296.823 762.457 296.344 763.793C295.644 766.508 295.574 769.349 295.196 772.12C294.652 776.856 294.087 781.592 293.533 786.333C292.984 791.073 292.375 795.809 291.74 800.54C291.352 803.462 290.878 806.409 290.863 809.351C290.898 809.477 290.979 809.563 291.08 809.613C291.17 810.238 291.322 810.857 291.488 811.467C291.911 812.943 292.914 814.152 294.188 814.989C294.193 815.099 294.244 815.205 294.329 815.276C294.455 815.407 294.652 815.422 294.813 815.361C296.017 815.996 297.392 816.309 298.717 816.223C302.713 816.112 305.146 813.326 306.728 809.93C308.012 807.447 308.773 804.746 309.388 802.031C310.038 799.265 310.627 796.484 311.06 793.678C312.123 787.234 312.678 780.735 313.076 774.221C313.267 770.69 313.907 767.143 313.539 763.611C313.428 762.755 312.99 761.994 312.466 761.324C311.967 760.644 311.458 759.969 310.955 759.289C311.06 758.664 311.121 758.034 311.196 757.404C311.438 755.102 311.685 752.795 311.841 750.482C311.972 748.124 312.164 745.767 312.219 743.409C312.204 743.021 312.229 742.588 312.003 742.25V742.245ZM294.541 814.102C293.297 813.215 292.344 811.875 292.138 810.223C292.002 809.799 292.042 809.316 291.866 808.913C291.846 808.878 291.825 808.847 291.795 808.822C292.082 803.557 293.065 798.358 293.644 793.119C294.768 784.242 295.745 775.345 296.788 766.458C296.969 765.274 297.025 764.513 297.433 763.546C297.72 762.866 298.4 761.964 299.065 761.148C300.526 759.44 303.136 757.021 305.03 755.661C305.03 755.676 305.03 755.691 305.03 755.707C305.272 758.926 304.894 762.855 304.677 766.488C302.546 766.624 301.725 768.901 301.362 770.725C300.632 773.853 300.33 777.063 299.906 780.247C299.529 783.703 298.687 787.169 298.949 790.665C299.055 792.02 299.549 793.673 300.667 794.348C299.584 799.824 298.39 805.149 296.294 810.52C295.876 811.548 295.241 812.837 294.889 813.482C294.793 813.694 294.662 813.895 294.541 814.102ZM302.128 791.743C303.393 785.023 304.778 778.292 305.282 771.46C305.342 770.307 305.418 769.148 305.504 767.994C306.063 768.387 306.551 768.987 306.854 769.919C307.625 773.007 307.015 777.395 306.597 781.189C306.123 785.184 305.09 792.66 302.168 793.698C302.012 793.733 301.866 793.738 301.72 793.728C301.856 793.068 301.987 792.403 302.123 791.743H302.128ZM300.864 793.335C300.506 792.998 300.249 792.484 300.103 791.889C299.337 788.695 300.254 785.199 300.637 781.703C301.322 777.304 301.463 772.755 302.899 768.841C303.126 768.357 303.791 767.526 304.294 767.495C304.395 767.455 304.506 767.44 304.617 767.43C304.33 774.307 303.221 781.108 301.927 787.859C301.559 789.708 301.211 791.532 300.859 793.335H300.864ZM312.728 764.921C312.804 767.571 312.315 771.571 312.118 774.68C311.61 783.118 310.778 791.572 308.95 799.839C307.967 804.323 306.763 809.391 303.629 813.059C302.158 814.737 299.398 815.754 296.768 815.135C296.279 815.014 295.795 814.832 295.337 814.591C295.957 813.467 296.546 812.324 297.045 811.135C299.201 805.85 300.41 800.237 301.544 794.645C301.806 794.675 302.093 794.66 302.4 794.595C306.012 793.532 307.015 785.204 307.453 781.899C307.846 777.884 308.632 773.748 307.766 769.747C307.433 768.599 306.708 767.526 305.619 766.982C305.604 766.972 305.589 766.961 305.574 766.951C305.851 763.153 306.138 759.349 305.937 755.55C305.917 755.445 305.861 755.364 305.796 755.304C306.289 755.324 306.859 755.822 307.524 756.447C308.436 757.419 309.227 758.488 310.013 759.566C310.033 759.732 310.103 759.863 310.275 759.923C310.647 760.437 311.02 760.946 311.408 761.445C312.375 762.664 312.693 763.253 312.723 764.921H312.728ZM310.788 752.12C310.612 754.16 310.395 756.2 310.169 758.236C308.995 756.669 307.126 753.918 305.237 754.462C303.604 755.319 302.304 756.719 300.919 757.908C300.511 758.311 300.093 758.714 299.68 759.127C300.118 756.195 300.717 752.769 301.075 750.397C301.186 750.094 302.733 749.006 303.604 748.407C306.088 746.694 309.025 744.729 311.287 743.227C311.272 745.066 310.995 749.53 310.788 752.114V752.12Z" fill="#005066"/>
<g opacity="0.4">
<path d="M200.844 748.548C200.557 747.409 199.293 746.991 198.29 746.679C197.791 746.548 197.282 746.422 196.774 746.311C194.658 745.646 192.451 745.238 190.315 744.628C188.365 744.195 186.32 743.565 184.33 744.074C183.554 744.235 183.055 744.925 182.929 745.681C182.582 747.062 182.229 748.447 181.886 749.827C181.342 752.115 180.823 754.407 180.103 756.644C179.851 757.495 179.564 758.342 179.347 759.203C179.327 759.279 179.332 759.359 179.347 759.435C179.272 759.49 179.211 759.566 179.191 759.667C176.889 767.884 174.405 776.05 172.239 784.307C168.924 797.391 166.027 810.57 163.13 823.75C163.019 824.234 162.908 824.717 162.792 825.201C162.757 825.322 162.777 825.453 162.838 825.558C162.843 825.569 162.853 825.574 162.858 825.584C162.873 825.639 162.898 825.689 162.933 825.74C162.455 827.115 162.032 828.511 161.482 829.861C161.155 830.642 160.601 831.685 161.402 832.365C162.767 833.463 164.596 833.639 166.238 834.063C169.825 834.864 173.453 835.423 177.11 835.745C178.511 835.901 180.063 836.068 180.738 834.531C181.352 833.257 181.458 831.816 181.644 830.43C181.685 830.002 181.715 829.574 181.72 829.146C181.851 829.03 181.957 828.884 182.022 828.717C182.35 828.239 181.775 827.659 181.327 828.067C181.121 828.355 181.196 828.39 181.055 828.501C178.531 828.304 172.102 826.959 168.017 826.103C166.586 825.82 165.15 825.483 163.744 825.125C164.611 821.256 165.467 817.387 166.329 813.523C166.349 813.538 166.359 813.553 166.379 813.563C167.624 814.052 168.908 814.43 170.178 814.848C170.616 814.923 171.11 815.281 171.543 815.105C171.891 814.913 171.82 814.349 171.432 814.258C170.823 814.082 170.213 813.896 169.614 813.694C168.757 813.402 167.301 812.943 166.853 812.762C166.752 812.702 166.626 812.686 166.51 812.712C167.583 807.89 168.667 803.074 169.795 798.263C170.319 798.504 170.873 798.691 171.407 798.908C171.835 799.094 172.46 799.361 172.541 798.666C172.546 798.273 172.123 798.192 171.83 798.076C171.12 797.794 170.445 797.557 170.012 797.341C171.08 792.796 172.178 788.267 173.347 783.748C174.128 783.995 174.899 784.272 175.669 784.539C175.891 784.595 176.108 784.741 176.339 784.71C176.571 784.695 176.737 784.479 176.742 784.257C176.737 783.778 176.158 783.758 175.821 783.612C175.075 783.355 174.334 783.088 173.579 782.851C173.715 782.333 173.846 781.809 173.982 781.29C174.768 778.473 175.574 775.662 176.375 772.856C176.405 772.871 176.435 772.886 176.465 772.896C177.196 773.108 177.931 773.294 178.662 773.496C179.04 773.551 179.443 773.859 179.816 773.682C180.163 773.496 180.093 772.927 179.705 772.836C178.712 772.534 177.705 772.292 176.707 772.005C176.677 771.995 176.647 772.005 176.611 772C177.629 768.443 178.652 764.886 179.665 761.329C179.785 760.911 179.906 760.493 180.022 760.07C185.237 761.475 191.413 762.624 196.174 763.878C196.194 763.888 196.214 763.904 196.234 763.914C196.245 763.944 196.255 763.979 196.265 764.03C196.416 764.8 196.184 765.677 195.988 766.821C195.171 770.906 193.962 774.901 192.97 778.947C191.524 784.187 190.426 789.512 189.282 794.827C186.818 805.316 184.516 815.845 181.7 826.249C181.644 826.682 181.297 827.125 181.478 827.548C181.619 827.8 182.002 827.856 182.209 827.644C184.924 818.646 186.768 809.356 188.99 800.212C190.149 795.492 191.086 790.726 192.164 785.99C193.192 781.602 194.386 777.249 195.504 772.881C196.043 770.836 196.577 768.78 196.955 766.695C196.995 766.357 197.091 765.919 197.167 765.45C197.222 765.4 197.272 765.334 197.292 765.244C198.3 761.903 199.202 758.533 199.963 755.127C200.411 752.976 201.136 750.754 200.824 748.538L200.844 748.548ZM163.805 826.067C167.79 827.14 171.891 827.821 175.941 828.627C177.554 828.944 179.166 829.277 180.808 829.387C180.763 830.254 180.707 830.808 180.602 831.453C180.395 832.909 180.052 834.42 179.382 834.763C178.622 835.141 176.173 834.667 174.606 834.556C172.067 834.299 169.085 833.735 166.248 833.115C164.621 832.728 162.838 832.425 161.986 831.629C161.971 831.604 161.956 831.574 161.941 831.549C161.931 831.518 161.916 831.483 161.911 831.453C161.911 831.443 161.911 831.438 161.911 831.428C161.931 831.307 161.956 831.186 162.001 831.075C162.692 829.438 163.251 827.755 163.805 826.072V826.067Z" fill="#005066"/>
<path d="M186.688 765.178C185.887 765.113 185.201 765.642 184.657 766.171C183.423 767.445 182.733 769.219 182.34 770.916C182.36 771.239 182.763 771.42 183.03 771.254C183.373 770.972 183.363 770.443 183.544 770.055C184.103 768.261 185.337 766.05 186.748 766.115C187.307 766.357 187.746 767.606 187.695 769.506C187.524 775.723 185.247 781.874 183.584 788.131C181.478 795.194 179.846 802.414 177.236 809.316C176.889 810.308 176.173 811.694 175.73 812.329C175.377 812.701 175.357 812.712 174.954 812.928C174.219 812.631 174.193 810.52 174.324 808.762C174.652 804.772 175.72 800.489 176.753 796.283C178.612 789.668 180.289 783.008 182.108 776.383C182.31 775.622 182.556 774.871 182.748 774.11C182.778 773.843 182.929 773.556 182.788 773.304C182.597 772.962 182.032 773.027 181.942 773.415C180.632 778.307 179.277 783.194 178.047 788.111C176.38 793.99 174.692 799.885 173.725 805.93C173.423 808.223 173.025 810.631 173.695 812.893C175.785 816.228 177.977 810.021 178.571 808.414C180.934 801.704 182.587 794.766 184.602 787.945C185.473 784.373 191.761 766.135 186.698 765.178H186.688Z" fill="#005066"/>
<path d="M189.549 763.873C189.317 763.551 188.844 763.596 188.501 763.46C186.667 762.987 184.823 762.533 182.959 762.181C182.279 762.1 181.569 761.838 180.894 761.929C180.43 762.095 180.581 762.835 181.07 762.815C183.327 763.047 186.582 763.994 189.206 764.563C189.524 764.543 189.715 764.14 189.544 763.873H189.549Z" fill="#005066"/>
<path d="M192.834 764.654C192.642 764.584 192.426 764.493 192.234 764.619C191.887 764.805 191.957 765.375 192.345 765.465C192.723 765.596 193.333 765.899 193.504 765.339C193.62 764.901 193.171 764.74 192.834 764.654Z" fill="#005066"/>
<path d="M177.498 777.36C177.09 777.274 176.672 777.128 176.254 777.123C175.765 777.158 175.72 777.914 176.193 778.025C176.702 778.116 177.201 778.237 177.695 778.373C177.871 778.423 178.083 778.363 178.183 778.206C178.531 777.662 177.946 777.436 177.498 777.36Z" fill="#005066"/>
<path d="M173.962 789.486C173.639 789.406 173.312 789.255 172.979 789.265C172.491 789.3 172.445 790.056 172.919 790.166C173.488 790.177 174.662 791.043 174.798 790.086C174.798 789.642 174.289 789.597 173.967 789.486H173.962Z" fill="#005066"/>
</g>
<path opacity="0.4" d="M118.74 774.196C118.609 773.531 118.483 772.856 118.216 772.226C118.14 772.045 117.989 771.899 117.803 771.838C116.055 772.025 114.327 772.529 112.599 772.891C112.563 772.624 112.468 771.964 112.397 771.546C112.095 769.964 111.893 768.337 111.299 766.831C111.163 766.478 110.835 766.261 110.458 766.372C109.319 766.594 108.165 766.755 107.062 767.118C106.896 767.188 106.714 767.244 106.583 767.375C106.432 767.531 106.387 767.748 106.447 767.954C106.77 769.345 106.921 770.77 107.213 772.171C107.289 772.569 107.374 772.967 107.465 773.36C106.216 773.511 104.986 773.813 103.737 773.969C103.062 774.131 102.271 774.06 101.671 774.433C101.167 774.917 101.445 775.697 101.581 776.287C101.777 776.891 101.843 777.541 102.084 778.131C102.382 778.594 103.001 778.579 103.49 778.544C104.533 778.468 105.551 778.227 106.578 778.045C107.193 777.924 107.651 777.909 108.342 777.798C108.719 779.657 109.102 781.516 109.536 783.36C109.606 783.642 109.692 783.95 109.954 784.116C110.165 784.242 110.422 784.262 110.664 784.257C111.783 784.156 112.886 783.859 113.944 783.486C114.75 783.073 114.342 781.99 114.271 781.285C114.029 780.02 113.742 778.771 113.485 777.511C113.44 777.38 113.415 777.214 113.385 777.058C113.657 777.007 113.924 776.952 114.196 776.902C115.642 776.604 117.163 776.554 118.554 776.025C119.249 775.667 118.795 774.796 118.75 774.201L118.74 774.196ZM116.533 775.572C115.279 775.778 114.019 775.97 112.775 776.221C112.463 776.237 112.266 776.589 112.392 776.866C112.387 777.073 112.488 777.274 112.518 777.481C112.71 778.282 112.851 779.093 113.037 779.894C113.228 780.796 113.44 781.733 113.48 782.317C113.48 782.428 113.49 782.544 113.49 782.655C113.077 782.821 111.863 783.139 111.133 783.27C110.84 783.315 110.664 783.335 110.488 783.315C110.473 783.26 110.453 783.204 110.447 783.169C109.944 781.244 109.651 779.244 109.158 777.325C109.158 777.325 109.158 777.315 109.158 777.31C109.183 777.103 109.102 776.967 108.981 776.886C108.896 776.821 108.8 776.791 108.699 776.796C108.578 776.786 108.452 776.806 108.337 776.851C107.989 776.922 107.767 776.922 107.193 777.002C105.636 777.199 104.407 777.607 103.082 777.617C103.027 777.617 102.996 777.617 102.976 777.612C102.941 777.607 102.911 777.597 102.875 777.592C102.724 776.997 102.583 776.398 102.417 775.803C102.316 775.37 102.301 775.274 102.316 775.143C104.261 774.77 106.548 774.428 108.1 774.176C108.266 774.116 108.352 773.985 108.372 773.838C108.452 773.733 108.488 773.597 108.442 773.451C107.984 771.647 107.782 769.788 107.405 767.969C107.939 767.798 109.526 767.46 110.372 767.319C110.412 767.314 110.452 767.304 110.498 767.299C110.755 767.884 111.017 769.158 111.193 770.045C111.359 770.801 111.631 772.508 111.667 772.801C111.702 773.184 111.747 773.718 112.12 773.758C112.221 773.843 112.357 773.894 112.528 773.849C114.166 773.476 115.808 773.113 117.455 772.791C117.465 772.816 117.47 772.836 117.475 772.851C117.697 773.445 117.944 774.937 117.994 775.239C117.521 775.385 117.032 775.466 116.548 775.561L116.533 775.572Z" fill="#005066"/>
<path opacity="0.4" d="M292.5 749.077C293.266 747.898 290.828 747.782 290.133 747.671C289.241 747.565 288.344 747.515 287.447 747.49C287.533 747.112 287.593 746.724 287.709 746.361C287.981 745.268 288.289 744.185 288.52 743.081C288.641 742.487 288.747 741.887 288.777 741.278C288.797 741.041 288.757 740.794 288.591 740.618C288.319 740.326 287.916 740.502 287.684 740.744C286.158 742.421 285.054 744.165 283.734 745.721C283.054 744.296 282.414 742.855 281.699 741.449C281.336 740.814 281.044 740.064 280.465 739.595C279.492 739.127 279.553 740.426 279.568 741.036C279.578 742.89 279.593 744.744 279.659 746.593C279.669 746.658 279.669 746.724 279.669 746.789C278.177 746.366 276.621 746.205 275.099 745.928C274.55 745.837 273.416 745.515 273.578 746.452C273.83 747.001 274.409 747.323 274.832 747.732C276.092 748.729 277.291 749.792 278.47 750.885C278.021 752.513 276.847 754.21 276.006 755.999C275.638 756.593 275.673 757.349 276.555 757.233C277.17 757.042 277.643 756.553 278.132 756.15C279.019 755.369 280.253 754.049 280.973 753.374C280.984 753.414 280.994 753.45 280.999 753.47C281.422 755.359 281.709 757.279 282.203 759.153C282.324 759.903 283.155 759.979 283.472 759.314C284.319 757.409 284.571 755.289 284.933 753.248C285.674 753.807 287.08 755.102 288.112 755.928C288.586 756.256 289.014 756.76 289.604 756.85C291.664 756.669 288.173 751.898 287.548 750.991C287.77 750.845 288.097 750.729 288.641 750.523C289.906 750.014 291.311 749.762 292.485 749.072L292.5 749.077ZM286.641 750.603C286.324 751.278 287.12 751.822 287.402 752.371C288.117 753.495 288.808 754.523 289.19 755.591C288.45 755.037 287.367 754.084 286.5 753.339C285.906 752.941 285.084 751.777 284.314 752.351C284.188 752.472 284.112 752.639 284.082 752.81C283.956 753.606 283.83 754.402 283.674 755.193C283.452 756.19 283.251 757.334 282.943 758.216C282.571 756.699 282.314 755.152 281.991 753.626C281.78 752.452 281.351 751.646 280.273 752.775C279.235 753.762 278.192 754.936 277.18 755.762C277.83 754.523 278.762 752.875 279.266 751.56C279.402 751.172 279.558 750.674 279.23 750.336C278.449 749.606 277.658 748.885 276.842 748.19C276.323 747.752 275.789 747.334 275.27 746.895C275.789 746.981 276.369 747.087 276.807 747.152C277.825 747.293 278.837 747.555 279.83 747.762C280.021 747.747 280.142 747.626 280.193 747.475C280.414 747.449 280.621 747.268 280.616 747.016C280.52 745.076 280.49 743.132 280.5 741.187C280.999 742.069 281.578 743.318 281.996 744.205C282.379 745.026 282.752 745.857 283.155 746.669C283.306 746.925 283.644 747.026 283.906 746.875C285.482 745.258 286.394 743.631 287.765 742.039C287.709 742.386 287.634 742.744 287.523 743.248C287.16 744.794 286.732 746.326 286.374 747.878C286.248 748.276 286.717 748.588 287.044 748.407C287.412 748.437 287.815 748.366 288.168 748.432C289.13 748.477 290.223 748.583 291.019 748.729C290.112 749.062 288.923 749.409 288.022 749.772C287.528 749.978 286.959 750.14 286.631 750.598L286.641 750.603Z" fill="#005066"/>
<g opacity="0.4">
<path d="M282.918 778.05C282.203 774.977 281.306 771.889 279.699 769.153C278.132 766.569 276.061 764.281 273.683 762.422C271.154 760.563 268.273 759.213 265.245 758.392C262.968 757.732 260.579 757.435 258.212 757.566C258.06 757.591 257.889 757.581 257.728 757.601C257.693 756.659 257.683 755.717 257.547 754.78C257.486 754.19 257.259 753.591 256.776 753.223C254.695 751.888 254.761 758.805 254.851 759.883C254.871 760.296 254.882 760.71 254.907 761.118C249.39 761.193 243.863 763.576 240.05 767.561C237.027 770.896 235.198 775.138 234.321 779.521C233.687 782.731 233.379 786.036 233.702 789.3C234.17 793.31 236.135 797.119 238.825 800.097C241.828 803.593 245.959 806.067 250.453 807.099C250.559 807.125 250.67 807.14 250.781 807.16C250.781 807.185 250.771 807.21 250.771 807.235C250.861 812.495 250.629 817.765 250.811 823.019C251.113 824.45 253.703 824.47 254.856 824.339C256.806 824.017 256.363 820.485 256.494 818.994C256.514 817.115 256.479 815.236 256.458 813.352C256.872 813.543 257.678 813.205 258.091 813.246C260.393 812.979 262.68 812.535 264.882 811.805C270.283 809.85 275.341 806.384 278.5 801.517C282.762 794.615 284.334 786.025 282.918 778.045V778.05ZM256.353 754.1C256.353 754.1 256.368 754.115 256.373 754.12C256.378 754.13 256.388 754.14 256.393 754.15C256.418 754.185 256.453 754.231 256.469 754.266C256.469 754.266 256.469 754.271 256.469 754.276C256.927 755.923 256.756 758.186 256.861 760.231C256.872 760.634 256.887 761.042 256.897 761.445C256.69 761.43 256.489 761.41 256.282 761.4C256.227 761.42 256.186 761.45 256.146 761.485C256.111 761.319 255.995 761.173 255.824 761.133C255.662 758.659 255.678 755.495 256.343 754.095L256.353 754.1ZM234.634 789.335C234.009 781.572 235.964 772.881 241.38 767.546C244.312 764.73 248.055 762.992 252.287 762.246C253.078 762.09 254.075 762.055 255.113 762.029C255.199 762.105 255.3 762.135 255.405 762.135C255.501 762.921 256.045 764.866 256.04 765.561C256.111 767.118 255.99 768.342 255.335 769.526C254.539 770.745 252.544 771.355 250.594 771.944C248.352 772.634 245.949 773.37 244.413 775.264C243.506 776.317 242.805 777.864 243.35 779.239C244.418 781.562 245.843 783.386 246.287 785.718C246.589 787.149 246.534 789.512 245.833 790.731C245.193 792 244.02 793.003 242.735 794.061C241.909 794.701 240.206 795.981 238.881 796.63C238.619 796.822 238.075 796.973 237.737 797.2C236.08 794.756 234.966 792.051 234.639 789.34L234.634 789.335ZM248.836 805.684C246.438 804.878 244.08 803.638 242.347 802.218C240.82 800.973 239.44 799.532 238.276 797.965C238.291 797.955 238.312 797.945 238.327 797.935C240.105 797.119 241.727 796.026 243.259 794.812C246.131 792.6 247.677 790.57 247.355 786.796C247.234 784.675 246.292 782.736 245.279 780.907C244.624 779.673 243.964 778.972 244.11 777.929C244.201 776.735 245.45 775.234 246.755 774.443C248.156 773.587 249.844 773.158 251.652 772.584C254.781 771.627 256.72 770.675 256.957 767.093C257.123 765.511 256.7 763.632 256.368 762.256C256.579 762.327 256.821 762.357 257.038 762.372C257.154 762.503 257.335 762.574 257.511 762.518C257.567 762.503 257.612 762.473 257.652 762.448C259.587 762.8 261.532 763.218 263.391 763.773C263.396 763.838 263.416 763.909 263.456 763.979C263.663 764.725 263.27 766.931 262.348 768.221C261.3 769.969 259.703 771.37 258.388 773.244C257.008 775.224 256.045 778.242 257.824 780.272C261.35 783.94 265.295 777.521 268.454 777.118C269.653 776.876 270.625 777.511 271.396 779.068C272.021 780.408 272.535 781.869 273.658 782.892C274.777 783.965 276.233 784.101 277.537 783.265C277.648 783.174 277.814 783.068 277.986 782.947C277.88 784.917 277.568 786.988 277.089 788.852C275.673 787.99 274.389 786.741 272.691 786.484C270.046 786.056 267.325 787.25 265.562 789.209C264.126 790.721 263.496 792.293 261.985 793.502C260.826 794.368 258.892 791.985 256.821 790.459C256.423 790.222 255.965 790.051 255.501 790.031C254.962 790.046 254.448 790.267 254 790.555C252.262 791.698 251.39 793.723 250.725 795.618C249.783 798.469 249.466 801.789 249.088 804.359C249.022 804.802 248.947 805.25 248.836 805.684ZM264.408 764.095C267.129 765.002 269.638 766.241 271.663 768.07C275.205 771.002 277.215 774.76 277.915 779.345C278.001 780.086 278.036 780.882 278.031 781.708C278.001 781.728 277.971 781.738 277.945 781.763C277.527 782.121 277.552 782.131 277.2 782.363C276.641 782.796 275.779 782.922 275.578 782.872C274.253 782.605 273.527 781.476 272.771 779.869C271.769 777.254 270.197 775.224 267.179 776.539C263.915 777.965 260.801 782.227 258.534 779.662C256.766 777.662 258.413 774.267 260.514 772.05C261.97 770.357 263.562 768.634 264.172 766.433C264.287 765.672 264.514 764.856 264.413 764.085L264.408 764.095ZM255.557 815.785C255.567 818.057 255.657 820.727 255.325 822.581C255.169 823.12 255.199 823.009 254.987 823.291C254.786 823.463 254.897 823.402 254.478 823.458C253.38 823.548 252.126 823.312 251.793 822.994C251.723 822.939 251.682 822.793 251.672 822.108C251.672 818.052 251.723 813.996 251.708 809.941C251.718 809.074 251.682 808.208 251.698 807.341C252.982 807.553 254.287 807.654 255.592 807.643C255.592 807.724 255.592 807.8 255.592 807.88C255.501 810.515 255.516 813.15 255.557 815.78V815.785ZM253.093 806.611C252.02 806.52 250.876 806.293 249.723 805.961C250.594 801.628 250.584 796.822 252.907 793.053C253.572 791.89 254.947 790.721 255.773 791.003C257.355 791.26 260.328 796.303 262.852 793.991C263.789 793.205 264.423 792.137 265.149 791.174C265.728 790.343 266.867 789.094 267.754 788.539C269.441 787.426 271.31 787.048 273.084 787.522C274.202 787.834 275.527 789.018 276.822 789.769C276.822 789.769 276.822 789.769 276.827 789.769C274.595 797.104 268.716 803.301 261.542 805.784C258.69 806.752 256.151 806.847 253.088 806.616L253.093 806.611ZM277.411 801.492C273.875 806.545 268.026 810.304 261.804 811.694C260.217 812.037 259.033 812.228 257.607 812.379C257.275 812.48 256.761 812.394 256.458 812.561C256.458 811.709 256.458 810.853 256.474 810.001C256.468 809.21 256.539 808.414 256.519 807.623C258.161 807.548 259.789 807.296 261.36 806.827C269.844 804.066 276.565 796.52 278.303 787.769C279.658 781.451 279.109 775.31 274.978 770.11C272.323 766.826 268.64 764.412 264.605 763.188C262.393 762.574 260.131 761.863 257.849 761.561C257.844 761.475 257.839 761.39 257.844 761.314C257.814 760.392 257.793 759.47 257.773 758.543C261.285 758.241 264.272 758.931 267.638 760.15C270.716 761.344 273.814 763.314 276.182 765.999C277.638 767.561 278.807 769.239 279.835 771.36C280.752 773.34 281.941 777.305 282.233 779.4C283.205 787.124 281.613 795.059 277.427 801.502L277.411 801.492Z" fill="#005066"/>
<path d="M241.385 791.038C241.072 791.174 240.891 791.512 240.604 791.698C240.533 791.814 239.309 792.489 239.173 792.484C239.118 792.499 239.067 792.509 239.012 792.519C239.012 792.519 239.012 792.519 239.002 792.519C238.337 792.449 238.231 793.416 238.906 793.451C239.788 793.391 240.584 792.872 241.269 792.348C241.526 792.091 241.944 791.874 241.974 791.481C241.979 791.184 241.672 790.952 241.385 791.033V791.038Z" fill="#005066"/>
<path d="M240.141 788.141C240.04 787.965 239.813 787.869 239.617 787.93C238.911 788.126 238.14 788.182 237.47 788.459C237.062 788.741 237.405 789.416 237.873 789.27C238.579 789.073 239.35 789.018 240.02 788.741C240.211 788.615 240.251 788.338 240.141 788.141Z" fill="#005066"/>
<path d="M239.344 782.841C238.669 782.615 237.974 782.443 237.279 782.282C236.961 782.232 236.609 782.106 236.301 782.207C235.838 782.373 235.994 783.113 236.478 783.093C236.8 783.093 237.616 783.31 238.271 783.481C238.659 783.537 239.072 783.869 239.455 783.688C239.803 783.496 239.732 782.932 239.344 782.841Z" fill="#005066"/>
<path d="M240.161 776.136C239.682 775.758 239.259 775.295 238.765 774.952C238.322 774.735 237.899 775.37 238.256 775.703C238.664 776.07 239.083 776.433 239.501 776.791C239.586 776.876 239.707 776.927 239.828 776.927C240.226 776.942 240.448 776.408 240.156 776.136H240.161Z" fill="#005066"/>
<path d="M243.964 771.33C243.536 770.629 243.098 769.934 242.7 769.219C242.392 768.695 241.596 769.163 241.899 769.687C242.297 770.403 242.735 771.098 243.163 771.798C243.254 771.954 243.445 772.06 243.627 772.02C243.944 772 244.135 771.597 243.964 771.33Z" fill="#005066"/>
<path d="M248.529 768.12C248.433 767.989 247.924 766.498 247.682 765.939C247.4 765.531 246.725 765.873 246.871 766.342C247.088 767.042 247.365 767.722 247.647 768.397C247.813 768.695 247.838 769.168 248.211 769.284C248.498 769.37 248.801 769.133 248.801 768.836C248.776 768.579 248.614 768.362 248.529 768.12Z" fill="#005066"/>
<path d="M253.259 763.924C253.259 763.319 252.337 763.319 252.332 763.924C252.403 764.73 252.428 765.556 252.559 766.347C252.594 766.458 252.695 766.553 252.806 766.594C253.093 766.735 253.461 766.488 253.451 766.171C253.39 765.42 253.31 764.674 253.264 763.924H253.259Z" fill="#005066"/>
<path d="M261.481 776.448C261.169 775.783 261.134 775.667 260.862 775.002C260.736 774.332 259.789 774.453 259.92 775.138C260.166 775.738 260.398 776.337 260.68 776.917C260.741 777.022 260.842 777.098 260.957 777.128C261.34 777.249 261.698 776.786 261.481 776.448Z" fill="#005066"/>
<path d="M264.978 774.01C264.585 773.42 264.182 772.841 263.789 772.257C263.482 771.733 262.686 772.201 262.988 772.725C263.446 773.42 263.93 774.095 264.378 774.796C264.469 774.952 264.66 775.058 264.842 775.017C265.411 774.901 265.27 774.347 264.978 774.01Z" fill="#005066"/>
<path d="M268.439 768.624C267.97 768.065 267.628 767.334 267.033 766.906C266.59 766.69 266.167 767.324 266.525 767.657C266.943 768.08 267.381 768.735 267.89 769.455C268.006 769.662 268.187 769.889 268.454 769.828C268.681 769.813 268.857 769.596 268.857 769.375C268.837 769.083 268.585 768.866 268.439 768.624Z" fill="#005066"/>
<path d="M272.973 772.04C272.686 771.657 272.459 771.219 272.132 770.871C271.759 770.549 271.185 771.052 271.452 771.471C271.91 772.07 272.278 772.745 272.731 773.34C273.013 773.586 273.487 773.34 273.477 772.977C273.431 772.624 273.139 772.347 272.973 772.045V772.04Z" fill="#005066"/>
<path d="M276.283 779.098C276.107 778.549 276.046 777.944 275.809 777.425C275.527 777.017 274.852 777.36 274.998 777.828C275.114 778.337 275.26 778.836 275.386 779.34C275.416 779.456 275.497 779.556 275.598 779.617C275.94 779.834 276.399 779.476 276.278 779.093L276.283 779.098Z" fill="#005066"/>
<path d="M256.65 797.079C256.166 796.011 255.718 794.922 255.134 793.91C255.063 793.769 254.957 793.638 254.796 793.597C254.413 793.476 254.055 793.94 254.272 794.278C254.695 794.983 255.028 795.734 255.37 796.484C255.617 796.877 255.673 797.572 256.121 797.764C256.504 797.885 256.862 797.421 256.645 797.084L256.65 797.079Z" fill="#005066"/>
<path d="M259.633 802.409C259.275 801.688 258.983 801.049 258.806 800.565C258.736 800.378 258.701 800.157 258.509 800.056C258.167 799.839 257.708 800.197 257.829 800.58C258.101 801.361 258.459 802.112 258.822 802.857C259.114 803.678 260.152 803.109 259.633 802.409Z" fill="#005066"/>
<path d="M263.562 799.814C263.194 798.983 262.811 798.157 262.434 797.326C262.167 796.857 262.303 796.736 261.935 796.388C261.592 796.172 261.134 796.53 261.255 796.912C261.663 797.9 262.136 798.862 262.57 799.845C262.781 800.243 262.932 801.099 263.552 800.787C263.945 800.555 263.723 800.122 263.567 799.814H263.562Z" fill="#005066"/>
<path d="M268.293 796.081C268.081 795.613 267.809 794.922 267.537 794.152C267.356 793.824 267.406 793.315 267.089 793.094C266.746 792.877 266.288 793.235 266.409 793.618C266.64 794.519 267.008 795.381 267.361 796.237C267.542 796.63 267.719 797.396 268.298 797.094C268.711 796.847 268.444 796.398 268.298 796.076L268.293 796.081Z" fill="#005066"/>
<path d="M272.792 791.834C272.535 791.164 272.268 790.504 271.965 789.854C271.885 789.668 271.794 789.446 271.572 789.396C271.19 789.275 270.832 789.738 271.048 790.076C271.426 790.877 271.552 791.194 271.895 792.081C272.056 792.665 272.948 792.419 272.792 791.834Z" fill="#005066"/>
</g>
<g opacity="0.4">
<path d="M327.615 760.115L327.6 760.13C327.6 760.135 327.595 760.14 327.59 760.145C327.59 760.145 327.605 760.13 327.615 760.11V760.115Z" fill="#005066"/>
<path d="M348.165 802.51C347.928 799.441 347.45 796.399 347.208 793.325C346.724 787.154 346.15 780.997 345.455 774.846C345.193 772.02 344.855 769.203 344.407 766.402C344.261 765.757 344.266 765.017 344.064 764.377C344.039 763.868 344.009 763.359 343.983 762.851C343.827 761.374 343.847 759.641 342.936 758.407C342.689 758.135 342.346 757.964 341.983 757.918C341.475 757.883 340.966 757.873 340.457 757.873C340.27 756.75 339.852 755.636 339.55 754.538C339.238 753.571 338.991 752.568 338.517 751.666C338.411 751.5 338.225 751.389 338.029 751.374C336.945 751.278 335.852 751.253 334.764 751.203C334.023 751.178 333.273 751.142 332.537 751.263C332.21 751.319 331.842 751.445 331.666 751.752C330.86 753.958 330.079 756.18 329.439 758.442C329.439 758.457 329.439 758.467 329.439 758.483C328.552 758.659 327.63 758.876 326.95 759.46C326.728 759.692 326.602 759.994 326.613 760.316C326.633 761.521 326.663 762.73 326.663 763.939C326.638 764.065 326.648 764.17 326.683 764.261C326.673 764.296 326.673 764.332 326.673 764.372C326.587 770.901 326.688 777.441 326.698 783.97C326.89 791.471 327.131 798.973 327.202 806.474C327.328 810.47 327.474 814.47 327.973 818.44C328.32 821.13 328.678 824.022 330.462 826.193C331.283 827.226 332.416 827.946 333.61 828.48C334.764 828.999 335.983 829.387 337.258 829.423C338.88 829.473 340.583 829.488 342.079 828.783C347.782 826.364 348.014 819.155 348.321 813.815C348.417 810.046 348.417 806.268 348.165 802.505V802.51ZM332.467 752.246C332.467 752.246 332.492 752.236 332.502 752.225C332.633 752.185 332.764 752.16 332.9 752.14C332.905 752.14 332.905 752.14 332.915 752.14C334.406 752.049 336.663 752.21 337.797 752.286C337.842 752.377 337.882 752.467 337.923 752.558C338.301 753.566 339.031 755.903 339.394 757.394C339.444 757.546 339.474 757.712 339.51 757.873C338.875 757.883 338.235 757.903 337.6 757.908C335.212 757.974 332.809 757.974 330.441 758.306C331.016 756.301 331.933 753.747 332.462 752.241L332.467 752.246ZM327.555 760.201C327.555 760.201 327.575 760.165 327.585 760.145C327.585 760.145 327.585 760.145 327.595 760.13C327.61 760.105 327.625 760.085 327.64 760.07C327.63 760.09 327.62 760.1 327.61 760.115C327.62 760.105 327.63 760.095 327.645 760.075C329.429 759.002 333.227 758.966 336.18 758.876C338.013 758.876 341.147 758.654 342.104 758.916C342.16 758.966 342.336 759.057 342.487 759.445C342.538 759.525 342.951 761.178 342.905 761.299C342.991 761.979 343.036 762.659 343.072 763.339C342.124 763.027 340.956 763.228 339.993 763.178C337.681 763.223 335.369 763.324 333.056 763.415C331.268 763.49 329.474 763.465 327.691 763.647C327.65 763.647 327.615 763.657 327.58 763.662C327.59 762.508 327.524 761.354 327.545 760.206L327.555 760.201ZM347.404 813.462C347.394 813.699 347.379 813.941 347.369 814.183C346.084 814.112 344.8 814.072 343.515 814.026C343.056 814.011 342.88 814.671 343.283 814.893C343.978 815.059 344.739 814.958 345.455 815.024C346.069 815.014 346.704 815.115 347.319 815.1C347.031 820.223 346.412 826.027 341.611 827.987C340.2 828.632 337.58 828.662 335.837 828.309C333.182 827.533 331.137 826.37 330.048 823.694C329.076 821.256 328.844 818.122 328.562 815.175C328.436 813.573 328.351 811.971 328.275 810.369C329.142 810.359 330.008 810.364 330.875 810.394C331.121 810.399 331.343 810.177 331.338 809.931C331.323 809.366 330.678 809.467 330.28 809.447C329.6 809.437 328.915 809.437 328.235 809.447C328.124 806.731 328.068 804.011 328.048 801.29C328.043 800.777 328.028 800.268 328.018 799.754C328.728 799.744 329.444 799.774 330.154 799.789C330.502 799.759 330.93 799.93 331.212 799.678C331.504 799.406 331.283 798.872 330.885 798.887C329.922 798.852 328.96 798.827 327.998 798.832C327.882 793.104 327.681 787.375 327.605 781.642C328.28 781.637 328.97 781.657 329.63 781.572C330.094 781.405 329.938 780.665 329.454 780.685C328.834 780.685 328.215 780.715 327.6 780.715C327.58 778.75 327.575 776.786 327.6 774.816C327.6 774.372 327.6 773.929 327.6 773.486C328.461 773.531 329.323 773.496 330.184 773.486C330.582 773.501 330.804 772.967 330.512 772.695C330.119 772.413 329.56 772.634 329.106 772.579C328.608 772.619 328.094 772.554 327.595 772.569C327.59 770.846 327.58 769.123 327.575 767.395C329.368 767.183 331.197 767.224 332.981 767.047C333.333 766.926 333.358 766.397 333.036 766.221C331.887 766.07 330.673 766.312 329.504 766.317C328.859 766.352 328.215 766.392 327.575 766.468C327.575 766.14 327.575 765.813 327.575 765.49C327.539 765.178 327.63 764.83 327.62 764.513C330.426 764.488 333.303 764.307 336.134 764.231C338.23 764.145 341.737 763.979 342.946 764.246C342.971 764.261 342.996 764.276 343.021 764.296C343.041 764.317 343.062 764.337 343.077 764.357C343.092 764.382 343.107 764.407 343.117 764.432C343.132 764.473 343.142 764.508 343.152 764.548C343.152 764.569 343.152 764.589 343.152 764.614C343.152 764.684 343.172 764.75 343.203 764.815C343.334 765.526 343.444 766.211 343.555 766.886C343.46 766.896 343.364 766.911 343.273 766.901C342.492 766.916 341.711 766.962 340.93 766.992C339.878 767.037 338.82 767.042 337.762 767.108C337.641 767.108 337.52 767.158 337.434 767.244C337.142 767.516 337.364 768.05 337.762 768.035C339.686 767.944 341.616 767.904 343.54 767.818C343.591 767.818 343.641 767.813 343.696 767.808C344.024 769.989 344.256 772.08 344.487 774.438C344.618 775.602 344.739 776.765 344.865 777.929C344.734 777.939 344.603 778 344.472 778.02C343.54 778.216 343.213 778.237 342.346 778.337C341.56 778.418 340.774 778.494 339.993 778.584C339.872 778.584 339.752 778.635 339.666 778.72C339.374 778.992 339.595 779.526 339.993 779.511C341.485 779.33 342.986 779.244 344.462 778.967C344.618 778.922 344.8 778.902 344.966 778.851C345.434 783.355 345.848 787.864 346.205 792.373C346.079 792.267 345.908 792.217 345.722 792.277C344.266 792.444 342.789 792.509 341.344 792.655C340.88 792.822 341.031 793.562 341.52 793.542C342.89 793.487 344.25 793.34 345.616 793.215C345.832 793.184 346.084 793.225 346.246 793.053C346.246 793.053 346.251 793.043 346.256 793.038C346.261 793.134 346.271 793.23 346.281 793.325C346.518 796.338 346.986 799.326 347.228 802.338C347.288 803.21 347.334 804.076 347.369 804.948C347.087 804.827 346.638 804.938 346.341 804.928C345.621 804.953 344.895 804.953 344.175 804.948C343.706 804.948 343.233 804.938 342.764 804.913C342.643 804.913 342.522 804.963 342.437 805.049C342.145 805.321 342.366 805.855 342.764 805.84C344.059 805.895 345.359 805.895 346.654 805.84C346.88 805.83 347.188 805.84 347.394 805.739C347.475 808.318 347.465 810.898 347.409 813.477L347.404 813.462Z" fill="#005066"/>
<path d="M339.349 789.038C339.077 786.675 338.215 768.261 333.721 772.11C332.945 773.002 332.739 774.236 332.452 775.35C332.054 777.33 331.938 779.36 331.907 781.375C331.907 782.625 331.978 783.874 331.978 785.123C331.978 785.244 332.028 785.365 332.114 785.451C332.321 785.668 332.698 785.612 332.845 785.355C332.95 785.179 332.895 784.962 332.905 784.766C332.809 782.035 332.814 778.776 333.187 776.488C333.434 775.153 333.716 773.697 334.331 772.821C334.351 772.796 334.376 772.765 334.401 772.745C334.462 772.705 334.608 772.609 334.663 772.584C334.84 772.498 334.729 772.539 334.92 772.488C335.409 772.644 335.862 773.602 336.18 774.468C337.711 778.846 337.822 782.947 338.296 787.557C338.885 795.9 339.888 804.303 339.147 812.661C339.082 813.694 338.487 815.88 337.943 816.203C337.666 816.288 337.772 816.243 337.439 816.243C337.429 816.243 337.414 816.238 337.404 816.233C336.971 815.961 336.598 815.437 336.225 814.641C335.051 811.684 334.431 807.452 334.17 804.102C333.872 799.97 333.716 795.834 333.494 791.703C333.399 790.469 333.419 789.204 333.338 787.98C333.177 787.522 332.431 787.668 332.452 788.156C332.482 791.774 332.789 795.386 332.94 798.998C333.142 803.306 333.394 807.628 334.406 811.835C334.84 813.674 335.978 818.48 338.643 816.853C339.938 815.296 340.019 813.14 340.225 811.215C340.613 803.814 339.898 796.419 339.354 789.043L339.349 789.038Z" fill="#005066"/>
<path d="M331.847 769.39C331.59 769.153 331.212 769.294 330.9 769.279C329.993 769.355 329.061 769.294 328.169 769.395C327.706 769.561 327.862 770.302 328.346 770.282C329.404 770.282 330.462 770.216 331.52 770.181C331.918 770.196 332.139 769.662 331.847 769.39Z" fill="#005066"/>
<path d="M329.872 776.282C329.429 776.317 328.96 776.236 328.532 776.332C328.069 776.498 328.225 777.239 328.708 777.219C329.167 777.163 329.822 777.35 330.2 777.073C330.492 776.801 330.27 776.267 329.872 776.282Z" fill="#005066"/>
<path d="M329.746 784.882C329.509 784.756 329.227 784.857 328.975 784.846C328.733 784.877 328.446 784.816 328.26 785.008C327.968 785.28 328.189 785.814 328.587 785.799C329.021 785.698 329.706 785.94 329.937 785.461C330.038 785.255 329.937 784.998 329.746 784.882Z" fill="#005066"/>
<path d="M330.577 791.975C330.063 791.824 329.484 791.96 328.945 791.91C328.703 791.915 328.421 791.839 328.235 792.036C327.942 792.308 328.164 792.842 328.562 792.827C329.207 792.812 329.887 792.907 330.522 792.796C330.875 792.676 330.9 792.147 330.577 791.97V791.975Z" fill="#005066"/>
<path d="M343.198 799.341C342.78 799.396 342.341 799.321 341.938 799.421C341.475 799.588 341.631 800.328 342.115 800.308C342.568 800.253 343.142 800.404 343.525 800.132C343.817 799.86 343.596 799.326 343.198 799.341Z" fill="#005066"/>
<path d="M342.225 785.869C342.014 785.748 341.762 785.844 341.53 785.839C341.233 785.879 340.915 785.804 340.633 785.894C340.17 786.061 340.326 786.801 340.81 786.781C341.203 786.791 341.596 786.766 341.984 786.736C342.165 786.736 342.351 786.625 342.407 786.449C342.507 786.242 342.407 785.985 342.215 785.869H342.225Z" fill="#005066"/>
<path d="M341.444 772.095C341.102 771.954 340.704 772.085 340.341 772.05C339.832 772.08 339.293 771.984 338.794 772.09C338.331 772.256 338.487 772.997 338.971 772.977C339.555 772.977 340.139 772.982 340.724 772.977C340.991 772.952 341.318 773.032 341.53 772.826C341.747 772.619 341.691 772.241 341.434 772.095H341.444Z" fill="#005066"/>
</g>
<g opacity="0.4">
<path d="M371.889 787.244C371.783 787.023 371.698 786.69 371.546 786.448C371.556 786.388 371.556 786.328 371.536 786.262C369.597 779.778 367.244 773.43 365.264 766.962C362.337 756.986 358.881 747.172 355.999 737.182C355.107 733.993 354.11 730.834 353.233 727.645C352.367 724.567 351.616 721.423 350.251 718.521C349.994 717.977 349.666 717.524 349.208 717.418C349.137 717.277 349.032 717.136 348.936 717.025C348.543 716.491 348.17 715.942 347.777 715.403C346.583 713.725 345.475 711.987 344.13 710.425C343.182 709.322 342.598 708.4 341.772 707.473C341.505 707.191 341.011 707.282 340.91 707.669C340.83 708.007 340.88 708.37 340.875 708.717C340.915 710.143 340.875 711.569 340.85 713C340.86 715.609 340.674 718.214 340.638 720.824C340.638 720.98 340.628 721.151 340.674 721.302C340.648 721.378 340.643 721.463 340.674 721.549C343.384 732.033 346.906 742.28 349.979 752.659C351.782 758.876 353.475 765.123 355.304 771.329C354.981 771.163 354.634 771.088 354.286 771.264C352.891 772.085 353.949 775.214 354.251 776.488C355.228 780.02 356.377 783.506 357.505 786.993C358.307 789.371 358.961 791.844 360.191 794.046C360.518 794.6 361.047 795.099 361.737 795.053C363.622 794.948 365.425 794.298 367.163 793.607C367.954 793.275 368.77 792.983 369.496 792.524C369.828 792.282 370.231 792.036 370.347 791.617C370.448 790.826 370.136 790.051 369.949 789.29C369.949 789.275 369.944 789.26 369.939 789.25C370.529 788.978 371.088 788.721 371.587 788.489C372.03 788.237 372.055 787.683 371.889 787.25V787.244ZM341.792 713.08C342.235 713.04 342.79 712.647 343.157 712.521C343.51 712.345 343.858 712.168 344.205 711.987C344.296 712.098 344.387 712.214 344.477 712.319C345.258 713.332 346.608 715.383 347.616 716.768C347.833 717.055 348.034 717.363 348.246 717.655C347.037 718.179 345.848 718.743 344.649 719.292C343.485 719.856 342.593 720.254 341.575 720.632C341.611 718.35 341.732 715.594 341.792 713.085V713.08ZM369.435 791.391C369.435 791.391 369.43 791.396 369.425 791.401C369.123 791.693 369.209 791.597 368.811 791.859C366.796 792.897 362.377 794.509 361.365 794.016C361.052 793.794 360.609 792.892 360.332 792.227C359.863 791.154 359.158 789.083 358.679 787.572C357.47 783.824 356.226 780.091 355.173 776.297C354.508 774.186 354.387 772.297 354.704 772.08C354.997 772.166 355.208 772.342 355.5 772.584C355.576 772.66 355.662 772.735 355.752 772.811C355.969 773.536 356.181 774.267 356.402 774.992C358.05 780.282 359.863 785.521 361.622 790.776C361.793 791.129 361.793 791.607 362.115 791.854C362.191 791.9 362.281 791.915 362.372 791.905C362.453 792.041 362.584 792.136 362.76 792.131C363.974 791.99 365.093 791.421 366.216 790.973C367.163 790.544 368.156 790.081 369.103 789.643C369.304 790.368 369.496 791.109 369.451 791.391H369.435ZM369.607 784.761C366.906 785.698 364.166 786.569 361.551 787.728C359.853 782.715 358.221 777.677 356.669 772.614C356.679 772.498 356.644 772.392 356.573 772.302C355.128 767.556 353.752 762.79 352.473 757.994C350.175 749.716 347.51 741.545 344.981 733.338C344.069 730.245 343.152 727.156 342.271 724.053C342.044 723.232 341.842 722.401 341.636 721.574C343.596 720.924 345.409 719.897 347.304 719.086C348.019 718.798 348.503 718.501 349.022 718.345C349.606 719.005 349.873 719.957 350.276 721.005C351.117 723.287 351.717 725.645 352.367 727.988C354.609 735.776 356.81 743.58 359.425 751.258C361.465 757.712 363.43 764.191 365.45 770.649C366.977 775.304 368.604 779.934 370.055 784.615C369.904 784.66 369.758 784.731 369.607 784.761Z" fill="#005066"/>
</g>
<path opacity="0.4" d="M117.108 753.324C116.735 752.669 116.392 752.004 116.05 751.334C116.241 751.057 116.438 750.769 116.629 750.452C116.77 750.185 116.947 749.908 116.977 749.601C116.987 749.077 116.387 748.88 115.969 749.087C115.682 749.208 115.395 749.339 115.108 749.465C114.831 748.915 114.554 748.371 114.266 747.827C114.045 747.394 113.501 747.082 113.168 747.59C113.042 747.842 113.057 748.14 113.032 748.412C113.017 749.087 112.972 749.762 112.921 750.442C112.281 750.744 111.667 751.087 111.208 751.631C110.715 752.195 111.294 752.709 111.894 752.744C112.176 752.805 112.453 752.87 112.735 752.941C112.7 753.55 112.674 754.16 112.684 754.765C112.81 755.122 113.284 755.107 113.48 754.86C113.566 754.815 113.642 754.749 113.692 754.654C113.949 754.19 114.216 753.787 114.488 753.409C114.775 753.495 115.067 753.591 115.35 753.691C115.808 753.827 116.231 754.11 116.715 754.15C117.133 754.15 117.324 753.656 117.108 753.329V753.324Z" fill="#005066"/>
<path opacity="0.4" d="M325.197 739.872C325.071 739.676 324.95 739.474 324.829 739.268C325.096 738.855 325.363 738.437 325.605 738.003C325.822 737.676 325.63 737.167 325.202 737.187C324.774 737.293 324.376 737.51 323.978 737.721C323.625 737.071 323.262 736.426 322.824 735.827C322.567 735.55 322.053 735.625 321.952 736.013C321.862 736.613 321.892 737.232 321.852 737.837C321.842 738.134 321.832 738.452 321.821 738.769C321.272 739.041 320.738 739.338 320.25 739.701C319.942 739.973 320.078 740.517 320.501 740.563C320.92 740.593 321.333 740.643 321.741 740.709C321.701 741.495 321.655 742.23 321.59 742.794C321.625 743.283 322.381 743.333 322.492 742.855C322.492 742.85 322.492 742.845 322.492 742.84C322.774 742.548 322.945 741.978 323.187 741.721C323.313 741.53 323.439 741.338 323.565 741.147C324.25 741.369 324.93 741.656 325.62 742.024C325.917 742.114 326.245 741.888 326.235 741.57C326.038 740.945 325.474 740.462 325.187 739.857L325.197 739.872Z" fill="#005066"/>
<g opacity="0.4">
<path d="M65.3878 772.866C64.8084 769.188 64.0829 765.485 62.6269 762.039C61.977 760.473 61.2667 758.916 60.1533 757.616C59.3925 756.639 58.4101 755.833 57.2867 755.309C57.2514 755.163 57.1456 755.032 56.9743 754.996C56.8987 754.986 56.8282 754.981 56.7526 754.971C56.8282 752.689 56.2942 750.261 54.7929 748.507C53.2865 746.92 51.1504 745.893 48.9891 745.606C47.4676 745.419 45.9461 746.094 44.7773 747.026C43.3818 748.21 42.7369 750.054 42.4901 751.822C42.3389 752.79 42.3037 753.767 42.3389 754.744C42.3742 754.966 42.349 755.243 42.4095 755.475C42.3087 755.51 42.208 755.545 42.1072 755.581C42.0719 755.505 42.0165 755.445 41.9359 755.399C40.4547 754.629 38.6562 754.775 37.0591 755.027C33.3512 755.535 30.0059 757.823 27.8497 760.84C25.104 764.669 25.235 769.551 24.2929 773.99C23.6681 777.163 22.9981 779.904 21.1995 782.458C19.9803 784.262 17.9551 786.187 16.62 788.343C15.2245 790.645 14.5091 793.547 15.8391 796.046C17.2699 799.235 20.4741 801.129 23.6681 802.197C24.2425 802.389 26.3786 802.918 27.366 802.721C27.6028 803.311 27.8698 803.885 28.1923 804.434C29.5072 806.424 31.3511 807.981 33.3713 809.225C35.0893 810.218 36.8526 811.165 38.762 811.749C41.1298 812.495 43.6287 812.732 46.1023 812.601C52.4452 812.248 58.2187 809.754 61.9317 804.449C63.6396 802.046 64.7983 799.295 65.4986 796.439C65.9822 794.58 66.4105 792.701 66.5213 790.776C66.884 784.796 66.1838 778.786 65.4029 772.861L65.3878 772.866ZM46.4701 747.031C47.7246 746.386 48.843 746.326 50.3745 746.86C51.76 747.344 52.9641 747.953 54.022 749.041C55.1959 750.23 55.7551 752.407 55.8408 754.175C55.8609 754.402 55.8609 754.634 55.8508 754.86C55.211 754.79 54.5661 754.734 53.9213 754.694C53.9062 754.462 53.8659 754.226 53.8659 753.999C53.8104 751.127 51.7298 748.316 48.6364 748.648C47.4475 748.739 46.4499 749.58 45.8303 750.558C45.3365 751.394 45.135 752.372 45.004 753.324C44.9587 753.737 44.9285 754.15 44.9335 754.563C44.9436 754.669 44.9436 754.78 44.9688 754.886C44.4146 754.971 43.8604 755.072 43.3163 755.213C43.0594 752.361 43.5632 748.296 46.4751 747.036L46.4701 747.031ZM52.9741 754.649C51.3721 754.573 49.7649 754.563 48.1679 754.618C47.4122 754.629 46.6414 754.674 45.8756 754.755C45.7698 752.487 46.5305 750.205 48.2787 749.646C50.2083 749.122 52.1681 750.523 52.7172 752.588C52.9137 753.324 52.9389 753.838 52.9792 754.649H52.9741ZM26.8673 801.814C25.9554 801.799 25.643 801.724 24.711 801.522C21.6126 800.681 18.6755 799.049 17.0885 796.454C15.3655 793.718 15.9449 790.907 17.8442 788.151C19.0584 786.363 21.0282 784.489 22.3583 782.358C24.7211 778.599 25.2249 774.045 25.9201 769.748C26.3383 766.478 26.9227 763.606 28.8321 761.037C29.9304 759.415 32.6458 757.359 34.3789 756.674C36.5352 755.893 38.6612 755.551 40.5102 755.873C40.6814 755.908 40.8779 755.959 41.024 755.999C40.4295 756.271 39.8602 756.588 39.3212 756.961C39.0945 756.896 38.8073 756.926 38.5856 756.906C37.6435 756.886 36.6964 757.017 35.8047 757.339C31.2604 759.017 28.3132 763.339 27.5424 768.02C27.0285 771.062 26.9025 773.607 26.0461 776.66C25.2501 779.612 23.8445 782.68 22.0812 784.872C20.9627 786.262 19.6579 787.537 18.8669 789.154C18.4186 790.167 18.0508 791.26 18.0508 792.378C18.1012 793.764 18.5898 795.179 19.5168 796.222C21.1542 797.925 23.114 799.371 25.2601 800.363C25.7035 800.54 26.1922 800.782 26.6809 800.817C26.6909 800.852 26.696 800.892 26.7061 800.928C26.8068 801.22 26.9076 801.517 27.0083 801.809C26.958 801.809 26.9076 801.809 26.8622 801.809L26.8673 801.814ZM38.233 757.853C38.0667 758.009 37.9005 758.155 37.7443 758.326C35.4923 760.73 34.0766 763.788 32.8121 766.79C31.21 770.599 29.9203 774.529 28.686 778.473C26.7111 785.335 24.9327 792.711 26.4542 799.819C24.8571 799.381 22.5497 797.774 21.1995 796.57C20.0912 795.577 19.542 794.933 19.2146 793.744C18.8065 792.434 18.9576 791.592 19.4765 790.111C20.071 788.383 21.8746 786.7 23.2651 784.867C24.4843 783.239 25.3357 781.37 26.1015 779.501C27.0335 777.133 27.5424 774.614 27.9101 772.105C28.2376 769.596 28.4039 767.344 29.4467 764.825C30.3939 762.216 33.2504 759.248 35.9306 758.286C36.7971 757.939 37.4571 757.878 38.233 757.858V757.853ZM65.4734 791.94C64.9394 795.376 64.0779 798.741 62.6017 801.573C60.647 805.195 57.9315 808.067 54.1329 809.769C48.7221 812.228 41.4371 812.5 36.1271 809.674C33.0035 808.102 30.1974 806.208 28.6759 803.396C25.1795 796.152 27.1796 787.209 29.4115 779.269C30.6105 775.279 32.2529 770.458 33.6937 767.047C35.1699 763.642 36.6813 760.332 39.3917 758.054C42.8982 755.228 48.7019 755.349 53.755 755.616C54.5309 755.671 55.2815 755.727 55.9466 755.792C56.0675 755.913 56.2388 755.938 56.3899 755.893C56.6972 756.09 56.5763 755.984 56.8332 756.115C60.5614 757.913 62.0778 762.745 63.2466 766.866C64.5817 772.131 65.0351 776.952 65.4734 782.378C65.7001 785.401 65.7958 789.391 65.4734 791.935V791.94Z" fill="#005066"/>
<path d="M63.3424 775.723C62.9746 775.078 62.1736 774.786 61.4632 774.715C60.4959 774.655 59.5941 775.103 58.7729 775.561C58.6822 775.617 58.6319 775.687 58.5966 775.763C58.1482 775.995 58.5362 777.017 58.5009 777.335C58.5916 778.342 58.5966 779.355 58.5311 780.363C58.4354 782.942 57.9971 785.098 57.322 787.738C56.8132 789.834 56.39 791.361 55.3723 793.159C52.8432 797.885 47.8103 800.001 42.8227 799.104C40.3792 798.656 38.2985 797.643 36.6763 795.97C35.578 794.812 34.8122 792.409 34.6661 790.766C34.2883 787.033 35.1599 783.31 35.4974 779.602C35.6234 778.388 35.7544 777.662 35.9206 776.509C37.8653 776.534 39.7999 776.776 41.7395 776.866C44.5255 776.952 47.3165 776.942 50.1026 776.831C52.1581 776.715 54.2186 776.645 56.264 776.408C56.8132 776.337 57.3573 776.262 57.9064 776.186C58.0223 776.156 58.123 776.075 58.1835 775.975C58.3346 775.723 58.1936 775.37 57.9064 775.294C57.6092 775.254 57.3069 775.365 57.0096 775.385C51.9465 775.975 45.6641 776.186 40.1374 775.839C38.8729 775.753 37.6134 775.622 36.3438 775.587C36.0012 775.622 35.5881 775.466 35.306 775.713C35.2506 775.768 35.2153 775.834 35.1951 775.899C35.1347 775.954 35.0893 776.02 35.0641 776.111C34.4747 779.783 34.0918 783.496 33.6989 787.194C33.4721 790.197 33.7744 793.467 35.5276 796.006C36.9131 797.92 39.1449 799.054 41.3566 799.739C46.4097 801.129 52.0674 799.557 55.1557 795.189C56.7225 793.119 57.6092 790.635 58.1785 788.121C58.6319 786.297 59.0803 784.469 59.2818 782.595C59.5034 780.806 59.5488 778.72 59.4077 777.073C59.4883 777.108 59.574 777.143 59.6445 777.184C60.0173 777.34 60.3952 777.496 60.7982 777.567C61.5035 777.682 62.3449 777.803 62.9494 777.335C63.3877 776.947 63.6195 776.272 63.3474 775.728L63.3424 775.723ZM62.3449 776.624C62.3449 776.624 62.3096 776.645 62.2895 776.655C62.234 776.675 62.1484 776.7 62.1081 776.705C62.0829 776.71 62.0527 776.715 62.0275 776.72C61.9872 776.72 61.9469 776.73 61.9015 776.73C61.4582 776.806 60.3045 776.488 60.1533 776.393C59.972 776.332 59.8108 776.226 59.6395 776.141C61.1005 775.37 61.9318 775.627 62.496 776.08C62.5111 776.121 62.5262 776.176 62.5363 776.221C62.5363 776.232 62.5363 776.242 62.5363 776.247C62.5363 776.257 62.5363 776.262 62.5363 776.272C62.5262 776.307 62.5162 776.337 62.5061 776.373C62.4809 776.418 62.4356 776.534 62.3398 776.624H62.3449Z" fill="#005066"/>
<path d="M58.3748 767.808C58.1733 766.664 57.9264 765.531 57.6795 764.397C57.5183 763.969 57.4982 763.087 56.9289 763.067C56.8634 763.027 56.7878 763.002 56.6971 763.002C52.5509 763.213 48.3945 763.198 44.2432 763.193C42.6764 763.218 41.0844 763.118 39.5377 763.158C39.442 763.193 39.3765 763.259 39.3312 763.329C39.2455 763.385 39.17 763.465 39.1347 763.591C38.4143 765.672 37.9205 767.823 37.3261 769.944C37.0238 770.811 37.7341 771.259 38.4898 771.405C41.034 772 43.6739 771.803 46.2685 771.889C50.0621 771.959 53.901 772.226 57.6594 771.561C59.196 771.148 58.4856 768.942 58.3748 767.803V767.808ZM56.5712 763.909C56.7173 764.327 56.808 764.765 56.9037 765.198C56.9138 765.244 56.9238 765.294 56.9339 765.344C52.3745 765.642 47.795 765.647 43.2306 765.596C42.0114 765.556 40.5353 765.43 39.5629 765.334C39.6939 764.906 39.8249 764.478 39.966 764.055C45.4926 764.16 51.0596 764.221 56.5762 763.909H56.5712ZM57.4024 770.675C54.1681 771.269 49.7951 771.047 46.0972 770.962C43.6034 770.901 40.9333 771.037 38.8324 770.544C38.3639 770.408 38.3185 770.433 38.1926 770.322C38.5654 768.957 38.913 767.581 39.3009 766.221C42.5353 766.629 45.81 766.579 49.0646 766.523C51.7448 766.423 54.4603 766.543 57.1203 766.241C57.5385 768.251 58.012 770.695 57.3974 770.675H57.4024Z" fill="#005066"/>
</g>
<g opacity="0.4">
<path d="M30.3233 733.786C30.7011 733.091 30.6457 732.638 29.9555 732.199C28.3786 731.086 26.8975 729.741 25.0687 729.051C24.5598 728.834 23.8696 728.713 23.522 729.257C22.6404 730.376 21.6227 731.67 20.9829 732.557C20.5446 732.351 20.0911 732.169 19.6025 732.154C19.3606 732.154 19.1188 732.245 18.9475 732.416C18.1364 733.363 17.3605 734.351 16.5948 735.338C16.2925 735.716 16.0053 736.114 15.6728 736.467C15.2144 736.22 14.7609 735.968 14.3025 735.726C13.9851 735.545 13.6929 735.761 13.6224 736.033C13.5921 736.054 13.5619 736.074 13.5317 736.104C4.95197 745.444 -3.56727 754.86 -11.8397 764.478C-13.2251 766.191 -14.6357 767.894 -15.8801 769.712C-17.1144 771.466 -18.1321 773.556 -17.986 775.748C-17.4066 780.232 -12.3334 784.338 -8.65564 786.524C3.08792 793.789 7.28456 790.091 12.3981 778.519C16.2774 769.506 20.6504 760.714 24.9679 751.903C26.0863 749.55 27.3761 747.268 28.3333 744.845C28.5398 744.104 27.9 743.52 27.3358 743.152C27.1796 743.031 26.9932 742.91 26.7866 742.976C26.4995 743.046 26.3584 743.409 26.5095 743.656C26.9176 744.119 27.0738 743.978 27.4063 744.432C27.3962 744.422 27.3912 744.417 27.3811 744.407C27.3912 744.422 27.4063 744.437 27.4164 744.457C27.4264 744.487 27.4365 744.517 27.4416 744.548C27.1393 745.515 25.8445 748.014 25.0334 749.671C24.8873 749.636 24.7311 749.621 24.5951 749.565C21.0181 748.412 17.4714 745.696 14.1564 743.323C12.9725 742.376 11.9497 741.757 10.8162 740.522C10.796 740.502 10.7759 740.497 10.7557 740.482C11.8339 739.278 12.912 738.079 14.0304 736.915C14.0909 736.865 14.1513 736.799 14.2017 736.734C16.0104 737.731 17.8492 738.663 19.6226 739.721C21.4766 740.759 23.2298 742.019 25.1039 742.996C25.5876 743.087 25.8344 742.371 25.4012 742.139C22.4791 740.316 19.5168 738.567 16.499 736.91C17.5671 735.64 19.3909 733.197 19.6075 733.081C20.207 733.091 21.4212 733.827 22.4691 734.396C24.2878 735.474 27.2652 737.449 28.2829 738.225C28.2829 738.235 28.2829 738.245 28.2779 738.255C27.9655 739.268 26.8068 740.794 25.9554 741.948C25.7992 742.245 25.6581 742.114 25.6984 742.583C25.7891 742.966 26.3584 743.046 26.5448 742.694C27.0839 741.968 28.434 740.21 29.0033 738.976C29.1343 738.678 29.2552 738.346 29.1847 738.018C29.1494 737.797 29.0033 737.6 28.8321 737.464C28.6456 737.333 28.4542 737.207 28.2678 737.076C28.429 736.86 28.555 736.603 28.7212 736.401C29.2905 735.555 29.8497 734.693 30.3082 733.781L30.3233 733.786ZM-7.32057 786.237C-11.084 784.131 -14.8423 781.048 -16.4847 777.637C-17.7946 774.896 -16.6912 772.498 -14.933 769.969C-14.6307 769.541 -14.3133 769.118 -13.9959 768.7C-13.4014 770.403 -12.1873 771.808 -11.0739 773.199C-8.63549 776.106 -5.61269 778.463 -2.338 780.358C0.82082 782.217 4.0401 784.076 7.59692 785.068C7.6876 785.083 7.77829 785.108 7.86897 785.134C4.49855 790.026 0.563883 790.968 -7.32057 786.242V786.237ZM24.6354 750.502C20.202 759.531 15.7131 768.538 11.7281 777.773C10.5844 780.332 9.52143 782.519 8.41811 784.287C8.13598 784.207 7.80347 784.197 7.54654 784.081C4.46832 783.174 1.88887 781.728 -1.02812 780.04C-4.34312 778.126 -7.04852 776.277 -9.61286 773.43C-10.8472 772.045 -11.6885 771.088 -12.6004 769.506C-12.7616 769.203 -13.0891 768.579 -13.0588 768.614C-13.0991 768.438 -13.1445 768.251 -13.3158 768.161C-13.3914 768.11 -13.477 768.095 -13.5576 768.1C-12.2074 766.337 -10.7414 764.589 -9.19471 762.77C-3.24988 756.054 2.69999 749.344 8.7355 742.714C9.21411 742.195 9.68264 741.671 10.1562 741.152C10.1613 741.157 10.1613 741.167 10.1663 741.172C12.1916 743.283 21.2096 749.933 24.6354 750.497V750.502Z" fill="#005066"/>
<path d="M27.391 744.406C27.351 744.356 27.326 744.336 27.391 744.406Z" fill="#005066"/>
<path d="M15.1992 747.747C13.3603 746.759 11.0378 747.752 9.75815 749.208C9.58686 749.55 9.94959 749.938 10.3073 749.832C10.932 749.444 10.9874 749.218 11.5769 748.9C12.4484 748.336 13.325 748.195 14.0304 748.311C16.5897 748.744 15.6979 752.911 14.8415 755.802C13.6223 759.41 12.0907 762.533 9.89921 765.833C8.11576 768.498 6.46834 770.73 3.92415 772.846C2.71 773.843 0.815712 774.745 -0.126392 773.894C-0.851863 773.173 -1.17933 772.105 -1.10376 770.856C-1.18941 766.589 0.845941 763.042 3.06266 759.203C4.36246 757.062 5.63707 755.48 7.12832 753.681C7.46586 753.278 7.80341 752.875 8.18126 752.508C8.2669 752.422 8.31728 752.301 8.31728 752.18C8.3324 751.782 7.79837 751.56 7.52632 751.853C4.75542 754.84 2.36741 758.195 0.533585 761.838C-0.353101 763.637 -1.25994 765.46 -1.69321 767.43C-2.00053 769.214 -2.25242 771.103 -1.80404 772.881C-0.826672 775.859 1.82835 775.582 3.97453 773.959C6.57413 772.07 8.54903 769.46 10.3526 766.831C12.3124 763.944 13.9749 760.866 15.179 757.591C16.1312 755.092 17.9147 749.545 15.1941 747.747H15.1992Z" fill="#005066"/>
<path d="M30.6507 709.151C28.9227 708.319 27.0183 707.936 25.1089 707.821C22.7612 707.614 20.3077 708.118 18.358 709.483C17.3504 710.219 16.4637 711.115 15.6476 712.053C14.9171 712.969 14.2319 714.032 13.6777 714.667C12.393 716.244 10.7255 717.267 9.13849 717.489C7.17871 717.796 5.9696 716.214 3.79822 715.629C-0.887108 714.587 -3.5522 718.975 -4.42378 722.955C-4.95277 724.894 -4.69079 726.985 -4.05097 728.864C-3.58747 730.078 -2.80658 731.157 -1.96524 732.139C-0.695664 733.393 0.966873 734.315 2.71002 734.698C4.29195 735.021 5.92929 734.482 7.2694 733.65C8.61454 732.658 9.0327 730.895 8.38279 729.373C7.76312 727.811 6.79079 726.784 6.48851 725.338C6.34241 724.461 6.83109 723.438 7.72282 723.489C8.79087 723.474 10.2519 724.668 11.6928 725.438C13.4258 726.396 15.6677 726.738 17.426 725.67C18.2673 725.096 19.0482 724.365 19.5016 723.443C20.4639 721.227 20.2976 718.622 21.5219 716.839C22.9779 714.244 26.2727 712.637 29.1595 713.811C30.3484 714.254 31.8447 715.564 32.1319 716.99C32.6659 719.06 32.1319 721.474 31.1243 723.398C30.5651 724.426 30.2225 724.884 29.4063 725.695C29.099 726.048 28.6557 726.34 28.5247 726.804C28.3836 727.559 29.1947 727.983 29.7338 728.32C30.1469 728.507 30.7867 729.086 31.2049 728.779C31.2956 728.764 31.3812 728.723 31.4518 728.653C34.1169 725.993 36.2328 722.476 36.651 718.677C36.9432 714.566 34.4191 710.748 30.6658 709.146L30.6507 709.151ZM32.2578 726.355C32.0311 726.698 31.5273 727.282 31.0185 727.806C30.9782 727.842 30.9379 727.877 30.8976 727.907C30.8573 727.892 30.822 727.877 30.8019 727.867C30.2376 727.575 29.6633 727.232 29.4466 727C29.4466 727 29.4416 726.99 29.4366 726.99C29.4416 726.98 29.4517 726.97 29.4567 726.96C29.3559 727.091 29.9958 726.391 30.1973 726.204C32.7717 723.665 34.3738 718.461 32.3284 715.221C29.5323 711.236 23.9855 711.886 21.2297 715.564C20.5596 716.506 20.0155 717.554 19.7334 718.677C19.3052 720.431 19.0381 722.955 18.1767 723.766C16.6653 725.524 15.0783 725.791 12.8465 724.97C12.0404 724.678 10.2217 723.368 9.00751 722.864C7.39535 722.033 5.62702 722.96 5.53633 724.804C5.47588 727.081 7.80343 729.222 7.76816 730.789C7.69763 731.675 7.57168 732.124 6.75049 732.885C6.04517 733.313 4.61942 733.978 3.38511 733.867C1.83341 733.691 -0.237207 732.708 -1.51182 731.272C-1.92997 730.779 -2.95772 729.287 -3.14917 728.658C-3.5774 727.469 -3.71342 726.446 -3.79907 725.454C-3.81922 724.27 -3.67312 723.66 -3.34061 722.456C-3.00306 721.171 -2.7159 720.436 -1.97531 719.262C-0.962677 717.539 0.452999 716.476 2.27171 716.41C3.17351 716.38 3.9544 716.602 4.4582 716.834C5.56656 717.383 6.60438 718.123 7.83365 718.38C10.8917 718.824 13.5618 716.577 15.1992 714.209C16.8668 711.841 18.7862 709.695 21.5723 709.03C23.6781 708.435 26.0863 708.707 28.2274 709.241C32.2024 710.259 35.4116 713.327 35.6837 717.257C35.9305 720.597 34.3839 723.534 32.2578 726.35V726.355Z" fill="#005066"/>
</g>
</g>
<defs>
<clipPath id="clip0_1216_2692">
<rect width="360" height="800" fill="white"/>
</clipPath>
</defs>
</svg>
