<svg width="20" height="20" viewBox="0 0 20 20" fill="none" xmlns="http://www.w3.org/2000/svg">
<path d="M0.526123 15.9306C0.526123 16.9158 0.873491 17.7495 1.56823 18.4316C2.26297 19.1137 3.10297 19.4611 4.08823 19.4737H15.9303C16.903 19.4737 17.7366 19.1264 18.4314 18.4316C19.1261 17.7369 19.4735 16.9032 19.4735 15.9306V4.08847C19.4735 3.10321 19.1261 2.26321 18.4314 1.56847C17.7366 0.873736 16.903 0.526367 15.9303 0.526367H4.08823C3.10297 0.526367 2.26297 0.873736 1.56823 1.56847C0.873491 2.26321 0.526123 3.10321 0.526123 4.08847L0.526123 15.9306ZM2.89454 15.9306V4.08847C2.89454 3.76005 3.00823 3.48216 3.2356 3.25479C3.46297 3.02742 3.74718 2.90742 4.08823 2.89479H15.9303C16.2461 2.89479 16.524 3.01479 16.764 3.25479C17.004 3.49479 17.1177 3.77268 17.1051 4.08847V15.9306C17.1051 16.259 16.9914 16.5369 16.764 16.7643C16.5366 16.9916 16.2588 17.1053 15.9303 17.1053H4.08823C3.75981 17.1053 3.4756 16.9916 3.2356 16.7643C2.9956 16.5369 2.88191 16.259 2.89454 15.9306ZM4.08823 14.7369C4.08823 15.0653 4.20191 15.3495 4.42928 15.5895C4.65665 15.8295 4.93454 15.9432 5.26297 15.9306H14.7366C15.0651 15.9306 15.343 15.8169 15.5703 15.5895C15.7977 15.3622 15.9177 15.0779 15.9303 14.7369V14.1874C15.8419 14.0106 15.6209 13.4801 15.2672 12.5958C14.9135 11.7116 14.5977 11.0043 14.3198 10.4737C14.0419 9.94321 13.7893 9.52637 13.5619 9.22321C13.3472 8.99584 13.1261 8.87584 12.8988 8.86321C12.6714 8.85058 12.444 8.92637 12.2166 9.09058C11.9893 9.25479 11.7619 9.47584 11.5345 9.75374C11.3072 10.0316 11.0735 10.3411 10.8335 10.6822C10.5935 11.0232 10.3661 11.3579 10.1514 11.6864C9.93665 12.0148 9.70928 12.3306 9.46928 12.6337C9.22928 12.9369 9.01454 13.1706 8.82507 13.3348C8.6356 13.499 8.42086 13.5874 8.18086 13.6001C7.95349 13.6001 7.62507 13.3158 7.1956 12.7474C7.13244 12.6716 7.0377 12.5516 6.91139 12.3874C6.46928 11.7937 6.15349 11.4337 5.96402 11.3074C5.66086 11.1053 5.42718 11.1748 5.26297 11.5158C5.17454 11.7179 4.99139 12.1601 4.71349 12.8422C4.4356 13.5243 4.22718 14.0295 4.08823 14.3579V14.7369ZM4.08823 5.86953C4.08823 6.36216 4.25875 6.779 4.59981 7.12005C4.94086 7.4611 5.3577 7.63163 5.85033 7.63163C6.34297 7.63163 6.76612 7.4611 7.11981 7.12005C7.47349 6.779 7.64402 6.36216 7.63139 5.86953C7.61875 5.37689 7.44823 4.95374 7.11981 4.60005C6.79139 4.24637 6.36823 4.07584 5.85033 4.08847C5.33244 4.1011 4.9156 4.27163 4.59981 4.60005C4.28402 4.92847 4.11349 5.35163 4.08823 5.86953Z" fill="#2970E4"/>
</svg>
