<svg width="19" height="15" viewBox="0 0 19 15" fill="none" xmlns="http://www.w3.org/2000/svg">
<path id="Intersect" fill-rule="evenodd" clip-rule="evenodd" d="M13.3413 2.40029C12.3468 2.40029 11.5413 3.20579 11.5413 4.20029C11.5413 5.19479 12.3468 6.00029 13.3413 6.00029C14.3358 6.00029 15.1413 5.19479 15.1413 4.20029C15.1413 3.20579 14.3358 2.40029 13.3413 2.40029ZM13.2549 7.26658L16.8666 10.8773V1.8H2.46663V9.66687L7.74512 4.38838L7.75954 4.40288L7.77302 4.38838L11.9391 8.55352L13.2261 7.26658L13.2405 7.2802L13.2549 7.26658ZM0.666626 12.4C0.666626 13.5046 1.56205 14.4 2.66662 14.4H16.6666C17.7712 14.4 18.6666 13.5046 18.6666 12.4V1.99999C18.6666 0.895427 17.7712 0 16.6666 0H2.66662C1.56205 0 0.666626 0.895428 0.666626 1.99999V12.4Z" fill="#2970E4"/>
</svg>
