<svg width="20" height="20" viewBox="0 0 20 20" fill="none" xmlns="http://www.w3.org/2000/svg">
<mask id="mask0_39_346" style="mask-type:alpha" maskUnits="userSpaceOnUse" x="0" y="0" width="20" height="20">
<rect width="20" height="20" fill="#D9D9D9"/>
</mask>
<g mask="url(#mask0_39_346)">
<path d="M10.0001 18.3334C8.86119 18.3334 7.7848 18.1147 6.77092 17.6772C5.75703 17.2397 4.87161 16.6424 4.11466 15.8855C3.35772 15.1286 2.7605 14.2431 2.323 13.2292C1.8855 12.2154 1.66675 11.139 1.66675 10.0001C1.66675 8.8473 1.8855 7.76744 2.323 6.7605C2.7605 5.75355 3.35772 4.87161 4.11466 4.11466C4.87161 3.35772 5.75703 2.7605 6.77092 2.323C7.7848 1.8855 8.86119 1.66675 10.0001 1.66675C11.1529 1.66675 12.2327 1.8855 13.2397 2.323C14.2466 2.7605 15.1286 3.35772 15.8855 4.11466C16.6424 4.87161 17.2397 5.75355 17.6772 6.7605C18.1147 7.76744 18.3334 8.8473 18.3334 10.0001C18.3334 11.139 18.1147 12.2154 17.6772 13.2292C17.2397 14.2431 16.6424 15.1286 15.8855 15.8855C15.1286 16.6424 14.2466 17.2397 13.2397 17.6772C12.2327 18.1147 11.1529 18.3334 10.0001 18.3334ZM10.0001 16.6251C10.3612 16.1251 10.6737 15.6042 10.9376 15.0626C11.2015 14.5209 11.4167 13.9445 11.5834 13.3334H8.41675C8.58342 13.9445 8.79869 14.5209 9.06258 15.0626C9.32647 15.6042 9.63897 16.1251 10.0001 16.6251ZM7.83342 16.2917C7.58342 15.8334 7.36467 15.3577 7.17717 14.8647C6.98967 14.3716 6.83342 13.8612 6.70842 13.3334H4.25008C4.65286 14.0279 5.15633 14.632 5.7605 15.1459C6.36467 15.6598 7.05564 16.0417 7.83342 16.2917ZM12.1667 16.2917C12.9445 16.0417 13.6355 15.6598 14.2397 15.1459C14.8438 14.632 15.3473 14.0279 15.7501 13.3334H13.2917C13.1667 13.8612 13.0105 14.3716 12.823 14.8647C12.6355 15.3577 12.4167 15.8334 12.1667 16.2917ZM3.54175 11.6667H6.37508C6.33342 11.389 6.30217 11.1147 6.28133 10.8438C6.2605 10.573 6.25008 10.2917 6.25008 10.0001C6.25008 9.70842 6.2605 9.42717 6.28133 9.15633C6.30217 8.8855 6.33342 8.61119 6.37508 8.33342H3.54175C3.4723 8.61119 3.42022 8.8855 3.3855 9.15633C3.35078 9.42717 3.33341 9.70842 3.33341 10.0001C3.33341 10.2917 3.35078 10.573 3.3855 10.8438C3.42022 11.1147 3.4723 11.389 3.54175 11.6667ZM8.04175 11.6667H11.9584C12.0001 11.389 12.0313 11.1147 12.0522 10.8438C12.073 10.573 12.0834 10.2917 12.0834 10.0001C12.0834 9.70842 12.073 9.42717 12.0522 9.15633C12.0313 8.8855 12.0001 8.61119 11.9584 8.33342H8.04175C8.00008 8.61119 7.96883 8.8855 7.948 9.15633C7.92717 9.42717 7.91675 9.70842 7.91675 10.0001C7.91675 10.2917 7.92717 10.573 7.948 10.8438C7.96883 11.1147 8.00008 11.389 8.04175 11.6667ZM13.6251 11.6667H16.4584C16.5279 11.389 16.5799 11.1147 16.6147 10.8438C16.6494 10.573 16.6667 10.2917 16.6667 10.0001C16.6667 9.70842 16.6494 9.42717 16.6147 9.15633C16.5799 8.8855 16.5279 8.61119 16.4584 8.33342H13.6251C13.6667 8.61119 13.698 8.8855 13.7188 9.15633C13.7397 9.42717 13.7501 9.70842 13.7501 10.0001C13.7501 10.2917 13.7397 10.573 13.7188 10.8438C13.698 11.1147 13.6667 11.389 13.6251 11.6667ZM13.2917 6.66675H15.7501C15.3473 5.9723 14.8438 5.36814 14.2397 4.85425C13.6355 4.34036 12.9445 3.95841 12.1667 3.70841C12.4167 4.16675 12.6355 4.64244 12.823 5.1355C13.0105 5.62855 13.1667 6.13897 13.2917 6.66675ZM8.41675 6.66675H11.5834C11.4167 6.05564 11.2015 5.47925 10.9376 4.93758C10.6737 4.39591 10.3612 3.87508 10.0001 3.37508C9.63897 3.87508 9.32647 4.39591 9.06258 4.93758C8.79869 5.47925 8.58342 6.05564 8.41675 6.66675ZM4.25008 6.66675H6.70842C6.83342 6.13897 6.98967 5.62855 7.17717 5.1355C7.36467 4.64244 7.58342 4.16675 7.83342 3.70841C7.05564 3.95841 6.36467 4.34036 5.7605 4.85425C5.15633 5.36814 4.65286 5.9723 4.25008 6.66675Z" fill="#2970E4"/>
</g>
</svg>
