<svg width="18" height="19" viewBox="0 0 18 19" fill="none" xmlns="http://www.w3.org/2000/svg">
<path fill-rule="evenodd" clip-rule="evenodd" d="M4.275 6.075C4.275 3.46546 6.39046 1.35 9 1.35C11.2008 1.35 13.0516 2.85518 13.5761 4.89325C13.6691 5.25427 14.0371 5.47161 14.3981 5.3787C14.7592 5.28577 14.9764 4.91778 14.8836 4.55675C14.2092 1.93671 11.8317 0 9 0C5.64487 0 2.925 2.71987 2.925 6.075V7.92414C1.92172 7.99911 1.26838 8.1882 0.790812 8.66583C0 9.45666 0 10.7294 0 13.275C0 15.8206 0 17.0933 0.790812 17.8842C1.58162 18.675 2.85441 18.675 5.4 18.675H12.6C15.1456 18.675 16.4183 18.675 17.2092 17.8842C18 17.0933 18 15.8206 18 13.275C18 10.7294 18 9.45666 17.2092 8.66583C16.4183 7.875 15.1456 7.875 12.6 7.875H5.4C4.99364 7.875 4.61971 7.875 4.275 7.87824V6.075ZM10.8 13.275C10.8 14.2691 9.99414 15.075 9 15.075C8.00586 15.075 7.2 14.2691 7.2 13.275C7.2 12.2809 8.00586 11.475 9 11.475C9.99414 11.475 10.8 12.2809 10.8 13.275Z" fill="#2970E4"/>
</svg>
