<svg width="18px" height="18px" viewBox="0 0 18 18" xmlns="http://www.w3.org/2000/svg" class="icon"><path d="M15.258 12.867h-1.236c-0.084 0 -0.163 0.037 -0.216 0.102 -0.123 0.149 -0.255 0.294 -0.394 0.431a6.219 6.219 0 0 1 -1.981 1.334A6.202 6.202 0 0 1 9.007 15.223c-0.842 0 -1.658 -0.165 -2.424 -0.489a6.219 6.219 0 0 1 -1.981 -1.334 6.21 6.21 0 0 1 -1.336 -1.978C2.941 10.656 2.777 9.842 2.777 9s0.165 -1.656 0.489 -2.422c0.313 -0.74 0.763 -1.406 1.336 -1.978s1.239 -1.021 1.981 -1.334c0.766 -0.323 1.582 -0.489 2.424 -0.489s1.658 0.163 2.424 0.489c0.742 0.313 1.408 0.763 1.981 1.334 0.139 0.139 0.269 0.283 0.394 0.431 0.053 0.065 0.134 0.102 0.216 0.102H15.258c0.111 0 0.179 -0.123 0.118 -0.216C14.027 2.821 11.668 1.434 8.988 1.441 4.776 1.452 1.399 4.871 1.441 9.077 1.484 13.217 4.855 16.559 9.007 16.559c2.674 0 5.022 -1.385 6.369 -3.475 0.06 -0.093 -0.007 -0.216 -0.118 -0.216m1.563 -3.978L14.326 6.921c-0.093 -0.074 -0.229 -0.007 -0.229 0.111v1.336H8.578c-0.077 0 -0.141 0.063 -0.141 0.141v0.984c0 0.077 0.063 0.141 0.141 0.141h5.52v1.336c0 0.118 0.137 0.185 0.229 0.111l2.494 -1.969a0.141 0.141 0 0 0 0 -0.221"/></svg>