<svg width="120" height="120" viewBox="0 0 120 120" fill="none" xmlns="http://www.w3.org/2000/svg">
<path d="M114.375 71.25C114.375 101.28 90.0305 114.375 60 114.375C29.9695 114.375 5.625 101.28 5.625 71.25C5.625 41.2195 29.9695 5.625 60 5.625C90.0305 5.625 114.375 41.2195 114.375 71.25Z" fill="#FFC70D"/>
<path d="M60 106.875C31.2314 106.875 7.69664 94.8466 5.7682 67.4353C5.68359 68.7138 5.625 69.9881 5.625 71.25C5.625 101.28 29.9695 114.375 60 114.375C90.0305 114.375 114.375 101.28 114.375 71.25C114.375 69.9881 114.316 68.7138 114.232 67.4353C112.303 94.8466 88.7686 106.875 60 106.875Z" fill="#F89F00"/>
<path d="M60 106.875C31.2314 106.875 7.69664 94.8466 5.7682 67.4353C5.68359 68.7138 5.625 69.9881 5.625 71.25C5.625 101.28 29.9695 114.375 60 114.375C90.0305 114.375 114.375 101.28 114.375 71.25C114.375 69.9881 114.316 68.7138 114.232 67.4353C112.303 94.8466 88.7686 106.875 60 106.875Z" fill="#F89F00"/>
<path d="M42.1875 37.5C39.5986 37.5 37.5 39.5156 37.5 42C37.5 39.5156 35.4014 37.5 32.8125 37.5C30.2236 37.5 28.125 39.5156 28.125 42C28.125 44.4844 34.9111 52.5 37.5 52.5C40.0889 52.5 46.875 44.4844 46.875 42C46.875 39.5156 44.7764 37.5 42.1875 37.5Z" fill="#E42E3D"/>
<path d="M87.1875 37.5C84.5986 37.5 82.5 39.5156 82.5 42C82.5 39.5156 80.4014 37.5 77.8125 37.5C75.2236 37.5 73.125 39.5156 73.125 42C73.125 44.4844 79.9111 52.5 82.5 52.5C85.0889 52.5 91.875 44.4844 91.875 42C91.875 39.5156 89.7764 37.5 87.1875 37.5Z" fill="#E42E3D"/>
<path d="M64.9088 58.125C66.0651 57.1279 66.888 55.8004 67.2667 54.3213C67.6454 52.8422 67.5617 51.2825 67.0269 49.8524C66.492 48.4223 65.5317 47.1905 64.2754 46.3229C63.019 45.4553 61.5269 44.9936 60.0001 45H59.4324L53.3349 49.065C52.9266 49.3431 52.6445 49.7712 52.55 50.2561C52.4555 50.7411 52.5562 51.2437 52.8303 51.6548C53.1044 52.0659 53.5296 52.3522 54.0136 52.4515C54.4976 52.5508 55.0012 52.455 55.415 52.185L60.5157 48.7847C61.4579 48.9137 62.3159 49.3959 62.916 50.1337C63.5161 50.8715 63.8135 51.8097 63.748 52.7584C63.6824 53.7072 63.2589 54.5956 62.5631 55.2438C61.8672 55.8921 60.9511 56.2517 60.0001 56.25C59.5028 56.25 59.0259 56.4475 58.6743 56.7992C58.3226 57.1508 58.1251 57.6277 58.1251 58.125C58.1251 58.6223 58.3226 59.0992 58.6743 59.4508C59.0259 59.8025 59.5028 60 60.0001 60C60.951 59.9986 61.8669 60.3585 62.5625 61.0068C63.2581 61.6551 63.6814 62.5435 63.7468 63.4922C63.8122 64.4408 63.5147 65.3789 62.9146 66.1165C62.3145 66.8542 61.4566 67.3363 60.5145 67.4653L55.415 64.065C55.0012 63.795 54.4976 63.6993 54.0136 63.7985C53.5296 63.8978 53.1044 64.1841 52.8303 64.5952C52.5562 65.0063 52.4555 65.5089 52.55 65.9939C52.6445 66.4788 52.9266 66.9069 53.3349 67.185L59.4324 71.25H60.0001C61.5269 71.2564 63.019 70.7947 64.2754 69.9271C65.5317 69.0595 66.492 67.8277 67.0269 66.3976C67.5617 64.9675 67.6454 63.4079 67.2667 61.9287C66.888 60.4496 66.0651 59.1221 64.9088 58.125Z" fill="#EF5267"/>
<path d="M26.25 58.125C29.3566 58.125 31.875 56.4461 31.875 54.375C31.875 52.3039 29.3566 50.625 26.25 50.625C23.1434 50.625 20.625 52.3039 20.625 54.375C20.625 56.4461 23.1434 58.125 26.25 58.125Z" fill="#F597A4"/>
<path d="M93.75 58.125C96.8566 58.125 99.375 56.4461 99.375 54.375C99.375 52.3039 96.8566 50.625 93.75 50.625C90.6434 50.625 88.125 52.3039 88.125 54.375C88.125 56.4461 90.6434 58.125 93.75 58.125Z" fill="#F597A4"/>
</svg>
