<svg width="120" height="120" viewBox="0 0 120 120" fill="none" xmlns="http://www.w3.org/2000/svg">
<path d="M114.375 71.25C114.375 101.28 90.0305 114.375 60 114.375C29.9695 114.375 5.625 101.28 5.625 71.25C5.625 41.2195 29.9695 5.625 60 5.625C90.0305 5.625 114.375 41.2195 114.375 71.25Z" fill="#FFC70D"/>
<path d="M60 106.875C31.2314 106.875 7.69664 94.8466 5.7682 67.4353C5.68359 68.7138 5.625 69.9881 5.625 71.25C5.625 101.28 29.9695 114.375 60 114.375C90.0305 114.375 114.375 101.28 114.375 71.25C114.375 69.9881 114.316 68.7138 114.232 67.4353C112.303 94.8466 88.7686 106.875 60 106.875Z" fill="#F89F00"/>
<path d="M80.625 52.5C85.8027 52.5 90 48.3027 90 43.125C90 37.9473 85.8027 33.75 80.625 33.75C75.4473 33.75 71.25 37.9473 71.25 43.125C71.25 48.3027 75.4473 52.5 80.625 52.5Z" fill="white"/>
<path d="M39.375 52.5C44.5527 52.5 48.75 48.3027 48.75 43.125C48.75 37.9473 44.5527 33.75 39.375 33.75C34.1973 33.75 30 37.9473 30 43.125C30 48.3027 34.1973 52.5 39.375 52.5Z" fill="white"/>
<path d="M60 73.125C64.1421 73.125 67.5 66.4093 67.5 58.125C67.5 49.8407 64.1421 43.125 60 43.125C55.8579 43.125 52.5 49.8407 52.5 58.125C52.5 66.4093 55.8579 73.125 60 73.125Z" fill="#483D23"/>
<path d="M66.6647 64.9847C65.426 60.9267 62.9192 58.125 60 58.125C57.0809 58.125 54.574 60.9267 53.3353 64.9847C54.4547 69.3263 56.599 72.431 59.1312 73.0163C59.7013 73.1613 60.2987 73.1613 60.8688 73.0163C63.401 72.431 65.5453 69.3263 66.6647 64.9847Z" fill="#EF5267"/>
<path d="M39.375 45C40.4105 45 41.25 44.1605 41.25 43.125C41.25 42.0895 40.4105 41.25 39.375 41.25C38.3395 41.25 37.5 42.0895 37.5 43.125C37.5 44.1605 38.3395 45 39.375 45Z" fill="#483D23"/>
<path d="M80.625 45C81.6605 45 82.5 44.1605 82.5 43.125C82.5 42.0895 81.6605 41.25 80.625 41.25C79.5895 41.25 78.75 42.0895 78.75 43.125C78.75 44.1605 79.5895 45 80.625 45Z" fill="#483D23"/>
<path d="M48.75 37.5H30C29.5027 37.5 29.0258 37.3025 28.6742 36.9508C28.3225 36.5992 28.125 36.1223 28.125 35.625C28.125 35.1277 28.3225 34.6508 28.6742 34.2992C29.0258 33.9475 29.5027 33.75 30 33.75H48.75C49.2473 33.75 49.7242 33.9475 50.0758 34.2992C50.4275 34.6508 50.625 35.1277 50.625 35.625C50.625 36.1223 50.4275 36.5992 50.0758 36.9508C49.7242 37.3025 49.2473 37.5 48.75 37.5Z" fill="#B46D2F"/>
<path d="M90 37.5H71.25C70.7527 37.5 70.2758 37.3025 69.9242 36.9508C69.5725 36.5992 69.375 36.1223 69.375 35.625C69.375 35.1277 69.5725 34.6508 69.9242 34.2992C70.2758 33.9475 70.7527 33.75 71.25 33.75H90C90.4973 33.75 90.9742 33.9475 91.3258 34.2992C91.6775 34.6508 91.875 35.1277 91.875 35.625C91.875 36.1223 91.6775 36.5992 91.3258 36.9508C90.9742 37.3025 90.4973 37.5 90 37.5Z" fill="#B46D2F"/>
</svg>
