<svg width="120" height="120" viewBox="0 0 120 120" fill="none" xmlns="http://www.w3.org/2000/svg">
<path d="M114.375 71.25C114.375 101.28 90.0305 114.375 60 114.375C29.9695 114.375 5.625 101.28 5.625 71.25C5.625 41.2195 29.9695 5.625 60 5.625C90.0305 5.625 114.375 41.2195 114.375 71.25Z" fill="#FFC70D"/>
<path d="M60 106.875C31.2314 106.875 7.69664 94.8466 5.7682 67.4353C5.68359 68.7138 5.625 69.9881 5.625 71.25C5.625 101.28 29.9695 114.375 60 114.375C90.0305 114.375 114.375 101.28 114.375 71.25C114.375 69.9881 114.316 68.7138 114.232 67.4353C112.303 94.8466 88.7686 106.875 60 106.875Z" fill="#F89F00"/>
<path d="M37.5 52.5C40.6066 52.5 43.125 49.9816 43.125 46.875C43.125 43.7684 40.6066 41.25 37.5 41.25C34.3934 41.25 31.875 43.7684 31.875 46.875C31.875 49.9816 34.3934 52.5 37.5 52.5Z" fill="white"/>
<path d="M37.5 48.75C38.5355 48.75 39.375 47.9105 39.375 46.875C39.375 45.8395 38.5355 45 37.5 45C36.4645 45 35.625 45.8395 35.625 46.875C35.625 47.9105 36.4645 48.75 37.5 48.75Z" fill="#483D23"/>
<path d="M82.5 52.5C85.6066 52.5 88.125 49.9816 88.125 46.875C88.125 43.7684 85.6066 41.25 82.5 41.25C79.3934 41.25 76.875 43.7684 76.875 46.875C76.875 49.9816 79.3934 52.5 82.5 52.5Z" fill="white"/>
<path d="M82.5 48.75C83.5355 48.75 84.375 47.9105 84.375 46.875C84.375 45.8395 83.5355 45 82.5 45C81.4645 45 80.625 45.8395 80.625 46.875C80.625 47.9105 81.4645 48.75 82.5 48.75Z" fill="#483D23"/>
<path d="M60 63.75C57.3267 63.75 55.6045 62.5158 54.2203 61.5234C53.032 60.672 52.0936 60 50.625 60H45C44.5027 60 44.0258 59.8025 43.6742 59.4508C43.3225 59.0992 43.125 58.6223 43.125 58.125C43.125 57.6277 43.3225 57.1508 43.6742 56.7992C44.0258 56.4475 44.5027 56.25 45 56.25H50.625C53.2983 56.25 55.0205 57.4842 56.4047 58.4766C57.593 59.328 58.5314 60 60 60C62.9801 60 64.4018 58.5827 66.2009 56.7891C68.1171 54.8784 70.5021 52.5 75 52.5C75.4973 52.5 75.9742 52.6975 76.3258 53.0492C76.6775 53.4008 76.875 53.8777 76.875 54.375C76.875 54.8723 76.6775 55.3492 76.3258 55.7008C75.9742 56.0525 75.4973 56.25 75 56.25C72.053 56.25 70.6385 57.66 68.8486 59.4452C66.9251 61.3622 64.5309 63.75 60 63.75Z" fill="#B46D2F"/>
<path d="M41.25 37.5H33.75C33.2527 37.5 32.7758 37.3025 32.4242 36.9508C32.0725 36.5992 31.875 36.1223 31.875 35.625C31.875 35.1277 32.0725 34.6508 32.4242 34.2992C32.7758 33.9475 33.2527 33.75 33.75 33.75H41.25C41.7471 33.7495 42.2238 33.5518 42.5753 33.2003C42.9268 32.8488 43.1245 32.3721 43.125 31.875C43.125 31.3777 43.3225 30.9008 43.6742 30.5492C44.0258 30.1975 44.5027 30 45 30C45.4973 30 45.9742 30.1975 46.3258 30.5492C46.6775 30.9008 46.875 31.3777 46.875 31.875C46.8733 33.3663 46.2802 34.7961 45.2256 35.8506C44.1711 36.9052 42.7413 37.4983 41.25 37.5Z" fill="#483D23"/>
<path d="M86.25 37.5H78.75C77.2587 37.4983 75.8289 36.9052 74.7744 35.8506C73.7198 34.7961 73.1267 33.3663 73.125 31.875C73.125 31.3777 73.3225 30.9008 73.6742 30.5492C74.0258 30.1975 74.5027 30 75 30C75.4973 30 75.9742 30.1975 76.3258 30.5492C76.6775 30.9008 76.875 31.3777 76.875 31.875C76.8755 32.3721 77.0732 32.8488 77.4247 33.2003C77.7762 33.5518 78.2529 33.7495 78.75 33.75H86.25C86.7473 33.75 87.2242 33.9475 87.5758 34.2992C87.9275 34.6508 88.125 35.1277 88.125 35.625C88.125 36.1223 87.9275 36.5992 87.5758 36.9508C87.2242 37.3025 86.7473 37.5 86.25 37.5Z" fill="#483D23"/>
</svg>
