<svg width="120" height="120" viewBox="0 0 120 120" fill="none" xmlns="http://www.w3.org/2000/svg">
<path d="M114.375 71.25C114.375 101.28 90.0305 114.375 60 114.375C29.9695 114.375 5.625 101.28 5.625 71.25C5.625 41.2195 29.9695 5.625 60 5.625C90.0305 5.625 114.375 41.2195 114.375 71.25Z" fill="#FFC70D"/>
<path d="M60 106.875C31.2314 106.875 7.69664 94.8466 5.7682 67.4353C5.68359 68.7138 5.625 69.9881 5.625 71.25C5.625 101.28 29.9695 114.375 60 114.375C90.0305 114.375 114.375 101.28 114.375 71.25C114.375 69.9881 114.316 68.7138 114.232 67.4353C112.303 94.8466 88.7686 106.875 60 106.875Z" fill="#F89F00"/>
<path d="M60 106.875C31.2314 106.875 7.69664 94.8466 5.7682 67.4353C5.68359 68.7138 5.625 69.9881 5.625 71.25C5.625 101.28 29.9695 114.375 60 114.375C90.0305 114.375 114.375 101.28 114.375 71.25C114.375 69.9881 114.316 68.7138 114.232 67.4353C112.303 94.8466 88.7686 106.875 60 106.875Z" fill="#F89F00"/>
<path d="M60 106.875C31.2314 106.875 7.69664 94.8466 5.7682 67.4353C5.68359 68.7138 5.625 69.9881 5.625 71.25C5.625 101.28 29.9695 114.375 60 114.375C90.0305 114.375 114.375 101.28 114.375 71.25C114.375 69.9881 114.316 68.7138 114.232 67.4353C112.303 94.8466 88.7686 106.875 60 106.875Z" fill="#F89F00"/>
<path d="M42.1875 37.5C39.5986 37.5 37.5 39.5156 37.5 42C37.5 39.5156 35.4014 37.5 32.8125 37.5C30.2236 37.5 28.125 39.5156 28.125 42C28.125 44.4844 34.9111 52.5 37.5 52.5C40.0889 52.5 46.875 44.4844 46.875 42C46.875 39.5156 44.7764 37.5 42.1875 37.5Z" fill="#E42E3D"/>
<path d="M87.1875 37.5C84.5986 37.5 82.5 39.5156 82.5 42C82.5 39.5156 80.4014 37.5 77.8125 37.5C75.2236 37.5 73.125 39.5156 73.125 42C73.125 44.4844 79.9111 52.5 82.5 52.5C85.0889 52.5 91.875 44.4844 91.875 42C91.875 39.5156 89.7764 37.5 87.1875 37.5Z" fill="#E42E3D"/>
<path d="M60 67.5C56.5202 67.4961 53.1841 66.112 50.7235 63.6515C48.263 61.1909 46.8789 57.8548 46.875 54.375C46.875 53.8777 47.0725 53.4008 47.4242 53.0492C47.7758 52.6975 48.2527 52.5 48.75 52.5C49.2473 52.5 49.7242 52.6975 50.0758 53.0492C50.4275 53.4008 50.625 53.8777 50.625 54.375C50.625 56.8614 51.6127 59.246 53.3709 61.0041C55.129 62.7623 57.5136 63.75 60 63.75C62.4864 63.75 64.871 62.7623 66.6291 61.0041C68.3873 59.246 69.375 56.8614 69.375 54.375C69.375 53.8777 69.5725 53.4008 69.9242 53.0492C70.2758 52.6975 70.7527 52.5 71.25 52.5C71.7473 52.5 72.2242 52.6975 72.5758 53.0492C72.9275 53.4008 73.125 53.8777 73.125 54.375C73.1211 57.8548 71.737 61.1909 69.2765 63.6515C66.8159 66.112 63.4798 67.4961 60 67.5Z" fill="#B46D2F"/>
<path d="M26.25 58.125C29.3566 58.125 31.875 56.4461 31.875 54.375C31.875 52.3039 29.3566 50.625 26.25 50.625C23.1434 50.625 20.625 52.3039 20.625 54.375C20.625 56.4461 23.1434 58.125 26.25 58.125Z" fill="#F597A4"/>
<path d="M93.75 58.125C96.8566 58.125 99.375 56.4461 99.375 54.375C99.375 52.3039 96.8566 50.625 93.75 50.625C90.6434 50.625 88.125 52.3039 88.125 54.375C88.125 56.4461 90.6434 58.125 93.75 58.125Z" fill="#F597A4"/>
</svg>
