<svg width="120" height="120" viewBox="0 0 120 120" fill="none" xmlns="http://www.w3.org/2000/svg">
<path d="M114.375 71.25C114.375 101.28 90.0305 114.375 60 114.375C29.9695 114.375 5.625 101.28 5.625 71.25C5.625 41.2195 29.9695 5.625 60 5.625C90.0305 5.625 114.375 41.2195 114.375 71.25Z" fill="#FFC70D"/>
<path d="M60 106.875C31.2314 106.875 7.69664 94.8466 5.7682 67.4353C5.68359 68.7138 5.625 69.9881 5.625 71.25C5.625 101.28 29.9695 114.375 60 114.375C90.0305 114.375 114.375 101.28 114.375 71.25C114.375 69.9881 114.316 68.7138 114.232 67.4353C112.303 94.8466 88.7686 106.875 60 106.875Z" fill="#F89F00"/>
<path d="M78.75 56.25C83.9277 56.25 88.125 52.0527 88.125 46.875C88.125 41.6973 83.9277 37.5 78.75 37.5C73.5723 37.5 69.375 41.6973 69.375 46.875C69.375 52.0527 73.5723 56.25 78.75 56.25Z" fill="white"/>
<path d="M64.6875 69.375H55.3125C52.7236 69.375 50.625 66.8566 50.625 63.75C50.625 60.6434 52.7236 58.125 55.3125 58.125H64.6875C67.2764 58.125 69.375 60.6434 69.375 63.75C69.375 66.8566 67.2764 69.375 64.6875 69.375Z" fill="#483D23"/>
<path d="M41.25 56.25C46.4277 56.25 50.625 52.0527 50.625 46.875C50.625 41.6973 46.4277 37.5 41.25 37.5C36.0723 37.5 31.875 41.6973 31.875 46.875C31.875 52.0527 36.0723 56.25 41.25 56.25Z" fill="white"/>
<path d="M41.25 48.75C42.2855 48.75 43.125 47.9105 43.125 46.875C43.125 45.8395 42.2855 45 41.25 45C40.2145 45 39.375 45.8395 39.375 46.875C39.375 47.9105 40.2145 48.75 41.25 48.75Z" fill="#483D23"/>
<path d="M78.75 48.75C79.7855 48.75 80.625 47.9105 80.625 46.875C80.625 45.8395 79.7855 45 78.75 45C77.7145 45 76.875 45.8395 76.875 46.875C76.875 47.9105 77.7145 48.75 78.75 48.75Z" fill="#483D23"/>
<path d="M89.9982 37.5C89.7077 37.4996 89.4213 37.4319 89.1614 37.3022L81.6614 33.5522C81.2166 33.3298 80.8784 32.9397 80.7211 32.4679C80.5638 31.9961 80.6004 31.4812 80.8228 31.0364C81.0453 30.5916 81.4353 30.2533 81.9071 30.096C82.3789 29.9388 82.8938 29.9754 83.3386 30.1978L90.8386 33.9478C91.2166 34.1367 91.5197 34.4478 91.6988 34.8306C91.8778 35.2134 91.9223 35.6454 91.825 36.0567C91.7277 36.4679 91.4943 36.8342 91.1627 37.0962C90.8311 37.3582 90.4208 37.5005 89.9982 37.5Z" fill="#483D23"/>
<path d="M30.0019 37.5C29.5793 37.5005 29.1689 37.3582 28.8373 37.0962C28.5057 36.8342 28.2723 36.4679 28.175 36.0567C28.0777 35.6454 28.1222 35.2134 28.3012 34.8306C28.4803 34.4478 28.7834 34.1367 29.1614 33.9478L36.6614 30.1978C37.1062 29.9754 37.6212 29.9388 38.093 30.096C38.5648 30.2533 38.9548 30.5916 39.1772 31.0364C39.3996 31.4812 39.4362 31.9961 39.2789 32.4679C39.1216 32.9397 38.7834 33.3298 38.3386 33.5522L30.8386 37.3022C30.5787 37.4319 30.2923 37.4996 30.0019 37.5Z" fill="#483D23"/>
</svg>
