<svg width="24" height="24" viewBox="0 0 24 24" fill="none" xmlns="http://www.w3.org/2000/svg">
<g id="star_set">
<path id="Star 5" d="M11.6326 2.37006C11.7715 2.04767 12.2285 2.04767 12.3674 2.37006L14.4586 7.22618C14.6903 7.76406 15.1973 8.13241 15.7804 8.1865L21.0451 8.67478C21.3946 8.7072 21.5358 9.14192 21.2721 9.37358L17.2999 12.8631C16.86 13.2496 16.6663 13.8456 16.7951 14.4169L17.9576 19.5748C18.0347 19.9173 17.6649 20.1859 17.3631 20.0067L12.8169 17.3073C12.3133 17.0083 11.6867 17.0083 11.1831 17.3073L6.63688 20.0067C6.33507 20.1859 5.96527 19.9173 6.04244 19.5748L7.20493 14.4169C7.3337 13.8456 7.14004 13.2496 6.70007 12.8631L2.72786 9.37359C2.46415 9.14192 2.6054 8.7072 2.95491 8.67478L8.21959 8.1865C8.80272 8.13241 9.30972 7.76406 9.54136 7.22618L11.6326 2.37006L11.0815 2.13274L11.6326 2.37006Z" stroke="#4C8DF8" stroke-width="1.2"/>
</g>
</svg>
