<svg width="24" height="24" viewBox="0 0 24 24" fill="none" xmlns="http://www.w3.org/2000/svg">
<g id="star_set">
<path id="Star 5" d="M11.0815 2.13274C11.4286 1.32678 12.5714 1.32678 12.9185 2.13274L15.0097 6.98886C15.1545 7.32504 15.4714 7.55526 15.8358 7.58906L21.1005 8.07735C21.9743 8.15839 22.3274 9.2452 21.6681 9.82435L17.6959 13.3139C17.4209 13.5555 17.2999 13.928 17.3804 14.285L18.5429 19.4429C18.7358 20.299 17.8113 20.9707 17.0568 20.5226L12.5106 17.8232C12.1958 17.6363 11.8042 17.6363 11.4894 17.8232L6.94322 20.5226C6.18869 20.9707 5.26419 20.299 5.45713 19.4429L6.61962 14.285C6.70009 13.928 6.57906 13.5555 6.30407 13.3139L2.33186 9.82435C1.6726 9.2452 2.02573 8.15839 2.8995 8.07735L8.16418 7.58906C8.52864 7.55526 8.84551 7.32504 8.99028 6.98886L11.0815 2.13274Z" fill="#FFC70D"/>
</g>
</svg>
