<svg width="20" height="20" viewBox="0 0 20 20" fill="none" xmlns="http://www.w3.org/2000/svg">
<g id="text-selection">
<path id="Vector" d="M7.5 7.5H12.5" stroke="#2970E4" stroke-width="1.25" stroke-linecap="round"/>
<path id="Vector_2" d="M10 12.5V7.5" stroke="#2970E4" stroke-width="1.25" stroke-linecap="round"/>
<path id="Vector_3" d="M4.99996 3.33335C4.99996 4.25383 4.25377 5.00002 3.33329 5.00002C2.41282 5.00002 1.66663 4.25383 1.66663 3.33335C1.66663 2.41288 2.41282 1.66669 3.33329 1.66669C4.25377 1.66669 4.99996 2.41288 4.99996 3.33335Z" stroke="#2970E4" stroke-width="1.25"/>
<path id="Vector_4" d="M4.99996 16.6667C4.99996 17.5872 4.25377 18.3333 3.33329 18.3333C2.41282 18.3333 1.66663 17.5872 1.66663 16.6667C1.66663 15.7462 2.41282 15 3.33329 15C4.25377 15 4.99996 15.7462 4.99996 16.6667Z" stroke="#2970E4" stroke-width="1.25"/>
<path id="Vector_5" d="M18.3333 3.33335C18.3333 4.25383 17.5872 5.00002 16.6667 5.00002C15.7462 5.00002 15 4.25383 15 3.33335C15 2.41288 15.7462 1.66669 16.6667 1.66669C17.5872 1.66669 18.3333 2.41288 18.3333 3.33335Z" stroke="#2970E4" stroke-width="1.25"/>
<path id="Vector_6" d="M18.3333 16.6667C18.3333 17.5872 17.5872 18.3333 16.6667 18.3333C15.7462 18.3333 15 17.5872 15 16.6667C15 15.7462 15.7462 15 16.6667 15C17.5872 15 18.3333 15.7462 18.3333 16.6667Z" stroke="#2970E4" stroke-width="1.25"/>
<path id="Vector_7" d="M15 3.33331H5" stroke="#2970E4" stroke-width="1.25" stroke-linecap="round"/>
<path id="Vector_8" d="M16.6666 15V10M16.6666 5V6.66667" stroke="#2970E4" stroke-width="1.25" stroke-linecap="round"/>
<path id="Vector_9" d="M15 16.6667H10M5 16.6667H6.66667" stroke="#2970E4" stroke-width="1.25" stroke-linecap="round"/>
<path id="Vector_10" d="M3.33337 5V15" stroke="#2970E4" stroke-width="1.25" stroke-linecap="round"/>
</g>
</svg>
