<svg width="20" height="21" viewBox="0 0 20 21" fill="none" xmlns="http://www.w3.org/2000/svg">
<path fill-rule="evenodd" clip-rule="evenodd" d="M3.60531 8.86757V6.9211C3.60531 3.38939 6.46834 0.526367 10.0001 0.526367C13.5317 0.526367 16.3948 3.38939 16.3948 6.9211V8.86757C17.4509 8.94648 18.1386 9.14552 18.6413 9.64829C19.4737 10.4807 19.4737 11.8205 19.4737 14.5001C19.4737 17.1796 19.4737 18.5194 18.6413 19.3518C17.8088 20.1843 16.4691 20.1843 13.7895 20.1843H6.21058C3.53101 20.1843 2.19123 20.1843 1.3588 19.3518C0.526367 18.5194 0.526367 17.1796 0.526367 14.5001C0.526367 11.8205 0.526367 10.4807 1.3588 9.64829C1.8615 9.14552 2.54924 8.94648 3.60531 8.86757ZM5.02637 6.9211C5.02637 4.17422 7.25317 1.94742 10.0001 1.94742C12.7469 1.94742 14.9737 4.17422 14.9737 6.9211V8.81925C14.6109 8.81584 14.2173 8.81584 13.7895 8.81584H6.21058C5.78283 8.81584 5.38922 8.81584 5.02637 8.81925V6.9211ZM11.8948 14.5001C11.8948 15.5465 11.0465 16.3948 10.0001 16.3948C8.95359 16.3948 8.10531 15.5465 8.10531 14.5001C8.10531 13.4536 8.95359 12.6053 10.0001 12.6053C11.0465 12.6053 11.8948 13.4536 11.8948 14.5001Z" fill="#2970E4"/>
</svg>
