<svg width="20" height="14" viewBox="0 0 20 14" fill="none" xmlns="http://www.w3.org/2000/svg">
<path d="M14 5L16.5768 3.45392C17.3699 2.97803 17.7665 2.74009 18.0928 2.77051C18.3773 2.79703 18.6369 2.944 18.806 3.17433C19 3.43848 19 3.90095 19 4.8259V9.1741C19 10.099 19 10.5615 18.806 10.8257C18.6369 11.056 18.3773 11.203 18.0928 11.2295C17.7665 11.2599 17.3699 11.022 16.5768 10.5461L14 9M4.2 13H10.8C11.9201 13 12.4802 13 12.908 12.782C13.2843 12.5903 13.5903 12.2843 13.782 11.908C14 11.4802 14 10.9201 14 9.8V4.2C14 3.0799 14 2.51984 13.782 2.09202C13.5903 1.71569 13.2843 1.40973 12.908 1.21799C12.4802 1 11.9201 1 10.8 1H4.2C3.0799 1 2.51984 1 2.09202 1.21799C1.71569 1.40973 1.40973 1.71569 1.21799 2.09202C1 2.51984 1 3.07989 1 4.2V9.8C1 10.9201 1 11.4802 1.21799 11.908C1.40973 12.2843 1.71569 12.5903 2.09202 12.782C2.51984 13 3.07989 13 4.2 13Z" fill="#2970E4"/>
<path d="M14 5L16.5768 3.45392C17.3699 2.97803 17.7665 2.74009 18.0928 2.77051C18.3773 2.79703 18.6369 2.944 18.806 3.17433C19 3.43848 19 3.90095 19 4.8259V9.1741C19 10.099 19 10.5615 18.806 10.8257C18.6369 11.056 18.3773 11.203 18.0928 11.2295C17.7665 11.2599 17.3699 11.022 16.5768 10.5461L14 9M4.2 13H10.8C11.9201 13 12.4802 13 12.908 12.782C13.2843 12.5903 13.5903 12.2843 13.782 11.908C14 11.4802 14 10.9201 14 9.8V4.2C14 3.0799 14 2.51984 13.782 2.09202C13.5903 1.71569 13.2843 1.40973 12.908 1.21799C12.4802 1 11.9201 1 10.8 1H4.2C3.0799 1 2.51984 1 2.09202 1.21799C1.71569 1.40973 1.40973 1.71569 1.21799 2.09202C1 2.51984 1 3.07989 1 4.2V9.8C1 10.9201 1 11.4802 1.21799 11.908C1.40973 12.2843 1.71569 12.5903 2.09202 12.782C2.51984 13 3.07989 13 4.2 13Z" stroke="#2970E4" stroke-width="2" stroke-linecap="round" stroke-linejoin="round"/>
</svg>
