<svg width="25" height="24" viewBox="0 0 25 24" fill="none" xmlns="http://www.w3.org/2000/svg">
<g id="web">
<mask id="mask0_1234_1232" style="mask-type:alpha" maskUnits="userSpaceOnUse" x="0" y="0" width="25" height="24">
<rect id="Bounding box" x="0.333374" width="24" height="24" fill="#D9D9D9"/>
</mask>
<g mask="url(#mask0_1234_1232)">
<path id="language" d="M12.3334 22C10.9667 22 9.67504 21.7375 8.45837 21.2125C7.24171 20.6875 6.17921 19.9708 5.27087 19.0625C4.36254 18.1542 3.64587 17.0917 3.12087 15.875C2.59587 14.6583 2.33337 13.3667 2.33337 12C2.33337 10.6167 2.59587 9.32083 3.12087 8.1125C3.64587 6.90417 4.36254 5.84583 5.27087 4.9375C6.17921 4.02917 7.24171 3.3125 8.45837 2.7875C9.67504 2.2625 10.9667 2 12.3334 2C13.7167 2 15.0125 2.2625 16.2209 2.7875C17.4292 3.3125 18.4875 4.02917 19.3959 4.9375C20.3042 5.84583 21.0209 6.90417 21.5459 8.1125C22.0709 9.32083 22.3334 10.6167 22.3334 12C22.3334 13.3667 22.0709 14.6583 21.5459 15.875C21.0209 17.0917 20.3042 18.1542 19.3959 19.0625C18.4875 19.9708 17.4292 20.6875 16.2209 21.2125C15.0125 21.7375 13.7167 22 12.3334 22ZM12.3334 19.95C12.7667 19.35 13.1417 18.725 13.4584 18.075C13.775 17.425 14.0334 16.7333 14.2334 16H10.4334C10.6334 16.7333 10.8917 17.425 11.2084 18.075C11.525 18.725 11.9 19.35 12.3334 19.95ZM9.73337 19.55C9.43337 19 9.17087 18.4292 8.94587 17.8375C8.72087 17.2458 8.53337 16.6333 8.38337 16H5.43337C5.91671 16.8333 6.52087 17.5583 7.24587 18.175C7.97087 18.7917 8.80004 19.25 9.73337 19.55ZM14.9334 19.55C15.8667 19.25 16.6959 18.7917 17.4209 18.175C18.1459 17.5583 18.75 16.8333 19.2334 16H16.2834C16.1334 16.6333 15.9459 17.2458 15.7209 17.8375C15.4959 18.4292 15.2334 19 14.9334 19.55ZM4.58337 14H7.98337C7.93337 13.6667 7.89587 13.3375 7.87087 13.0125C7.84587 12.6875 7.83337 12.35 7.83337 12C7.83337 11.65 7.84587 11.3125 7.87087 10.9875C7.89587 10.6625 7.93337 10.3333 7.98337 10H4.58337C4.50004 10.3333 4.43754 10.6625 4.39587 10.9875C4.35421 11.3125 4.33337 11.65 4.33337 12C4.33337 12.35 4.35421 12.6875 4.39587 13.0125C4.43754 13.3375 4.50004 13.6667 4.58337 14ZM9.98337 14H14.6834C14.7334 13.6667 14.7709 13.3375 14.7959 13.0125C14.8209 12.6875 14.8334 12.35 14.8334 12C14.8334 11.65 14.8209 11.3125 14.7959 10.9875C14.7709 10.6625 14.7334 10.3333 14.6834 10H9.98337C9.93337 10.3333 9.89587 10.6625 9.87087 10.9875C9.84587 11.3125 9.83337 11.65 9.83337 12C9.83337 12.35 9.84587 12.6875 9.87087 13.0125C9.89587 13.3375 9.93337 13.6667 9.98337 14ZM16.6834 14H20.0834C20.1667 13.6667 20.2292 13.3375 20.2709 13.0125C20.3125 12.6875 20.3334 12.35 20.3334 12C20.3334 11.65 20.3125 11.3125 20.2709 10.9875C20.2292 10.6625 20.1667 10.3333 20.0834 10H16.6834C16.7334 10.3333 16.7709 10.6625 16.7959 10.9875C16.8209 11.3125 16.8334 11.65 16.8334 12C16.8334 12.35 16.8209 12.6875 16.7959 13.0125C16.7709 13.3375 16.7334 13.6667 16.6834 14ZM16.2834 8H19.2334C18.75 7.16667 18.1459 6.44167 17.4209 5.825C16.6959 5.20833 15.8667 4.75 14.9334 4.45C15.2334 5 15.4959 5.57083 15.7209 6.1625C15.9459 6.75417 16.1334 7.36667 16.2834 8ZM10.4334 8H14.2334C14.0334 7.26667 13.775 6.575 13.4584 5.925C13.1417 5.275 12.7667 4.65 12.3334 4.05C11.9 4.65 11.525 5.275 11.2084 5.925C10.8917 6.575 10.6334 7.26667 10.4334 8ZM5.43337 8H8.38337C8.53337 7.36667 8.72087 6.75417 8.94587 6.1625C9.17087 5.57083 9.43337 5 9.73337 4.45C8.80004 4.75 7.97087 5.20833 7.24587 5.825C6.52087 6.44167 5.91671 7.16667 5.43337 8Z" fill="#2970E4"/>
</g>
</g>
</svg>
